<svg xmlns="http://www.w3.org/2000/svg" viewBox="0 0 460.4 455.37"><defs><style>.cls-1{fill:#585858;}.cls-2{fill:#2c2c2c;}.cls-3{fill:#fff;}</style></defs><g id="Layer_2" data-name="Layer 2"><g id="Layer_1-2" data-name="Layer 1"><path d="M460.4,424.48v4c-.65.59-.47,1.39-.51,2.13v1.72c0,.74-.14,1.53.51,2.13v9c-.85,6.55-4,11-11,11.95H122.62c-6.2-.49-9.14-4.82-11.56-9.78-1.07-2.53-1-5.22-.91-7.86.77-18.72,1.8-37.43,3.39-56.1a20.85,20.85,0,0,0,.71-6.39c0-23.34,2.41-46.57,3.55-69.85.41-8.43,1.25-16.84,1.37-25.28,1.61-22.5,2.29-45.07,4.3-67.55,1.57-5.33.18-10.79.7-16.17,0-6,1.08-12,1.35-18,1.54-5.91.1-11.92.65-17.86,1.26-8.52.36-17.21,2-25.71a27.16,27.16,0,0,1,.43-5.25c.94-2.85.65-5.77.5-8.68-.24-13.88,1.26-27.67,2.06-41.49a5.66,5.66,0,0,1,1.49-4.08c3.75-1.39,7.57-.19,11.34-.19Q288.11,75,432.27,75c4.14,0,7.71.15,8.24,5.37,1.44,11.67,1.7,23.44,2.47,35.17,1,15.2,1.84,30.42,2.73,45.62q1.16,19.85,2.3,39.68,1.31,22.32,2.66,44.63c.8,13.06,1.53,26.12,2.3,39.18q1.32,22.82,2.7,45.63c.78,12.89,1.5,25.79,2.27,38.68,1.07,18,1.54,36.06,2,54.11A3.09,3.09,0,0,0,460.4,424.48Z"/><path d="M36.92,455.37c-1.81-25.83-3.7-51.65-5.37-77.49-.25-3.84-1.2-5.9-5.42-5.08-3,.58-3.91-.7-4.11-3.74q-2.79-41.73-5.95-83.43c-.31-4.08.18-6.42,5-5.47,2.87.57,3.49-.67,3.28-3.55q-2.49-33.26-4.57-66.56c-.26-4.12-1.18-6-5.94-5.76C5.36,204.63.21,199.21.08,190.8,0,185.16,0,179.51.09,173.87c.18-7.17,4.89-12.1,12-12.82.66-.07,1.33-.07,2-.13,4.08-.39,9.08,1.73,12-1,2.61-2.41,3.12-7.1,4.52-10.8,1.53-4,2.91-8.12,4.56-12.09,2.35-5.63,5.88-10,12.53-10.61,2.44-.79,4.94-.36,7.4-.36,20.56,0,55.82.18,76.37-.15,6-.1,7.41,2.63,5.25,7.58-2.08,1.89-4.68,1.38-7.12,1.38-19.24,0-53.17,0-72.42,0a37.28,37.28,0,0,0-6.43.23c-3.88,1-6.14,3.54-7.37,7.27-1.44,4.39-3.6,8.51-4.94,12.93-.44,1.44-1.82,3,.18,4.42,18.25.55,36.48.08,54.69.22,7.13.05,24.93-.09,32.05,0,3.24,0,6,.61,6.17,4.73.09,3.59-1.49,5-6.32,5-31,.08-72.64.08-103.63.12-2.63,0-5.31-.4-7.86.6-5.8,4-6.42,19.43-.91,23.89,2.08.88,4.26.57,6.4.57,30.3,0,73.89,0,104.19,0,2.46,0,5-.41,7.31.88,2.48,3.22,1.73,6.16-.76,9-2.3,1.3-4.83.91-7.28.91-24.65,0-62.56,0-87.21.06-2.16,0-4.82-.89-5.9,2.18-.68,7.65.74,15.2,1.19,22.78.79,13.19,2,26.36,2.75,39.56.15,2.8.2,5.64,1.88,8.09,1.78,1.77,4,1.25,6.14,1.25,21.38,0,42.76,0,64.13,0,7.91,0,8.17.7,7.85,8.63-.56,14.06-1.71,28.08-2.33,42.14-.55,12.4-1.73,24.76-2.08,37.18A7.45,7.45,0,0,1,107,373c-2.23,1.48-4.77,1.06-7.21,1.07-17.65,0-35.3,0-52.95,0-2,0-4.47-.67-5.35,2.22-.16,12.59,1.69,25,2.29,37.57.37,7.9,1.24,15.79,1.63,23.71.13,2.47,0,5,1.64,7.1,1.75,1.78,4,1.28,6.1,1.3,16.65.16,33.31-.26,50,.22,4.23,2.22,8,5,10.53,9.16Z"/><path d="M113.65,455.37c-1.61-1.1-3.25-2.25-4.9-3.48-2.6-1.91-5-3.83-7.34-5.73A43.73,43.73,0,0,0,109,446c1.35-.15,2.62-.35,3.8-.58a15.18,15.18,0,0,0,3,5.47,15.42,15.42,0,0,0,6.78,4.48Z"/><path class="cls-1" d="M438.71,63c-.81,6,1.58,11.81.62,17.77-.38-3.91-2.59-4.27-6.21-4.26q-146.72.22-293.43.09a64.38,64.38,0,0,1-6.89-.72c-2.56-4.62-2.25-9.28-.23-14,2.4-.94,4.91-.73,7.39-.74q145.16,0,290.31,0C433.16,61.18,436.32,60.46,438.71,63Z"/><path class="cls-2" d="M105.94,373.57c.6-5.72,1.41-13.3,2.43-22.24,1.49-13,1.95-15,2.14-20.32.28-7.83-.35-12.76.2-22.78.43-7.74,1-15.49,1.81-23.2.42-3.8-1.4-4-4.29-4q-34.86.09-69.72,0c-1.86,0-4,.93-5.56-1,1.61-1.46,3.62-1.55,5.62-1.55,24.54,0,49.09-.23,73.63.11,2.88.06,5.9-.62,8.42,1.47-1.75,28.91-3,51.34-3.75,63.73-.31,5.48-.88,15.47-1.2,28.8,0,1,0,1.89-.06,2.46a19.5,19.5,0,0,1-9.67-1.42Z"/><path d="M129.66,129.5c0-1.3,0-2.6,0-3.9l.87-4.44C130.25,123.94,131.52,126.88,129.66,129.5Z"/><path d="M131.48,62.92l-5.78-1.27c-5.4-4.11-7-9.45-6.34-16.19,1.3-12.7,1.91-25.48,3-38.21.49-5.84,2.1-7.24,7.83-7.24h311.3c5.86,0,7.61,1.77,8,7.62,1,13.41,2.14,26.8,2.93,40.22.56,9.37-4.3,14.49-13.72,15.15-2.33,0-4.65-.12-7-.12q-145.9,0-291.82,0C137.11,62.88,134.29,62.9,131.48,62.92Z"/><rect class="cls-3" x="180.84" y="173.35" width="210" height="210"/></g></g></svg>