<svg xmlns="http://www.w3.org/2000/svg" viewBox="0 0 321.11 418.2"><defs><style>.cls-1{fill:#050505;}.cls-2{fill:#fff;}</style></defs><g id="Layer_2" data-name="Layer 2"><g id="Layer_1-2" data-name="Layer 1"><path d="M306.64,332.48c-1.32-.06-2.65-.05-4-.05H18.7a37.71,37.71,0,0,0-7.43.44c-6.7,1.33-10,4.85-10.87,11.66-.71,5.62-.26,11.27-.29,16.9C0,375.54,0,389.65.11,403.76c.08,10.45,3.81,14.42,13.37,14.42q147,0,293.91,0c9,0,11.34-1.89,13.59-10.43V344C318.79,335.67,315.37,332.92,306.64,332.48ZM69.7,385.17c0,3.55-1.84,5-5.35,4.85-4.63-.16-9.26,0-13.89,0s-9.27-.1-13.9,0c-3.55.1-5.19-1.43-5.16-5,.06-5.79.07-11.59,0-17.39,0-3.2,1.27-5.12,4.57-5.15,9.76-.06,19.52-.1,29.28,0,2.89,0,4.5,1.73,4.48,4.79C69.68,373.24,69.72,379.21,69.7,385.17Z"/><path d="M311.16,0H10.65C2.38,2.09.32,4.78.22,13.61c0,.5,0,1,0,1.5V305.85c0,1,0,2,0,3,.46,8.59,4.83,13,13.41,13.48,2.31.14,4.64.08,7,.08H220.49c28.51,0,57,.06,85.53,0,9.7,0,12.84-2.57,15.09-11.53V10C320.19,4.24,317.24.56,311.16,0Zm-8,308.44c-47.59-.17-95.19-.11-142.78-.11-47.26,0-94.52-.06-141.78.11-4.17,0-5.08-1-5.08-5.13q.2-142.69,0-285.39c0-4.18,1-5.07,5.11-5.07q142.27.2,284.55,0c4.14,0,5.09,1,5.08,5.1q-.19,142.7,0,285.39C308.28,307.5,307.3,308.45,303.17,308.44ZM311.16,0H10.65C2.38,2.09.32,4.78.22,13.61c0,.5,0,1,0,1.5V305.85c0,1,0,2,0,3,.46,8.59,4.83,13,13.41,13.48,2.31.14,4.64.08,7,.08H220.49c28.51,0,57,.06,85.53,0,9.7,0,12.84-2.57,15.09-11.53V10C320.19,4.24,317.24.56,311.16,0Zm-8,308.44c-47.59-.17-95.19-.11-142.78-.11-47.26,0-94.52-.06-141.78.11-4.17,0-5.08-1-5.08-5.13q.2-142.69,0-285.39c0-4.18,1-5.07,5.11-5.07q142.27.2,284.55,0c4.14,0,5.09,1,5.08,5.1q-.19,142.7,0,285.39C308.28,307.5,307.3,308.45,303.17,308.44ZM311.16,0H10.65C2.38,2.09.32,4.78.22,13.61c0,.5,0,1,0,1.5V305.85c0,1,0,2,0,3,.46,8.59,4.83,13,13.41,13.48,2.31.14,4.64.08,7,.08H220.49c28.51,0,57,.06,85.53,0,9.7,0,12.84-2.57,15.09-11.53V10C320.19,4.24,317.24.56,311.16,0Zm-8,308.44c-47.59-.17-95.19-.11-142.78-.11-47.26,0-94.52-.06-141.78.11-4.17,0-5.08-1-5.08-5.13q.2-142.69,0-285.39c0-4.18,1-5.07,5.11-5.07q142.27.2,284.55,0c4.14,0,5.09,1,5.08,5.1q-.19,142.7,0,285.39C308.28,307.5,307.3,308.45,303.17,308.44ZM311.16,0H10.65C2.38,2.09.32,4.78.22,13.61c0,.5,0,1,0,1.5V305.85c0,1,0,2,0,3,.46,8.59,4.83,13,13.41,13.48,2.31.14,4.64.08,7,.08H220.49c28.51,0,57,.06,85.53,0,9.7,0,12.84-2.57,15.09-11.53V10C320.19,4.24,317.24.56,311.16,0Zm-8,308.44c-47.59-.17-95.19-.11-142.78-.11-47.26,0-94.52-.06-141.78.11-4.17,0-5.08-1-5.08-5.13q.2-142.69,0-285.39c0-4.18,1-5.07,5.11-5.07q142.27.2,284.55,0c4.14,0,5.09,1,5.08,5.1q-.19,142.7,0,285.39C308.28,307.5,307.3,308.45,303.17,308.44Z"/><path class="cls-1" d="M45.72,369.77,57,376.3l-11.3,6.52Z"/><rect class="cls-2" x="55.49" y="53.4" width="210" height="210"/></g></g></svg>