<?xml version="1.0" encoding="UTF-8"?><svg id="a" xmlns="http://www.w3.org/2000/svg" viewBox="0 0 32 32"><circle cx="16" cy="16" r="16" fill="#f27900"/><g><path d="M8.82,13.74c-.19,0-.35,.07-.48,.2s-.2,.29-.2,.48v6.29c0,.18,.06,.31,.19,.4,.13,.09,.29,.13,.49,.13s.37-.04,.5-.13,.19-.22,.19-.4v-6.29c0-.19-.07-.35-.2-.48-.13-.13-.3-.2-.49-.2Z" fill="#fff"/><path d="M6.68,16.17c-.19,0-.35,.07-.48,.2-.13,.13-.2,.3-.2,.49v2.7c0,.25,.09,.44,.27,.56s.37,.17,.58,.13c.19-.04,.33-.11,.4-.2,.08-.1,.12-.26,.12-.49v-2.7c0-.19-.07-.36-.2-.49-.13-.13-.3-.2-.49-.2Z" fill="#fff"/><path d="M25.07,16.19c-.62-.61-1.36-.92-2.23-.92-.43,0-.83,.08-1.21,.24-.08-.93-.37-1.78-.88-2.55-.51-.77-1.17-1.38-1.99-1.83s-1.7-.67-2.65-.67c-.41,0-.82,.05-1.24,.15-.19,.06-.29,.25-.29,.58v10.13s.01,.08,.04,.13,.07,.08,.13,.1h8.1c.86,0,1.6-.3,2.22-.91,.62-.61,.93-1.36,.93-2.22s-.31-1.6-.93-2.21Z" fill="#fff"/><path d="M10.97,14.57c-.19,0-.36,.07-.49,.2-.14,.14-.2,.3-.2,.49v5.74c0,.18,.07,.31,.2,.4,.13,.09,.3,.13,.5,.13s.36-.04,.49-.13,.19-.22,.19-.4v-5.74c0-.19-.07-.36-.2-.49-.13-.14-.29-.2-.48-.2Z" fill="#fff"/><path d="M13.32,10.84c-.2-.05-.41,0-.6,.18-.2,.17-.3,.4-.3,.71v9.31c0,.34,.23,.51,.69,.51s.69-.17,.69-.51V11.73c0-.52-.16-.82-.47-.88Z" fill="#fff"/></g></svg>