<svg xmlns="http://www.w3.org/2000/svg" viewBox="0 0 32 32">
    <circle fill="#ea4c89" cx="16" cy="16" r="16"/>
    <path fill="#fff" d="M20.23,22.17a26.51,26.51,0,0,0-1.41-5.09,14.91,14.91,0,0,1,4.57.19A7.51,7.51,0,0,1,20.23,22.17Zm-8.77-.23a10.23,10.23,0,0,1,5.88-4.57,25.48,25.48,0,0,1,1.51,5.55,7.58,7.58,0,0,1-2.85.56A7.45,7.45,0,0,1,11.46,21.94ZM8.52,16v-.24h0a27.88,27.88,0,0,0,7.69-.87c.18.37.36.72.52,1.1a11.66,11.66,0,0,0-6.4,4.93A7.38,7.38,0,0,1,8.52,16ZM12.8,9.24a36.57,36.57,0,0,1,2.75,4.31,26.61,26.61,0,0,1-6.83.76A7.53,7.53,0,0,1,12.8,9.24Zm8.06,1.06A9.31,9.31,0,0,1,17,13.07a38.13,38.13,0,0,0-2.73-4.34,7.45,7.45,0,0,1,6.59,1.57Zm1,1.08a7.5,7.5,0,0,1,1.6,4.41,16.17,16.17,0,0,0-5.24-.13c-.19-.43-.38-.86-.59-1.27a10.71,10.71,0,0,0,4.21-3ZM16,7a9,9,0,1,0,9,9h0A9,9,0,0,0,16,7Z"/>
</svg>