<?xml version="1.0" encoding="UTF-8"?><svg id="a" xmlns="http://www.w3.org/2000/svg" viewBox="0 0 32 32"><circle cx="16" cy="16" r="16" fill="#da3743"/><path d="M4.95,16c0-.81,.49-1.54,1.24-1.85,.75-.31,1.61-.14,2.19,.43,.57,.57,.74,1.44,.43,2.19-.31,.75-1.04,1.24-1.85,1.24-1.11,0-2.01-.9-2.01-2.01m14.08,2.01c-.81,0-1.54-.49-1.85-1.24-.31-.75-.14-1.61,.43-2.19s1.44-.75,2.19-.44c.75,.31,1.24,1.04,1.24,1.85,0,.53-.21,1.04-.59,1.42-.38,.38-.89,.59-1.42,.59h0Zm0-10.03c-3.25,0-6.18,1.95-7.42,4.95-1.24,3-.56,6.45,1.74,8.75,2.3,2.3,5.75,2.99,8.75,1.74,3-1.24,4.96-4.17,4.96-7.42,0-2.13-.84-4.17-2.35-5.67-1.5-1.51-3.54-2.35-5.67-2.35Z" fill="#fff"/></svg>