<svg xmlns="http://www.w3.org/2000/svg" viewBox="0 0 32 32">
<circle fill="#ffea00" cx="16" cy="16" r="16"/>
<path fill="#fff" d="M16.11,24.24h-.22a3.86,3.86,0,0,1-2.35-.93,3.53,3.53,0,0,0-1.36-.7,4.37,4.37,0,0,0-.72-.06,5.56,5.56,0,0,0-1,.11,2.32,2.32,0,0,1-.38.06.23.23,0,0,1-.25-.18c0-.14-.07-.28-.1-.41-.08-.34-.13-.55-.27-.57-1.65-.25-2.12-.6-2.23-.85a.36.36,0,0,1,0-.1.19.19,0,0,1,.16-.2,5.44,5.44,0,0,0,3.71-3.11h0a1,1,0,0,0,.09-.82c-.17-.4-.75-.59-1.12-.71l-.25-.08c-.76-.3-.81-.6-.79-.75a.73.73,0,0,1,.69-.45.52.52,0,0,1,.21,0,2,2,0,0,0,.9.24.75.75,0,0,0,.54-.17c0-.17,0-.35,0-.54a8.72,8.72,0,0,1,.21-3.53A4.59,4.59,0,0,1,15.8,7.78h.39a4.6,4.6,0,0,1,4.26,2.75,8.75,8.75,0,0,1,.21,3.53v.06c0,.16,0,.33,0,.48a.76.76,0,0,0,.5.17h0a2.34,2.34,0,0,0,.85-.23.58.58,0,0,1,.26-.06.81.81,0,0,1,.31.06h0A.56.56,0,0,1,23,15c0,.18-.12.44-.78.7l-.25.09c-.38.12-.94.3-1.13.7a1,1,0,0,0,.09.82h0a5.44,5.44,0,0,0,3.72,3.11.19.19,0,0,1,.15.2.43.43,0,0,1,0,.11c-.11.24-.58.59-2.23.84-.13,0-.19.2-.26.57a3.45,3.45,0,0,1-.11.4.22.22,0,0,1-.23.18h0a2.47,2.47,0,0,1-.38-.05,4.68,4.68,0,0,0-1-.1,4.17,4.17,0,0,0-.71.06,3.31,3.31,0,0,0-1.36.69A3.75,3.75,0,0,1,16.11,24.24Z"/>
</svg>