<?xml version="1.0" encoding="UTF-8"?><svg id="a" xmlns="http://www.w3.org/2000/svg" viewBox="0 0 32 32"><circle cx="16" cy="16" r="16" fill="#eb3a2e"/><g><path d="M9.12,15.64c-.31,.49-.44,2.05-.33,3.09,.02,.28,.08,.55,.19,.8,.1,.23,.32,.38,.57,.4,.15,0,.25,0,3.1-.94l1.28-.4c.33-.1,.55-.4,.55-.74,.04-.36-.16-.71-.5-.84l-.9-.37c-3.07-1.26-3.2-1.32-3.36-1.32-.24-.01-.47,.11-.59,.31Z" fill="#fff"/><path d="M15.98,25.08c.05-.14,.06-.24,.06-3.24v-1.34c0-.34-.21-.64-.54-.76-.33-.14-.72-.06-.95,.22,0,0-.62,.74-.63,.74-2.15,2.53-2.24,2.64-2.29,2.8-.04,.09-.05,.18-.04,.28,.02,.15,.08,.29,.17,.4,.5,.59,2.89,1.47,3.66,1.34,.25-.03,.47-.2,.55-.44Z" fill="#fff"/><path d="M20.84,24.03c.72-.29,2.3-2.29,2.4-3.06,.05-.24-.04-.49-.23-.65-.12-.09-.22-.12-3.07-1.06l-1.27-.42c-.32-.11-.68,0-.88,.28-.25,.27-.28,.67-.09,.98l.5,.8c1.7,2.76,1.83,2.95,1.95,3.04,.2,.15,.46,.18,.68,.07v.02Z" fill="#fff"/><path d="M19.36,16.94c3.25-.8,3.37-.83,3.5-.91,.2-.14,.31-.38,.28-.62v-.02c-.08-.8-1.48-2.87-2.17-3.2-.22-.12-.48-.11-.69,.03-.13,.08-.22,.2-1.96,2.58,0,0-.8,1.07-.8,1.08-.2,.27-.2,.65,0,.92,.18,.31,.54,.48,.89,.4l-.02,.02c.16-.09,.44-.16,.96-.28Z" fill="#fff"/><path d="M16.1,14.26h0c-.06-1.29-.44-7.02-.49-7.28-.07-.25-.27-.43-.52-.48-.83-.21-4,.68-4.58,1.28-.18,.17-.26,.42-.2,.66,.09,.19,4,6.36,4,6.36,.58,.94,1.06,.8,1.2,.74,.14-.06,.65-.19,.6-1.29Z" fill="#fff"/></g></svg>