<svg xmlns="http://www.w3.org/2000/svg" viewBox="0 0 32 32">
<circle fill="#5181b8" cx="16" cy="16" r="16"/>
<path fill="#fff" fillRule="evenodd" d="M24.59,11.37c.12-.42,0-.72-.59-.72H22a.84.84,0,0,0-.86.57,16.33,16.33,0,0,1-2.42,4c-.47.46-.66.61-.92.61s-.31-.15-.31-.57V11.37c0-.51-.14-.72-.56-.72H13.87a.49.49,0,0,0-.51.45c0,.48.7.59.79,1.92v2.9c0,.63-.12.74-.37.74-.66,0-2.29-2.45-3.25-5.26-.2-.52-.38-.75-.89-.75h-2c-.56,0-.67.27-.67.57,0,.52.66,3.11,3.11,6.52a7.68,7.68,0,0,0,6,3.61c1.25,0,1.4-.28,1.4-.76V18.81c0-.56.12-.67.52-.67s.79.14,2,1.27c1.34,1.33,1.56,1.94,2.31,1.94h2c.56,0,.84-.28.67-.83a8.59,8.59,0,0,0-1.66-2.31c-.46-.55-1.15-1.13-1.35-1.42s-.21-.55,0-.87c0,0,2.41-3.4,2.65-4.55Z"/>
</svg>