<svg xmlns="http://www.w3.org/2000/svg" viewBox="0 0 32 32">
<circle cx="16" cy="16" r="16"/>
<path fill="#fff" d="M16,6A10,10,0,1,0,26,16,10,10,0,0,0,16,6Zm8,9.5H21a13.67,13.67,0,0,0-1.78-6.84A8,8,0,0,1,24,15.5Zm-6.42,8.35A9.38,9.38,0,0,1,16.5,24V16.5H20C19.92,19.76,18.92,22.6,17.55,23.85ZM12,16.5H15.5V24a9.38,9.38,0,0,1-1.05-.12C13.08,22.6,12.08,19.76,12,16.5Zm2.46-8.35A9.38,9.38,0,0,1,15.5,8V15.5H12C12.08,12.24,13.08,9.4,14.45,8.15ZM16.5,15.5V8a9.38,9.38,0,0,1,1.05.12C18.92,9.4,19.92,12.24,20,15.5ZM12.82,8.66A13.67,13.67,0,0,0,11,15.5H8A8,8,0,0,1,12.82,8.66ZM8,16.5h3a13.67,13.67,0,0,0,1.78,6.84A8,8,0,0,1,8,16.5Zm11.15,6.84A13.67,13.67,0,0,0,21,16.5h3A8,8,0,0,1,19.18,23.34Z"/>
</svg>