<svg xmlns="http://www.w3.org/2000/svg" viewBox="0 0 32 32">
<circle fill="#479951" cx="16" cy="16" r="16"/>
<path fill="#fff" d="M26.41,13.32a5.45,5.45,0,0,1,1-1.86H23.62c-.06,0-.11-.06-.17-.06-.24-.35-1.63-2.15-7.22-2.15C10.07,9.25,9,11.46,9,11.46H5a4.8,4.8,0,0,1,1,2A6,6,0,0,0,4.89,17,5.73,5.73,0,0,0,15,20.77l1.28,1.86,1.11-1.92a5.71,5.71,0,0,0,10.18-3.66A5.14,5.14,0,0,0,26.41,13.32ZM10.76,21.53a4.6,4.6,0,1,1,4.6-4.6A4.6,4.6,0,0,1,10.76,21.53ZM8.79,15a2.79,2.79,0,0,0,2,4.77,2.79,2.79,0,1,0-2-4.77Zm.46,3.49a2.15,2.15,0,0,1,1.51-3.66,2.15,2.15,0,1,1,0,4.3,2.1,2.1,0,0,1-1.51-.64Zm.58-1.51a.93.93,0,1,0,.93-.93A.92.92,0,0,0,9.83,16.93Zm12,4.6a4.6,4.6,0,1,1,4.59-4.6A4.53,4.53,0,0,1,21.82,21.53ZM19.9,15a2.79,2.79,0,0,0,2,4.77,2.79,2.79,0,1,0-2-4.77Zm.41,3.49a2.15,2.15,0,0,1,1.51-3.66,2.15,2.15,0,1,1-1.51,3.66ZM21,16.93a.93.93,0,1,0,.93-.93A.92.92,0,0,0,21,16.93Zm-4.78-7.1c3.9,0,5.36,1.63,5.36,1.63S17.4,10.76,16,16c-1.4-5.24-5.53-4.48-5.53-4.48s1.46-1.63,5.36-1.63h.34Z"/>
</svg>