<?xml version="1.0" encoding="utf-8"?>
<!-- Generator: Adobe Illustrator 26.2.1, SVG Export Plug-In . SVG Version: 6.00 Build 0)  -->
<svg version="1.1" id="a" xmlns="http://www.w3.org/2000/svg" xmlns:xlink="http://www.w3.org/1999/xlink" x="0px" y="0px"
	 viewBox="0 0 32 32" style="enable-background:new 0 0 32 32;" xml:space="preserve">
<style type="text/css">
	.st0{fill:#FFFFFF;}
	.st1{fill:#DCDCDC;}
</style>
<g>
	<path class="st0" d="M16,1c8.3,0,15,6.7,15,15s-6.7,15-15,15S1,24.3,1,16S7.7,1,16,1"/>
	<g>
		<path class="st1" d="M16,1c8.3,0,15,6.7,15,15s-6.7,15-15,15S1,24.3,1,16S7.7,1,16,1 M16,0C7.2,0,0,7.2,0,16s7.2,16,16,16
			s16-7.2,16-16S24.8,0,16,0L16,0z"/>
	</g>
	<g><path d="M7.89,16.17c0-.47,.19-.83,.59-1.09-.23-.34-.56-.52-1.01-.57-.16-.02-.36,.02-.6,.11-.26,.1-.41,.15-.45,.15-.07,0-.2-.04-.4-.13-.2-.08-.37-.13-.51-.13-.23,0-.45,.07-.65,.2-.2,.13-.36,.3-.48,.52-.15,.27-.23,.6-.23,.98,0,.34,.06,.69,.17,1.03,.11,.33,.24,.62,.41,.86,.15,.23,.28,.39,.38,.49,.16,.16,.32,.24,.48,.23,.11,0,.25-.04,.42-.12,.16-.07,.32-.11,.48-.11,.15,0,.31,.04,.47,.11,.18,.08,.33,.11,.44,.11,.17,0,.33-.08,.47-.22,.05-.05,.11-.11,.17-.19,.06-.08,.13-.18,.2-.29,.05-.08,.1-.17,.15-.26,.05-.09,.09-.19,.13-.29,.02-.04,.03-.08,.05-.13,.01-.04,.03-.09,.04-.13-.14-.06-.26-.15-.37-.26-.24-.24-.36-.55-.37-.9Z"/><polygon points="11.88 17.19 11.85 17.19 10.73 14.6 9.86 14.6 9.86 18.78 10.62 18.78 10.62 16.07 10.66 16.07 11.59 18.22 12.13 18.22 13.06 16.07 13.09 16.07 13.09 18.78 13.86 18.78 13.86 14.6 12.99 14.6 11.88 17.19"/><path d="M7.2,14.06c.19-.25,.29-.51,.29-.8v-.06s0-.04,0-.06c-.14,0-.28,.05-.43,.13-.15,.08-.28,.18-.38,.3-.2,.24-.3,.5-.3,.77v.05s0,.04,0,.05c.3,.03,.58-.1,.81-.4Z"/><rect x="22.79" y="14.6" width=".86" height="4.18"/><path d="M26.24,15.27c.51,0,.78,.4,.78,.83h.82v-.09c0-.81-.61-1.48-1.61-1.48-1.07,0-1.71,.72-1.71,1.94v.47c0,1.22,.63,1.93,1.71,1.93s1.61-.68,1.61-1.44v-.09h-.82c0,.43-.26,.79-.77,.79s-.85-.38-.85-1.18v-.47c0-.8,.33-1.2,.85-1.2Z"/><path d="M17.15,17.24c0,.56-.32,.87-.8,.87s-.8-.31-.8-.87v-2.64h-.85v2.76c0,.89,.62,1.5,1.65,1.5s1.65-.61,1.65-1.5v-2.76h-.86v2.64Z"/><path d="M20.84,16.35l-.61-.14c-.36-.08-.55-.24-.55-.48,0-.32,.26-.52,.67-.52,.47,0,.7,.27,.72,.57h.8c0-.74-.62-1.25-1.52-1.25-.86,0-1.53,.46-1.53,1.28,0,.71,.47,1.04,1.04,1.17l.61,.14c.41,.1,.62,.23,.62,.52,0,.32-.25,.55-.73,.55-.51,0-.78-.28-.81-.58h-.82c.01,.59,.4,1.28,1.59,1.28,1,0,1.62-.5,1.62-1.33,0-.76-.5-1.06-1.09-1.19Z"/></g>
</g>
</svg>
