<svg xmlns="http://www.w3.org/2000/svg" viewBox="0 0 32 32">
<circle fill="#3b445c" cx="16" cy="16" r="16"/>
<path fill="#fff" d="M18.41,25.6c1.92,0,3.82-.69,4.45-1.51l.13-.16L21.8,20.4a.1.1,0,0,0-.08-.06H19.06a.07.07,0,0,1-.08-.05,2.2,2.2,0,0,1-.05-.44V15.52a.08.08,0,0,1,.08-.08h3.13a.08.08,0,0,0,.08-.08h0V10.94a.09.09,0,0,0-.08-.08H19a.08.08,0,0,1-.08-.07h0V6.48a.07.07,0,0,0-.08-.08H13.4a.93.93,0,0,0-.91.83,4.51,4.51,0,0,1-3.21,4.19l-.21.07a.09.09,0,0,0-.06.08v3.79a.09.09,0,0,0,.08.08h2v4.67C11.05,23.84,13.63,25.6,18.41,25.6Zm3.66-1.8a4.86,4.86,0,0,1-3,1h-.13A4.58,4.58,0,0,1,14,20.11V14.74a.08.08,0,0,0-.08-.08H12.05a.08.08,0,0,1-.08-.08h0V12.13a.09.09,0,0,1,0-.08,5.31,5.31,0,0,0,3.42-4.73.12.12,0,0,1,.12-.13h2.51a.07.07,0,0,1,.08.07h0v4.3a.08.08,0,0,0,.08.08h3.12a.09.09,0,0,1,.08.08h0v2.85a.09.09,0,0,1-.08.08H18.22a.08.08,0,0,0-.08.08v5.11c0,1.13.57,1.73,1.65,1.73a3.87,3.87,0,0,0,1.39-.28.09.09,0,0,1,.1,0h0l.79,2.36A.1.1,0,0,1,22.07,23.8Z"/>
</svg>