<?xml version="1.0" encoding="UTF-8"?><svg id="a" xmlns="http://www.w3.org/2000/svg" xmlns:xlink="http://www.w3.org/1999/xlink" viewBox="0 0 32 32"><defs><clipPath id="b"><circle cx="16" cy="16" r="15.5" fill="none"/></clipPath></defs><g><path d="M16,1c8.3,0,15,6.7,15,15s-6.7,15-15,15S1,24.3,1,16S7.7,1,16,1" fill="#ffffff" /><path d="M16,1c8.27,0,15,6.73,15,15s-6.73,15-15,15S1,24.27,1,16,7.73,1,16,1M16,0C7.16,0,0,7.16,0,16S7.16,32,16,32s16-7.16,16-16S24.84,0,16,0h0Z" fill="#dcdcdc"/></g><g><path d="M24.9,14.27h-.73v-.04h-8.14v3.62h5.11c-.75,2.1-2.75,3.62-5.11,3.62-3,0-5.42-2.43-5.42-5.42s2.43-5.42,5.42-5.42c1.38,0,2.64,.52,3.6,1.37l2.56-2.56c-1.61-1.5-3.77-2.43-6.15-2.43-4.99,0-9.04,4.05-9.04,9.04s4.05,9.04,9.04,9.04,9.04-4.05,9.04-9.04c0-.61-.06-1.2-.18-1.77Z" fill="#ffc107"/><path d="M8.04,11.83l2.97,2.18c.8-1.99,2.75-3.39,5.03-3.39,1.38,0,2.64,.52,3.6,1.37l2.56-2.56c-1.61-1.5-3.77-2.43-6.15-2.43-3.47,0-6.48,1.96-8,4.83Z" fill="#ff3d00"/><path d="M16.04,25.08c2.33,0,4.46-.89,6.06-2.35l-2.8-2.37c-.91,.69-2.04,1.1-3.26,1.1-2.35,0-4.35-1.5-5.1-3.59l-2.95,2.27c1.5,2.93,4.53,4.94,8.05,4.94Z" fill="#4caf50"/><path d="M24.9,14.27h-.73v-.04h-8.14v3.62h5.11c-.36,1.01-1.01,1.88-1.85,2.52h0l2.8,2.37c-.2,.18,2.98-2.17,2.98-6.69,0-.61-.06-1.2-.18-1.77Z" fill="#1976d2"/></g></svg>