<?xml version="1.0" encoding="UTF-8"?><svg id="a" xmlns="http://www.w3.org/2000/svg" viewBox="0 0 32 32"><circle cx="16" cy="16" r="16" fill="#23262e"/><path d="M20.16,10.87c.18,0,.6-.02,1.07,0l1.99-1.78-.87-.09-2.19,1.86h0M5.72,20.01l-.64-1.15-.15,1.31-1.29,.26,1.2,.55-.15,1.31,.89-.97,1.2,.55-.64-1.15,.89-.97-1.29,.26Zm4.31,1.99l-.64-1.15-.15,1.31-1.29,.26,1.2,.55-.15,1.31,.89-.97,1.2,.55-.64-1.15,.89-.97-1.29,.26Zm.58-5.54l-.65-1.15-.15,1.31-1.29,.26,1.2,.55-.15,1.31,.89-.97,1.2,.55-.64-1.15,.89-.97-1.29,.26Zm16,1.65c-.31,.22-.65,.37-1.02,.44-1.01,.2-2.05-.21-2.66-1.04-.66-.92-.64-2.12-.04-3.01l2.12,1.57s.09,.04,.14,.04c.05,0,.1-.03,.14-.08,.07-.09,.05-.21-.04-.28l-2.06-1.62c.1-.11,.22-.21,.34-.3,.31-.22,.65-.37,1.02-.44,1.01-.2,2.05,.21,2.66,1.04,.85,1.18,.58,2.82-.6,3.67m-7.01-3.79c-.63-.45-1.93-.24-2.78-.09,.29-.61,.8-1.23,.97-1.96,.09,.46,1.61,.98,1.61,.98,0,0,.69-.15,1.29-.39l.02,.02,.23,.17-1.34,1.27Zm.92,2.33l-.6-1.37c.02-.22,0-.41-.04-.58l1.04-.99-.4,2.94Zm-.25,1.81c-.11,0-.22,.03-.32,.09-.06-.07-.14-.13-.3-.23-.12-.08-.66-.4-.64-.47,.08-.24,.26-.59,.51-1.09,.27,.3,.54,.8,.81,1.31l-.05,.4Zm-.83,1.15c-.54-.72-1.34-1.17-2.2-1.29l.09-.94,.75,.53c-.08,.3-.05,.46,.2,.56l1.31,.51h0c-.05,.17-.05,.36,.02,.53l-.17,.11Zm-1.1,4.12c-.31,.22-.65,.37-1.02,.44-1.01,.2-2.05-.21-2.65-1.04-.85-1.18-.58-2.83,.6-3.67,.31-.22,.65-.37,1.02-.44,.14-.03,.28-.04,.43-.05l-.25,2.68c0,.09,.03,.17,.11,.22,.05,.03,.11,.04,.17,.03,.03,0,.06-.02,.08-.03l2.31-1.49c.6,1.14,.29,2.59-.79,3.36m-1.16-4.74c.66,.1,1.27,.44,1.7,.99l-1.9,1.23,.21-2.21Zm1.67-3.3c-.24,.83-.48,1.41-.63,1.82l-.74-.52,1.37-1.3Zm-2.87,.24c.1,0,.2,0,.31-.03,.89-.09,1.5-.18,1.92-.25l-1.12,1.06-1.11-.79Zm3.19-4c.49,.04,.99,0,1.43-.07l.16,.36c-.35,.02-.71,.06-1.03,.11-.26,.04-.93-.62-.56-.4m8.59,2.13c-.75-1.05-2.06-1.56-3.33-1.31-.46,.09-.89,.28-1.27,.56-.18,.13-.34,.27-.48,.42l-.96-.76c.28-.1,1.15-.45,.79-.64-.1-.05-.29-.09-.55-.11l.68-.59,.15-.13,1.28-1.11-.59-1.16-1.95,1.75s0,0-.19,.17h0c-.41-.02-.8,.01-1.02,.04h0c-.44,.08-.81,.13-.99,.1-.64-.13-.79-.81-1.08-1.2-.17-.23-.5-.25-.53-.44,.09-.02,.18-.04,.26-.08,.35-.17,.47-.33,.57-.54,.12-.27,0-.72-.19-1.09,.15-.11,.69-.53,.67-.6,0-.03-.69,.07-.97,.12-.04-.05-.08-.09-.11-.11-.23-.17-.42-.34-.97-.12-.94,.39-.89,1.12-.58,1.77,.14,.3,.39,.49,.67,.59-.02,.04-.03,.06-.04,.08l.03-.07c-1.48,1.34-4.94,3.59-5.85,3.63,.75,.29,2.92,.33,3.83-.21-.26,1.04-.27,2.06,.17,2.57-.34,.25-.68,.52-.85,.68-.13,.13-.09,.19,.02,.34,0,0,.88,.02,1.14-.23,.07-.07,.13-.13,.19-.18l1.21,.86-.11,1.23c-.21,0-.41,.02-.62,.06-.46,.09-.89,.28-1.27,.56-1.48,1.06-1.82,3.13-.75,4.6,.75,1.05,2.06,1.56,3.33,1.31,.46-.09,.89-.28,1.27-.56,1.37-.98,1.76-2.82,.96-4.27l.24-.16c.24,.13,.55,.13,.79-.04,.24-.17,.35-.47,.29-.74,.33-.1,.68-.21,1.06-.32,.4-.12,.46-.24,.36-.44-.13-.27-1.15-.03-1.28-.18l-.28-.65,.55-4.06,.94,.7c-.77,1.11-.8,2.63,.03,3.79,.75,1.05,2.06,1.56,3.33,1.31,.46-.09,.89-.28,1.27-.56,1.48-1.06,1.82-3.13,.75-4.6" fill="#fff"/></svg>