<?xml version="1.0" encoding="UTF-8"?><svg id="a" xmlns="http://www.w3.org/2000/svg" viewBox="0 0 32 32"><rect x="0" y="0" width="32" height="32" rx="16" ry="16" fill="#001522"/><path d="M23.89,15.18h-.92v-4.52h.92v.51c.22-.38,.69-.56,1.11-.56h.28v.91h-.28c-.78,0-1.1,.41-1.1,1.16v2.51h0ZM6.72,8.98h.99v3.78c0,2.27,3.04,2.11,3.04,0v-3.78h.94v6.19h-.94v-.56c-.48,.45-1.04,.67-1.58,.69-1.26,.04-2.44-.99-2.44-2.66v-3.66h0Zm6.67,6.18h-.92v-6.18h.92v2.22c.52-.45,1.12-.64,1.7-.62,1.48,.05,2.27,1.13,2.29,2.24,.01,1.2-.86,2.44-2.37,2.49-.57,.02-1.15-.2-1.61-.7v.54h0Zm1.54-3.75c-.85,0-1.54,.69-1.54,1.54s.69,1.54,1.54,1.54,1.54-.69,1.54-1.54-.69-1.54-1.54-1.54h0Zm7.43,1.83h-3.64c.25,.84,.87,1.28,1.52,1.27,.46,0,.93-.23,1.3-.69l.62,.48c-.65,1.16-2.52,1.24-3.5,.47-.71-.55-.89-1.24-.88-1.9,.02-1.48,1.27-2.33,2.45-2.31,1.15,.01,2.25,.84,2.14,2.69h0Zm-.93-.73c-.11-1.35-2.35-1.64-2.7,0h2.7Z" fill="#fff" fill-rule="evenodd"/><path d="M7.94,21.87v-1.52h3.09v-1.05h-3.09v-1.52h3.18v-1.05H6.74v6.19h4.38v-1.05h-3.18Zm17.19-2.07h-1.16c-.03-.16-.12-.29-.24-.39-.18-.15-.44-.25-.7-.28-.41-.04-.88,.17-.89,.42,0,.15,.16,.32,.62,.46,.77,.23,1.76,.13,2.3,.83,.63,.82-.03,2.12-1.85,2.18-1.09,.03-2.23-.44-2.38-1.6h1.15c.09,.19,.21,.36,.42,.49,.4,.25,1.58,.3,1.65-.27,.01-.08-.03-.17-.13-.24-.21-.14-.58-.19-.92-.26-1.45-.2-1.98-.67-2.08-1.27-.04-.26-.01-.53,.11-.76,.08-.16,.2-.3,.33-.43,.42-.39,1.07-.56,1.7-.54,.89,.03,2.03,.52,2.08,1.67h0Zm-4.63,2.05v1.05h-1.27c-.78,0-1.23-.52-1.23-1.26v-2.26h-.87v-1.03h.87v-1.32h1.17v1.32h1.32v1.03h-1.32v1.98c0,.43,.15,.5,.56,.5h.76Zm-5.04-3.13v-.39h1.2v4.56h-1.2v-.43c-.48,.38-1.04,.57-1.58,.54-1.21-.06-2.37-1.07-2.34-2.46,.03-1.4,1.29-2.35,2.52-2.34,.49,0,.98,.16,1.4,.51h0Zm-1.39,.51c-.76,0-1.37,.61-1.37,1.37s.61,1.37,1.37,1.37,1.37-.61,1.37-1.37-.61-1.37-1.37-1.37Z" fill="#7bc156" fill-rule="evenodd"/></svg>