<svg xmlns="http://www.w3.org/2000/svg" viewBox="0 0 32 32">
<circle fill="#41b1db" cx="16" cy="16" r="16" transform="translate(-6.63 16) rotate(-45)"/>
<path fill="#fff" d="M25.5,10.94a6.68,6.68,0,0,1-.5,2.7,18.4,18.4,0,0,1-2.34,4.11,25.89,25.89,0,0,1-4.3,4.93,6.41,6.41,0,0,1-2.8,1.5,2,2,0,0,1-1.93-.57,6,6,0,0,1-1.49-2.71c-.54-1.88-1-3.78-1.56-5.67a8.78,8.78,0,0,0-.69-1.81,3.1,3.1,0,0,0-.21-.36c-.45-.67-.76-.74-1.44-.31l-.72.47c-.13.09-.21.1-.31,0l-.64-.83c-.09-.11-.11-.19,0-.29a50.52,50.52,0,0,1,4-3.43A3,3,0,0,1,12.36,8,2,2,0,0,1,14,8.84a4.88,4.88,0,0,1,.78,2.1c.29,1.73.51,3.47,1,5.17a7,7,0,0,0,.6,1.64c.35.62.74.71,1.23.19a11.17,11.17,0,0,0,2.36-3.89,2.66,2.66,0,0,0,.1-1A1.05,1.05,0,0,0,18.94,12a3.07,3.07,0,0,0-1.31.18c-.2.06-.29,0-.21-.2a6.33,6.33,0,0,1,2-3.17,4.71,4.71,0,0,1,4.13-.84,2.44,2.44,0,0,1,1.81,2.22C25.45,10.41,25.47,10.69,25.5,10.94Z"/>
</svg>