<svg xmlns="http://www.w3.org/2000/svg" xmlns:xlink="http://www.w3.org/1999/xlink" viewBox="0 0 32 32">
    <defs>
        <linearGradient id="linear-gradient-line" y1="16" x2="32" y2="16" gradientUnits="userSpaceOnUse">
            <stop offset="0" stop-color="#3ad41a"/>
            <stop offset="1" stop-color="#31b716"/>
        </linearGradient>
    </defs>
    <circle fill="url(#linear-gradient-line)" cx="16" cy="16" r="16"/>
    <path fill="#fff" d="M16,7c-5.34,0-9.67,3.47-9.67,7.74,0,3.82,3.44,7,8,7.63h0l.32,0c1.55.32.21,2.25.71,2.65s5-2.49,7.66-5A7.44,7.44,0,0,0,24,19h0l.18-.23a6.62,6.62,0,0,0,1.44-4.07C25.67,10.42,21.34,7,16,7Zm-3.16,9.71a.5.5,0,0,1-.5.5H10.39a.5.5,0,0,1-.51-.5V12.92a.51.51,0,0,1,.51-.51h0a.5.5,0,0,1,.5.51v3.19h1.41a.5.5,0,0,1,.5.51Zm1.46,0a.5.5,0,0,1-.5.5h0a.5.5,0,0,1-.51-.5V12.92a.51.51,0,0,1,.51-.51h0a.51.51,0,0,1,.5.51Zm4.57,0a.49.49,0,0,1-.15.35h0a.27.27,0,0,1-.12.09.46.46,0,0,1-.23.06h-.05a.43.43,0,0,1-.19,0,.37.37,0,0,1-.19-.14h0l0-.05-1.84-2.51v2.24a.5.5,0,0,1-.5.5h0a.5.5,0,0,1-.51-.5V12.92a.51.51,0,0,1,.51-.51h0a.53.53,0,0,1,.44.26l1.82,2.44V12.92a.51.51,0,0,1,.5-.51h.05a.51.51,0,0,1,.5.51ZM22.48,13a.5.5,0,0,1-.51.5h-1.4v.8H22a.51.51,0,0,1,.51.51v0a.5.5,0,0,1-.51.5h-1.4v.8H22a.51.51,0,0,1,.51.51v0a.51.51,0,0,1-.51.5H20a.5.5,0,0,1-.5-.5V12.93a.5.5,0,0,1,.5-.51H22a.51.51,0,0,1,.51.51Z"/>
</svg>