<svg xmlns="http://www.w3.org/2000/svg" viewBox="0 0 32 32">
<defs>
<style>.cls-1{fill:#ff4500;}.cls-2{fill:#fff;}</style>
</defs>
<circle fill="#ff4500" cx="16" cy="16" r="16"/>
<path fill="#fff" d="M14.68,12.63a1.13,1.13,0,1,0-2.26,0,1.13,1.13,0,1,0,2.26,0Z"/>
<path fill="#fff" d="M18.45,11.51a1.13,1.13,0,1,0,1.13,1.13A1.13,1.13,0,0,0,18.45,11.51Z"/>
<path fill="#fff" d="M18.6,15.36a.31.31,0,0,0-.44,0A3,3,0,0,1,16,16a3,3,0,0,1-2.16-.63.31.31,0,0,0-.44.44,3.55,3.55,0,0,0,2.6.81,3.55,3.55,0,0,0,2.6-.81.32.32,0,0,0,0-.44Z"/>
<path fill="#fff" d="M24.06,11.41A1.83,1.83,0,0,0,21,10,9.21,9.21,0,0,0,16.44,8.7l.95-3L20,6.32A1.51,1.51,0,1,0,21.45,4.8a1.52,1.52,0,0,0-1.37.91L17.25,5a.31.31,0,0,0-.38.22h0L15.81,8.7A9.28,9.28,0,0,0,11,10a1.83,1.83,0,0,0-2.43,2.74,1.86,1.86,0,0,0,.28.21,3,3,0,0,0,0,.52A4.15,4.15,0,0,0,11,17a8.1,8.1,0,0,0,1.46.76,3.33,3.33,0,0,0-1.75,3.07A3.23,3.23,0,0,0,12.85,24a9.07,9.07,0,0,0,.32.87H13a1.87,1.87,0,0,0-2,1.69,1.42,1.42,0,0,0,.08.45.3.3,0,0,0,.29.21h9.29a.31.31,0,0,0,.3-.22,1.62,1.62,0,0,0,.07-.44,1.88,1.88,0,0,0-2-1.69h-.13a8,8,0,0,0,.32-.86,3.24,3.24,0,0,0,2.17-3.23,3.41,3.41,0,0,0-1.76-3.09A7.38,7.38,0,0,0,21,17a4.2,4.2,0,0,0,2.16-3.44,3,3,0,0,0,0-.52A1.85,1.85,0,0,0,24.06,11.41Zm-2.6-6a.9.9,0,0,1,.9.89h0a.9.9,0,1,1-.9-.89ZM8.85,10.64a1.21,1.21,0,0,1,.94-.44,1.14,1.14,0,0,1,.69.22A4.37,4.37,0,0,0,9,12.35,1.21,1.21,0,0,1,8.85,10.64Zm2.42,10.13a2.92,2.92,0,0,1,1-2.3h0c-.05.51-.07,1-.07,1.51a13.35,13.35,0,0,0,.38,3.27A2.77,2.77,0,0,1,11.27,20.77Zm.3,5.81v0A1.28,1.28,0,0,1,13,25.46a1.81,1.81,0,0,1,.51.08,5.2,5.2,0,0,0,.75,1ZM19,25.46a1.29,1.29,0,0,1,1.42,1.08v0H17.75a5,5,0,0,0,.75-1.06A1.76,1.76,0,0,1,19,25.46Zm-2.19,1.12H15.23c-1.38-.78-2.37-3.53-2.37-6.6A14.55,14.55,0,0,1,13,17.91a10.67,10.67,0,0,0,6,0A14.55,14.55,0,0,1,19.14,20C19.14,23,18.15,25.79,16.77,26.58Zm2.91-8.09a2.88,2.88,0,0,1,1,2.29,2.74,2.74,0,0,1-1.34,2.46A13.63,13.63,0,0,0,19.76,20C19.76,19.49,19.73,19,19.68,18.49ZM16,17.69v0c-3.63,0-6.59-1.89-6.59-4.2s3-4.19,6.59-4.19,6.59,1.88,6.59,4.19S19.63,17.69,16,17.69Zm7-5.34a4.41,4.41,0,0,0-1.48-1.93h0a1.14,1.14,0,0,1,.69-.22,1.21,1.21,0,0,1,1.21,1.21A1.19,1.19,0,0,1,23,12.35Z"/>
</svg>