<svg xmlns="http://www.w3.org/2000/svg" viewBox="0 0 32 32">
<circle fill="#bd081c" cx="16" cy="16" r="16"/>
<path fill="#fff" d="M22.93,12.94c0,4-2.25,7-5.55,7a2.91,2.91,0,0,1-2.51-1.28s-.6,2.37-.73,2.83a11.16,11.16,0,0,1-1.85,3.37.14.14,0,0,1-.2,0,.1.1,0,0,1,0-.07,11.06,11.06,0,0,1,0-3.91l1.32-5.61a4.17,4.17,0,0,1-.33-1.63c0-1.51.89-2.67,2-2.67a1.38,1.38,0,0,1,1.39,1.55,22,22,0,0,1-.91,3.65,1.6,1.6,0,0,0,1.15,1.94,1.47,1.47,0,0,0,.47,0c1.95,0,3.27-2.5,3.27-5.47,0-2.26-1.51-3.94-4.28-3.94a4.87,4.87,0,0,0-5.07,4.93,2.94,2.94,0,0,0,.68,2,.49.49,0,0,1,.14.58c0,.19-.16.64-.21.82a.38.38,0,0,1-.45.29l-.06,0c-1.44-.59-2.11-2.16-2.11-3.93C9.07,10.54,11.54,7,16.43,7,20.35,7,22.93,9.88,22.93,12.94Z"/>
</svg>