<svg xmlns="http://www.w3.org/2000/svg" viewBox="0 0 32 32">
<circle fill="#00aff0" cx="16" cy="16" r="16"/>
<path fill="#fff" d="M25.31,17.67s0,.07,0,.11l0-.21a.93.93,0,0,1,0,.1A9,9,0,0,0,25.47,16,9.44,9.44,0,0,0,16,6.49a9,9,0,0,0-1.8.17h0l.1,0-.2,0,.1,0a5.6,5.6,0,0,0-7.53,7.66s0-.07,0-.1l0,.2s0-.07-.05-.1A10,10,0,0,0,6.54,16,9.44,9.44,0,0,0,16,25.42a9.12,9.12,0,0,0,1.65-.15l-.09-.05.2,0h-.11a5.6,5.6,0,0,0,7.65-7.6ZM16,21.75c-3.36,0-4.86-1.65-4.86-2.89a1,1,0,0,1,1.11-1.08c1.44,0,1.07,2.06,3.75,2.06,1.38,0,2.14-.74,2.14-1.51,0-.46-.23-1-1.13-1.19l-3-.74c-2.41-.61-2.84-1.91-2.84-3.14,0-2.54,2.39-3.49,4.64-3.49,2.07,0,4.51,1.14,4.51,2.67a1.1,1.1,0,0,1-1.21,1c-1.23,0-1-1.7-3.48-1.7-1.23,0-1.91.56-1.91,1.35s1,1.05,1.81,1.24l2.22.49c2.42.54,3,2,3,3.29C20.83,20.21,19.24,21.75,16,21.75Zm1.53,3.47.09.05h.11Zm7.73-7.44s0-.08,0-.11a.93.93,0,0,0,0-.1ZM6.7,14.22s0,.07,0,.1,0,.07.05.1Zm7.61-7.51-.1,0-.1,0Z"/>
</svg>