<svg id="Layer_1" data-name="Layer 1" xmlns="http://www.w3.org/2000/svg" viewBox="0 0 80 80"><circle cx="40" cy="40" r="40" fill="#220e27"/><path d="M50.5,27H57L47,17v6.5A3.5,3.5,0,0,0,50.5,27Z" fill="#fff"/><path d="M46,23.5v-7H26.5a4,4,0,0,0-4,4v39a4,4,0,0,0,4,4h27a4,4,0,0,0,4-4V28h-7A4.51,4.51,0,0,1,46,23.5Z" fill="#fff"/><path d="M28,24H38a1,1,0,0,0,0-2H28a1,1,0,0,0,0,2Z" fill="#59505b"/><path d="M28,28h6a1,1,0,0,0,0-2H28a1,1,0,0,0,0,2Z" fill="#59505b"/><path d="M51,56H45a1,1,0,0,0,0,2h6a1,1,0,0,0,0-2Z" fill="#59505b"/><path d="M28,37H51a1,1,0,0,0,0-2H28a1,1,0,0,0,0,2Z" fill="#59505b"/><path d="M51,39H28a1,1,0,0,0,0,2H51a1,1,0,0,0,0-2Z" fill="#59505b"/><path d="M51,43H28a1,1,0,0,0,0,2H51a1,1,0,0,0,0-2Z" fill="#59505b"/><path d="M41,47H28a1,1,0,0,0,0,2H41a1,1,0,0,0,0-2Z" fill="#59505b"/></svg>