<svg width="27" height="14" viewBox="0 0 27 14" fill="none" xmlns="http://www.w3.org/2000/svg">
<path d="M26.1113 6.07627C26.111 6.07596 26.1107 6.07561 26.1104 6.0753L20.7884 0.779011C20.3897 0.382247 19.7448 0.383724 19.348 0.782474C18.9511 1.18117 18.9527 1.82605 19.3514 2.22286L22.9245 5.77871H1.35446C0.791928 5.77871 0.335938 6.2347 0.335938 6.79723C0.335938 7.35976 0.791928 7.81574 1.35446 7.81574H22.9245L19.3514 11.3716C18.9527 11.7684 18.9512 12.4133 19.348 12.812C19.7449 13.2108 20.3898 13.2122 20.7885 12.8154L26.1104 7.51915C26.1107 7.51885 26.111 7.51849 26.1113 7.51819C26.5102 7.12005 26.509 6.47308 26.1113 6.07627Z" fill="white"/>
</svg>
