<svg id="Layer_1" data-name="Layer 1" xmlns="http://www.w3.org/2000/svg" viewBox="0 0 140 140"><circle cx="70" cy="70" r="70" fill="#F8F8F9"/><rect x="41.6" y="48" width="45.4" height="40.89" rx="4" fill="#220e27"/><path d="M83.76,53.35a1,1,0,0,0-1.41-.11L64.5,68.68,46.65,53.24a1,1,0,1,0-1.3,1.52l18.5,16a1,1,0,0,0,1.3,0l18.5-16A1,1,0,0,0,83.76,53.35Z" fill="#fff"/><path d="M57.27,70.32l-12,13A1,1,0,0,0,46,85a1,1,0,0,0,.73-.32l12-13a1,1,0,0,0-1.46-1.36Z" fill="#fff"/><path d="M71.68,70.27a1,1,0,1,0-1.36,1.46l5,4.65a1,1,0,0,0,.68.26,1,1,0,0,0,.73-.32,1,1,0,0,0,0-1.41Z" fill="#fff"/><path d="M86,45a1,1,0,0,0,1-1V40a1,1,0,0,0-2,0v4A1,1,0,0,0,86,45Z" fill="#28c254"/><path d="M91,51a1,1,0,0,0,1,1h4a1,1,0,0,0,0-2H92A1,1,0,0,0,91,51Z" fill="#28c254"/><path d="M90.59,47.41a1,1,0,0,0,.7-.29l2.83-2.83a1,1,0,0,0-1.41-1.41l-2.83,2.83a1,1,0,0,0,0,1.41A1,1,0,0,0,90.59,47.41Z" fill="#28c254"/><circle cx="87.5" cy="84.5" r="14.5" fill="#28c254"/><path d="M85.5,89.5a1,1,0,0,1-.71-.29l-3.5-3.5a1,1,0,0,1,1.42-1.42l2.79,2.8,6.79-6.8a1,1,0,0,1,1.42,1.42l-7.5,7.5A1,1,0,0,1,85.5,89.5Z" fill="#fff"/></svg>