<svg width="280" height="253" viewBox="0 0 280 253" fill="none" xmlns="http://www.w3.org/2000/svg">
<g opacity="0.31">
<path d="M0 4.38274C0 6.80415 1.96136 8.76548 4.38276 8.76548C6.80416 8.76548 8.76548 6.80415 8.76548 4.38274C8.76548 1.96134 6.80416 0 4.38276 0C1.96136 0 0 1.96134 0 4.38274Z" fill="#767C83"/>
<path d="M67.7656 4.38274C67.7656 6.80415 69.727 8.76548 72.1484 8.76548C74.5698 8.76548 76.5311 6.80415 76.5311 4.38274C76.5311 1.96134 74.5698 0 72.1484 0C69.727 0 67.7656 1.96134 67.7656 4.38274Z" fill="#767C83"/>
<path d="M135.531 4.38274C135.531 6.80415 137.493 8.76548 139.914 8.76548C142.335 8.76548 144.297 6.80415 144.297 4.38274C144.297 1.96134 142.335 0 139.914 0C137.493 0 135.531 1.96134 135.531 4.38274Z" fill="#767C83"/>
<path d="M203.297 4.38274C203.297 6.80415 205.258 8.76548 207.68 8.76548C210.101 8.76548 212.062 6.80415 212.062 4.38274C212.062 1.96134 210.101 0 207.68 0C205.258 0 203.297 1.96134 203.297 4.38274Z" fill="#767C83"/>
<path d="M271.062 4.38274C271.062 6.80415 273.024 8.76548 275.445 8.76548C277.867 8.76548 279.828 6.80415 279.828 4.38274C279.828 1.96134 277.867 0 275.445 0C273.024 0 271.062 1.96134 271.062 4.38274Z" fill="#767C83"/>
<path d="M0 53.1485C0 55.5698 1.96136 57.5311 4.38276 57.5311C6.80416 57.5311 8.76548 55.5698 8.76548 53.1485C8.76548 50.7271 6.80416 48.7658 4.38276 48.7658C1.96136 48.7416 0 50.7271 0 53.1485Z" fill="#767C83"/>
<path d="M67.7656 53.1485C67.7656 55.5698 69.727 57.5311 72.1484 57.5311C74.5698 57.5311 76.5311 55.5698 76.5311 53.1485C76.5311 50.7271 74.5698 48.7658 72.1484 48.7658C69.727 48.7416 67.7656 50.7271 67.7656 53.1485Z" fill="#767C83"/>
<path d="M135.531 53.1485C135.531 55.5698 137.493 57.5311 139.914 57.5311C142.335 57.5311 144.297 55.5698 144.297 53.1485C144.297 50.7271 142.335 48.7658 139.914 48.7658C137.493 48.7416 135.531 50.7271 135.531 53.1485Z" fill="#767C83"/>
<path d="M203.297 53.1485C203.297 55.5698 205.258 57.5311 207.68 57.5311C210.101 57.5311 212.062 55.5698 212.062 53.1485C212.062 50.7271 210.101 48.7658 207.68 48.7658C205.258 48.7416 203.297 50.7271 203.297 53.1485Z" fill="#767C83"/>
<path d="M271.062 53.1485C271.062 55.5698 273.024 57.5311 275.445 57.5311C277.867 57.5311 279.828 55.5698 279.828 53.1485C279.828 50.7271 277.867 48.7658 275.445 48.7658C273.024 48.7416 271.062 50.7271 271.062 53.1485Z" fill="#767C83"/>
<path d="M0 101.914C0 104.335 1.96136 106.297 4.38276 106.297C6.80416 106.297 8.76548 104.335 8.76548 101.914C8.76548 99.4926 6.80416 97.5312 4.38276 97.5312C1.96136 97.5313 0 99.4926 0 101.914Z" fill="#767C83"/>
<path d="M67.7656 101.914C67.7656 104.335 69.727 106.297 72.1484 106.297C74.5698 106.297 76.5311 104.335 76.5311 101.914C76.5311 99.4926 74.5698 97.5312 72.1484 97.5312C69.727 97.5313 67.7656 99.4926 67.7656 101.914Z" fill="#767C83"/>
<path d="M135.531 101.914C135.531 104.335 137.493 106.297 139.914 106.297C142.335 106.297 144.297 104.335 144.297 101.914C144.297 99.4926 142.335 97.5312 139.914 97.5312C137.493 97.5313 135.531 99.4926 135.531 101.914Z" fill="#767C83"/>
<path d="M203.297 101.914C203.297 104.335 205.258 106.297 207.68 106.297C210.101 106.297 212.062 104.335 212.062 101.914C212.062 99.4926 210.101 97.5312 207.68 97.5312C205.258 97.5313 203.297 99.4926 203.297 101.914Z" fill="#767C83"/>
<path d="M271.062 101.914C271.062 104.335 273.024 106.297 275.445 106.297C277.867 106.297 279.828 104.335 279.828 101.914C279.828 99.4926 277.867 97.5312 275.445 97.5312C273.024 97.5313 271.062 99.4926 271.062 101.914Z" fill="#767C83"/>
<path d="M0 150.68C0 153.101 1.96136 155.062 4.38276 155.062C6.80416 155.062 8.76548 153.101 8.76548 150.68C8.76548 148.258 6.80416 146.297 4.38276 146.297C1.96136 146.297 0 148.258 0 150.68Z" fill="#767C83"/>
<path d="M67.7656 150.68C67.7656 153.101 69.727 155.062 72.1484 155.062C74.5698 155.062 76.5311 153.101 76.5311 150.68C76.5311 148.258 74.5698 146.297 72.1484 146.297C69.727 146.297 67.7656 148.258 67.7656 150.68Z" fill="#767C83"/>
<path d="M135.531 150.68C135.531 153.101 137.493 155.062 139.914 155.062C142.335 155.062 144.297 153.101 144.297 150.68C144.297 148.258 142.335 146.297 139.914 146.297C137.493 146.297 135.531 148.258 135.531 150.68Z" fill="#767C83"/>
<path d="M203.297 150.68C203.297 153.101 205.258 155.062 207.68 155.062C210.101 155.062 212.062 153.101 212.062 150.68C212.062 148.258 210.101 146.297 207.68 146.297C205.258 146.297 203.297 148.258 203.297 150.68Z" fill="#767C83"/>
<path d="M271.062 150.68C271.062 153.101 273.024 155.062 275.445 155.062C277.867 155.062 279.828 153.101 279.828 150.68C279.828 148.258 277.867 146.297 275.445 146.297C273.024 146.297 271.062 148.258 271.062 150.68Z" fill="#767C83"/>
<path d="M0 199.445C0 201.867 1.96136 203.828 4.38276 203.828C6.80416 203.828 8.76548 201.867 8.76548 199.445C8.76548 197.024 6.80416 195.062 4.38276 195.062C1.96136 195.062 0 197.024 0 199.445Z" fill="#767C83"/>
<path d="M67.7656 199.445C67.7656 201.867 69.727 203.828 72.1484 203.828C74.5698 203.828 76.5311 201.867 76.5311 199.445C76.5311 197.024 74.5698 195.062 72.1484 195.062C69.727 195.062 67.7656 197.024 67.7656 199.445Z" fill="#767C83"/>
<path d="M135.531 199.445C135.531 201.867 137.493 203.828 139.914 203.828C142.335 203.828 144.297 201.867 144.297 199.445C144.297 197.024 142.335 195.062 139.914 195.062C137.493 195.062 135.531 197.024 135.531 199.445Z" fill="#767C83"/>
<path d="M203.297 199.445C203.297 201.867 205.258 203.828 207.68 203.828C210.101 203.828 212.062 201.867 212.062 199.445C212.062 197.024 210.101 195.062 207.68 195.062C205.258 195.062 203.297 197.024 203.297 199.445Z" fill="#767C83"/>
<path d="M271.062 199.445C271.062 201.867 273.024 203.828 275.445 203.828C277.867 203.828 279.828 201.867 279.828 199.445C279.828 197.024 277.867 195.062 275.445 195.062C273.024 195.062 271.062 197.024 271.062 199.445Z" fill="#767C83"/>
<path d="M0 248.211C0 250.632 1.96136 252.594 4.38276 252.594C6.80416 252.594 8.76548 250.632 8.76548 248.211C8.76548 245.789 6.80416 243.828 4.38276 243.828C1.96136 243.828 0 245.789 0 248.211Z" fill="#767C83"/>
<path d="M67.7656 248.211C67.7656 250.632 69.727 252.594 72.1484 252.594C74.5698 252.594 76.5311 250.632 76.5311 248.211C76.5311 245.789 74.5698 243.828 72.1484 243.828C69.727 243.828 67.7656 245.789 67.7656 248.211Z" fill="#767C83"/>
<path d="M135.531 248.211C135.531 250.632 137.493 252.594 139.914 252.594C142.335 252.594 144.297 250.632 144.297 248.211C144.297 245.789 142.335 243.828 139.914 243.828C137.493 243.828 135.531 245.789 135.531 248.211Z" fill="#767C83"/>
<path d="M203.297 248.211C203.297 250.632 205.258 252.594 207.68 252.594C210.101 252.594 212.062 250.632 212.062 248.211C212.062 245.789 210.101 243.828 207.68 243.828C205.258 243.828 203.297 245.789 203.297 248.211Z" fill="#767C83"/>
<path d="M271.062 248.211C271.062 250.632 273.024 252.594 275.445 252.594C277.867 252.594 279.828 250.632 279.828 248.211C279.828 245.789 277.867 243.828 275.445 243.828C273.024 243.828 271.062 245.789 271.062 248.211Z" fill="#767C83"/>
</g>
</svg>
