<svg  width="16" height="16" viewBox="0 0 16 16" fill="none" xmlns="http://www.w3.org/2000/svg">
<path class="cls-1" d="M8,3.35a3.44,3.44,0,0,0,0,6.87A3.44,3.44,0,0,0,8,3.35ZM8,8.72A1.94,1.94,0,0,1,8,4.85,1.94,1.94,0,0,1,8,8.72Z" fill="#4E5D78" /><path class="cls-1" d="M15.69,5.59a8.56,8.56,0,0,0-2.16-3.38h0A8.07,8.07,0,0,0,11,.58h0a8,8,0,0,0-6,0H5A8.07,8.07,0,0,0,2.48,2.21h0A8.54,8.54,0,0,0,0,6.79a8.62,8.62,0,0,0,1.49,3.46h0a8.22,8.22,0,0,0,2.16,2h0a8.06,8.06,0,0,0,8.7,0h0a8.22,8.22,0,0,0,2.16-2h0A8.62,8.62,0,0,0,16,6.79,8.13,8.13,0,0,0,15.69,5.59ZM14.29,7.5A6.64,6.64,0,0,1,1.51,6.79a7,7,0,0,1,2-3.51h0a6.64,6.64,0,0,1,9,0h0a7,7,0,0,1,2,3.51A5.75,5.75,0,0,1,14.29,7.5Z" fill="#4E5D78" />
</svg>
