<svg width="13" height="7" viewBox="0 0 13 7" fill="none" xmlns="http://www.w3.org/2000/svg">
<path d="M0.803534 3.73948C0.803676 3.73962 0.803794 3.73979 0.803961 3.73993L3.28351 6.20752C3.46927 6.39237 3.76972 6.39169 3.95463 6.20591C4.13951 6.02015 4.13879 5.7197 3.95304 5.53482L2.28826 3.87811L12.338 3.87811C12.6 3.87811 12.8125 3.66566 12.8125 3.40358C12.8125 3.14149 12.6001 2.92904 12.338 2.92904L2.28829 2.92904L3.95301 1.27234C4.13877 1.08746 4.13948 0.787007 3.9546 0.601249C3.7697 0.415445 3.46922 0.414804 3.28349 0.599636L0.803936 3.06723C0.803794 3.06737 0.803676 3.06753 0.803509 3.06768C0.617657 3.25317 0.61825 3.5546 0.803534 3.73948Z" fill="#505050"/>
</svg>
