<svg width="20" height="20" viewBox="0 0 20 20" fill="none" xmlns="http://www.w3.org/2000/svg">
<path fill-rule="evenodd" clip-rule="evenodd" d="M13.1592 10.625H3.125C2.78 10.625 2.5 10.345 2.5 10C2.5 9.655 2.78 9.375 3.125 9.375H13.1592C13.5042 9.375 13.7842 9.655 13.7842 10C13.7842 10.345 13.5042 10.625 13.1592 10.625" fill="url(#paint0_linear_411_42771)"/>
<path fill-rule="evenodd" clip-rule="evenodd" d="M10.7185 13.0541C10.5585 13.0541 10.3977 12.9933 10.276 12.87C10.0319 12.625 10.0335 12.23 10.2777 11.9866L12.2727 9.99998L10.2777 8.01248C10.0335 7.76915 10.0319 7.37415 10.276 7.12915C10.5202 6.88415 10.9152 6.88415 11.1594 7.12748L13.6002 9.55748C13.7185 9.67415 13.7844 9.83415 13.7844 9.99998C13.7844 10.1658 13.7185 10.3258 13.6002 10.4425L11.1594 12.8716C11.0377 12.9933 10.8777 13.0541 10.7185 13.0541" fill="url(#paint1_linear_411_42771)"/>
<path fill-rule="evenodd" clip-rule="evenodd" d="M14.2028 18.3333H10.132C8.09948 18.3333 6.44531 16.6791 6.44531 14.6458V13.8608C6.44531 13.5158 6.72531 13.2358 7.07031 13.2358C7.41531 13.2358 7.69531 13.5158 7.69531 13.8608V14.6458C7.69531 15.9891 8.78865 17.0833 10.132 17.0833H14.2028C15.552 17.0833 16.6495 15.9866 16.6495 14.6366V5.35413C16.6495 4.01079 15.5553 2.91663 14.212 2.91663H10.1411C8.79281 2.91663 7.69531 4.01329 7.69531 5.36163V6.13913C7.69531 6.48413 7.41531 6.76413 7.07031 6.76413C6.72531 6.76413 6.44531 6.48413 6.44531 6.13913V5.36163C6.44531 3.32413 8.10365 1.66663 10.1411 1.66663H14.212C16.2445 1.66663 17.8995 3.32079 17.8995 5.35413V14.6366C17.8995 16.675 16.2403 18.3333 14.2028 18.3333" fill="url(#paint2_linear_411_42771)"/>
<defs>
<linearGradient id="paint0_linear_411_42771" x1="13.7842" y1="10.625" x2="7.79595" y2="3.68496" gradientUnits="userSpaceOnUse">
<stop stop-color="#28C254"/>
<stop offset="1" stop-color="#25B567"/>
</linearGradient>
<linearGradient id="paint1_linear_411_42771" x1="13.7844" y1="13.0541" x2="9.22268" y2="12.7003" gradientUnits="userSpaceOnUse">
<stop stop-color="#28C254"/>
<stop offset="1" stop-color="#25B567"/>
</linearGradient>
<linearGradient id="paint2_linear_411_42771" x1="17.8995" y1="18.3333" x2="3.76674" y2="17.0864" gradientUnits="userSpaceOnUse">
<stop stop-color="#28C254"/>
<stop offset="1" stop-color="#25B567"/>
</linearGradient>
</defs>
</svg>
