<svg width="20" height="20" viewBox="0 0 20 20" fill="none" xmlns="http://www.w3.org/2000/svg">
<path fill-rule="evenodd" clip-rule="evenodd" d="M9.4299 18.3333H5.35823C3.32156 18.3333 1.66406 16.6758 1.66406 14.6375V5.36329C1.66406 3.32496 3.32156 1.66663 5.35823 1.66663H9.42073C11.4591 1.66663 13.1174 3.32496 13.1174 5.36329V6.13996C13.1174 6.48496 12.8374 6.76496 12.4924 6.76496C12.1474 6.76496 11.8674 6.48496 11.8674 6.13996V5.36329C11.8674 4.01329 10.7699 2.91663 9.42073 2.91663H5.35823C4.01073 2.91663 2.91406 4.01329 2.91406 5.36329V14.6375C2.91406 15.9866 4.01073 17.0833 5.35823 17.0833H9.4299C10.7732 17.0833 11.8674 15.99 11.8674 14.6466V13.8608C11.8674 13.5158 12.1474 13.2358 12.4924 13.2358C12.8374 13.2358 13.1174 13.5158 13.1174 13.8608V14.6466C13.1174 16.68 11.4624 18.3333 9.4299 18.3333" fill="white"/>
<mask id="mask0_411_42766" style="mask-type:luminance" maskUnits="userSpaceOnUse" x="7" y="9" width="12" height="2">
<path fill-rule="evenodd" clip-rule="evenodd" d="M7.49219 9.375H18.7763V10.625H7.49219V9.375Z" fill="white"/>
</mask>
<g mask="url(#mask0_411_42766)">
<path fill-rule="evenodd" clip-rule="evenodd" d="M18.1514 10.625H8.11719C7.77219 10.625 7.49219 10.345 7.49219 10C7.49219 9.655 7.77219 9.375 8.11719 9.375H18.1514C18.4964 9.375 18.7764 9.655 18.7764 10C18.7764 10.345 18.4964 10.625 18.1514 10.625" fill="white"/>
</g>
<mask id="mask1_411_42766" style="mask-type:luminance" maskUnits="userSpaceOnUse" x="15" y="6" width="4" height="8">
<path fill-rule="evenodd" clip-rule="evenodd" d="M15.0859 6.94604H18.7754V13.055H15.0859V6.94604Z" fill="white"/>
</mask>
<g mask="url(#mask1_411_42766)">
<path fill-rule="evenodd" clip-rule="evenodd" d="M15.7107 13.055C15.5507 13.055 15.3899 12.9942 15.2682 12.8708C15.0249 12.6258 15.0257 12.2308 15.2699 11.9875L17.2649 10L15.2699 8.01334C15.0257 7.77 15.0241 7.375 15.2682 7.13C15.5116 6.885 15.9066 6.885 16.1516 7.12834L18.5916 9.5575C18.7099 9.67417 18.7757 9.83417 18.7757 10C18.7757 10.1658 18.7099 10.3258 18.5916 10.4425L16.1516 12.8725C16.0299 12.9942 15.8699 13.055 15.7107 13.055" fill="white"/>
</g>
</svg>
