<svg width="20" height="20" viewBox="0 0 20 20" fill="none" xmlns="http://www.w3.org/2000/svg">
<path d="M6.66406 18.5999C6.43073 18.5999 6.18905 18.5416 5.97238 18.425C5.49738 18.175 5.20573 17.6749 5.20573 17.1416V15.9583C2.68906 15.7 1.03906 13.8499 1.03906 11.1999V6.19999C1.03906 3.33333 2.96406 1.40833 5.83073 1.40833H14.1641C17.0307 1.40833 18.9557 3.33333 18.9557 6.19999V11.1999C18.9557 14.0666 17.0307 15.9916 14.1641 15.9916H11.0224L7.47237 18.3583C7.2307 18.5167 6.9474 18.5999 6.66406 18.5999ZM5.83073 2.64998C3.68073 2.64998 2.28906 4.04165 2.28906 6.19165V11.1917C2.28906 13.3417 3.68073 14.7334 5.83073 14.7334C6.1724 14.7334 6.45573 15.0167 6.45573 15.3584V17.1334C6.45573 17.2417 6.5224 17.2917 6.56407 17.3167C6.60573 17.3417 6.68907 17.3667 6.78074 17.3083L10.4891 14.8417C10.5891 14.775 10.7141 14.7334 10.8391 14.7334H14.1724C16.3224 14.7334 17.7141 13.3417 17.7141 11.1917V6.19165C17.7141 4.04165 16.3224 2.64998 14.1724 2.64998H5.83073Z" fill="#767C83"/>
<path d="M10.0005 10.0917C9.65883 10.0917 9.3755 9.80834 9.3755 9.46667V9.29171C9.3755 8.32504 10.0838 7.85003 10.3505 7.6667C10.6588 7.45836 10.7588 7.3167 10.7588 7.10004C10.7588 6.68337 10.4172 6.34167 10.0005 6.34167C9.58383 6.34167 9.24219 6.68337 9.24219 7.10004C9.24219 7.4417 8.95885 7.72504 8.61719 7.72504C8.27552 7.72504 7.99219 7.4417 7.99219 7.10004C7.99219 5.9917 8.89217 5.09167 10.0005 5.09167C11.1088 5.09167 12.0088 5.9917 12.0088 7.10004C12.0088 8.05004 11.3088 8.52502 11.0505 8.70002C10.7255 8.91669 10.6255 9.05837 10.6255 9.29171V9.46667C10.6255 9.81667 10.3422 10.0917 10.0005 10.0917Z" fill="#767C83"/>
<path d="M10 12.1666C9.65 12.1666 9.375 11.8833 9.375 11.5416C9.375 11.2 9.65833 10.9166 10 10.9166C10.3417 10.9166 10.625 11.2 10.625 11.5416C10.625 11.8833 10.35 12.1666 10 12.1666Z" fill="#767C83"/>
</svg>
