<svg width="323" height="287" viewBox="0 0 323 287" fill="none" xmlns="http://www.w3.org/2000/svg">
<g clip-path="url(#clip0_273_8307)">
<path d="M194.56 75.3359L309.323 75.3359V-0.00229645L194.56 -0.00229645V75.3359Z" fill="#E6E6E6"/>
<path d="M191.054 75.3359L307.684 75.3359V-0.00229645L191.054 -0.00229645V75.3359Z" fill="#F0F0F0"/>
<path d="M194.56 90.1182L309.323 90.1182V75.3311L194.56 75.3311V90.1182Z" fill="#E6E6E6"/>
<path d="M185.226 90.1182L301.855 90.1182V75.3311L185.226 75.3311V90.1182Z" fill="#F0F0F0"/>
<path d="M302.784 70.4268V4.91602L195.959 4.91602V70.4268L302.784 70.4268Z" fill="#FAFAFA"/>
<path d="M278.696 70.4204L265.052 4.91797H243.762L257.405 70.4204H278.696Z" fill="white"/>
<path d="M300.519 65.5276C300.71 65.5276 300.869 65.3689 300.869 65.1769V8.10752C300.869 7.91548 300.71 7.75684 300.519 7.75684C300.327 7.75684 300.169 7.91548 300.169 8.10752V65.1769C300.169 65.3773 300.319 65.5276 300.519 65.5276Z" fill="#F0F0F0"/>
<path d="M252.833 70.4204L239.189 4.91797H230.885L244.528 70.4204H252.833Z" fill="white"/>
<path d="M196.582 70.4278V4.91699H195.958V70.4278H196.582Z" fill="#E6E6E6"/>
<path opacity="0.6" d="M189.895 12.3241H304.659L305.117 6.82178H190.353L189.895 12.3241Z" fill="#EBEBEB"/>
<path opacity="0.6" d="M189.895 21.3417H304.659L305.117 15.8477H190.353L189.895 21.3417Z" fill="#EBEBEB"/>
<path opacity="0.6" d="M189.895 30.3593H304.659L305.117 24.8652H190.353L189.895 30.3593Z" fill="#EBEBEB"/>
<path opacity="0.6" d="M189.895 39.3852H304.659L305.117 33.8828H190.353L189.895 39.3852Z" fill="#EBEBEB"/>
<path opacity="0.6" d="M189.895 48.4028H304.659L305.117 42.9004H190.353L189.895 48.4028Z" fill="#EBEBEB"/>
<path opacity="0.6" d="M189.895 57.4203H304.659L305.117 51.918H190.353L189.895 57.4203Z" fill="#EBEBEB"/>
<path d="M292.847 194.503H268.783V199.263H292.847V194.503Z" fill="#E6E6E6"/>
<path d="M223.393 249.292H227.833V139.854H223.393V249.292Z" fill="#E6E6E6"/>
<path d="M208.014 199.258H268.785V194.499H208.014V199.258Z" fill="#F5F5F5"/>
<path d="M292.847 220.529H268.783V225.288H292.847V220.529Z" fill="#E6E6E6"/>
<path d="M208.014 225.278H268.785V220.519H208.014V225.278Z" fill="#F5F5F5"/>
<path d="M292.847 142.46H268.783V147.22H292.847V142.46Z" fill="#E6E6E6"/>
<path d="M208.014 147.21H268.785V142.451H208.014V147.21Z" fill="#F5F5F5"/>
<path d="M292.847 168.478H268.783V173.237H292.847V168.478Z" fill="#E6E6E6"/>
<path d="M208.014 173.238H268.785V168.479H208.014V173.238Z" fill="#F5F5F5"/>
<path d="M284.171 249.292H288.61V139.854H284.171V249.292Z" fill="#E6E6E6"/>
<path d="M264.346 249.292H268.786V139.854H264.346V249.292Z" fill="#F5F5F5"/>
<path d="M208.014 249.292H212.453V139.854H208.014V249.292Z" fill="#F5F5F5"/>
<path d="M7.71576 249.288H53.178L53.178 160.874H7.71576L7.71576 249.288Z" fill="#E6E6E6"/>
<path d="M19.8575 249.294H7.71313V237.086H32.5849L19.8575 249.294Z" fill="#FAFAFA"/>
<path d="M131.666 249.288H177.128V160.874H131.666V249.288Z" fill="#E6E6E6"/>
<path d="M7.71661 245.086L142.262 245.086V160.873H7.71661V245.086Z" fill="#FAFAFA"/>
<path d="M130.123 249.294H142.259V237.086H117.396L130.123 249.294Z" fill="#FAFAFA"/>
<path d="M17.1289 213.331H132.842V192.257H17.1289V213.331Z" fill="#F0F0F0"/>
<path d="M17.1289 238.916H132.842V217.841H17.1289V238.916Z" fill="#F0F0F0"/>
<path d="M39.1237 194.512H110.849C112.956 194.512 114.664 192.8 114.664 190.688V190.429H35.3171V190.688C35.3171 192.8 37.0247 194.512 39.1237 194.512Z" fill="#FAFAFA"/>
<path d="M17.1289 187.755H132.842V166.681H17.1289V187.755Z" fill="#F0F0F0"/>
<path d="M39.1237 168.929H110.849C112.956 168.929 114.664 167.217 114.664 165.105V164.846H35.3171V165.105C35.3171 167.217 37.0247 168.929 39.1237 168.929Z" fill="#FAFAFA"/>
<path d="M39.1237 220.087H110.849C112.956 220.087 114.664 218.375 114.664 216.263V216.004H35.3171V216.263C35.3171 218.375 37.0247 220.087 39.1237 220.087Z" fill="#FAFAFA"/>
<path d="M33.2407 158.171H37.2056L37.2056 113.843H33.2407L33.2407 158.171Z" fill="#F5F5F5"/>
<path d="M33.7398 158.144H34.8643L34.8643 113.816H33.7398L33.7398 158.144Z" fill="#FAFAFA"/>
<path d="M35.3388 158.144H35.7803L35.7803 113.816H35.3388L35.3388 158.144Z" fill="#FAFAFA"/>
<path d="M20.532 160.88H49.9017C49.9017 158.834 48.2441 157.172 46.2034 157.172H24.2303C22.1895 157.164 20.532 158.826 20.532 160.88Z" fill="#F0F0F0"/>
<path d="M28.0869 141.367C28.7116 141.367 29.2281 140.849 29.2281 140.223V111.158C29.2281 110.532 28.7116 110.014 28.0869 110.014C27.4622 110.014 26.9458 110.532 26.9458 111.158V140.223C26.9458 140.849 27.4622 141.367 28.0869 141.367Z" fill="#F0F0F0"/>
<path d="M17.4585 124.384H52.9837L48.8939 99.502H21.5483L17.4585 124.384Z" fill="#E0E0E0"/>
<path d="M161.5 287C250.694 287 323 282.768 323 277.548C323 272.328 250.694 268.097 161.5 268.097C72.306 268.097 0 272.328 0 277.548C0 282.768 72.306 287 161.5 287Z" fill="#F5F5F5"/>
<path d="M234.558 193.151H56.1739C52.1424 193.151 48.6024 189.845 48.3108 185.795L39.5482 63.7827C39.2567 59.7415 42.322 56.4268 46.3534 56.4268H224.737C228.769 56.4268 232.309 59.7332 232.6 63.7827L241.363 185.795C241.654 189.845 238.589 193.151 234.558 193.151Z" fill="url(#paint0_linear_273_8307)"/>
<path d="M235.241 193.151H56.857C52.8255 193.151 49.2855 189.845 48.9939 185.795L40.2313 63.7827C39.9398 59.7415 43.0051 56.4268 47.0365 56.4268H225.42C229.452 56.4268 232.992 59.7332 233.283 63.7827L242.046 185.795C242.337 189.845 239.272 193.151 235.241 193.151Z" fill="url(#paint1_linear_273_8307)"/>
<path opacity="0.5" d="M235.241 193.151H56.857C52.8255 193.151 49.2855 189.845 48.9939 185.795L40.2313 63.7827C39.9398 59.7415 43.0051 56.4268 47.0365 56.4268H225.42C229.452 56.4268 232.992 59.7332 233.283 63.7827L242.046 185.795C242.337 189.845 239.272 193.151 235.241 193.151Z" fill="white"/>
<path d="M225.687 60.1089H47.303C47.1031 60.1089 46.9032 60.1172 46.7033 60.1339C42.1471 60.5097 43.0717 67.4649 47.6779 67.4649H226.362C230.968 67.4649 230.893 60.5097 226.278 60.1339C226.087 60.1172 225.887 60.1089 225.687 60.1089Z" fill="url(#paint2_linear_273_8307)"/>
<path d="M51.951 63.7828C52.0176 64.718 51.318 65.4694 50.3934 65.4694C49.4605 65.4694 48.6609 64.718 48.5942 63.7828C48.5276 62.856 49.2273 62.0962 50.1518 62.0962C51.0764 62.0962 51.8844 62.856 51.951 63.7828Z" fill="#FAFAFA"/>
<path d="M57.6649 63.7828C57.7315 64.718 57.0318 65.4694 56.1073 65.4694C55.1827 65.4694 54.3747 64.718 54.3081 63.7828C54.2415 62.856 54.9411 62.0962 55.8657 62.0962C56.7986 62.0962 57.5982 62.856 57.6649 63.7828Z" fill="#FAFAFA"/>
<path d="M63.3873 63.7828C63.4539 64.718 62.7542 65.4694 61.8297 65.4694C60.8968 65.4694 60.0972 64.718 60.0305 63.7828C59.9639 62.856 60.6636 62.0962 61.5881 62.0962C62.5127 62.0962 63.3206 62.856 63.3873 63.7828Z" fill="#FAFAFA"/>
<path d="M230.51 180.969H59.8388C58.3728 180.969 57.0901 179.775 56.9902 178.306L49.7768 77.9687C49.6686 76.4992 50.7764 75.3052 52.2424 75.3052H222.913C224.379 75.3052 225.662 76.4992 225.762 77.9687L232.967 178.306C233.083 179.783 231.984 180.969 230.51 180.969Z" fill="white"/>
<path d="M158.61 142.753L155.828 104.078L147.415 98.9927H124.251L127.399 142.753H158.61Z" fill="white"/>
<path d="M158.61 143.154H127.399C127.191 143.154 127.016 142.987 126.999 142.778L123.859 99.0264C123.851 98.9179 123.893 98.801 123.967 98.7258C124.042 98.6423 124.151 98.6006 124.259 98.6006H147.415C147.49 98.6006 147.557 98.6173 147.623 98.659L156.044 103.736C156.153 103.802 156.228 103.919 156.236 104.053L159.018 142.728C159.026 142.837 158.985 142.954 158.91 143.029C158.826 143.112 158.718 143.154 158.61 143.154ZM127.774 142.344H158.177L155.445 104.312L147.298 99.4022H124.684L127.774 142.344Z" fill="url(#paint3_linear_273_8307)"/>
<path d="M155.828 104.078L147.415 98.9932L150.505 105.723L155.828 104.078Z" fill="#EBEBEB"/>
<path d="M150.505 106.132C150.355 106.132 150.205 106.04 150.139 105.898L147.048 99.1684C146.974 99.0097 147.015 98.8177 147.148 98.7008C147.282 98.5839 147.473 98.5672 147.623 98.659L156.044 103.736C156.178 103.819 156.253 103.969 156.236 104.128C156.219 104.287 156.103 104.42 155.953 104.462L150.622 106.115C150.58 106.124 150.539 106.132 150.505 106.132ZM148.323 100.02L150.722 105.23L154.853 103.953L148.323 100.02Z" fill="url(#paint4_linear_273_8307)"/>
<path d="M137.32 118.706C137.386 119.683 136.653 120.476 135.687 120.476C134.721 120.476 133.863 119.683 133.796 118.706C133.73 117.729 134.463 116.936 135.429 116.936C136.395 116.936 137.245 117.729 137.32 118.706Z" fill="url(#paint5_linear_273_8307)"/>
<path d="M148.756 118.706C148.823 119.683 148.09 120.476 147.124 120.476C146.149 120.476 145.299 119.683 145.233 118.706C145.166 117.729 145.899 116.936 146.865 116.936C147.84 116.944 148.689 117.729 148.756 118.706Z" fill="url(#paint6_linear_273_8307)"/>
<path d="M151.988 130.17C151.78 130.17 151.605 130.012 151.588 129.795C151.38 126.956 146.94 124.643 141.676 124.643C138.194 124.643 135.062 125.678 133.505 127.357C132.813 128.1 132.497 128.901 132.555 129.745C132.572 129.97 132.405 130.162 132.18 130.179C131.955 130.195 131.764 130.028 131.747 129.803C131.672 128.743 132.072 127.707 132.913 126.805C134.613 124.977 137.969 123.833 141.676 123.833C147.448 123.833 152.154 126.43 152.396 129.736C152.413 129.962 152.246 130.154 152.021 130.17C152.004 130.17 151.996 130.17 151.988 130.17Z" fill="url(#paint7_linear_273_8307)"/>
<path d="M130.823 115.125C130.723 115.125 130.623 115.091 130.548 115.016C130.381 114.866 130.373 114.607 130.523 114.448L132.289 112.536C132.439 112.369 132.697 112.361 132.855 112.511C133.022 112.661 133.03 112.92 132.88 113.079L131.114 114.991C131.039 115.083 130.931 115.125 130.823 115.125Z" fill="url(#paint8_linear_273_8307)"/>
<path d="M151.155 115.124C151.055 115.124 150.955 115.091 150.88 115.016L148.839 113.104C148.673 112.953 148.664 112.695 148.823 112.536C148.973 112.369 149.231 112.361 149.389 112.519L151.43 114.431C151.596 114.582 151.605 114.84 151.446 114.999C151.371 115.083 151.263 115.124 151.155 115.124Z" fill="url(#paint9_linear_273_8307)"/>
<path d="M247.868 74.5204C248.609 74.1446 249.501 73.6604 250.317 73.2095C251.15 72.7503 251.983 72.266 252.799 71.7734C254.432 70.7631 256.073 69.7695 257.639 68.6673C260.787 66.4881 263.744 64.0751 266.393 61.4449C266.743 61.1277 267.034 60.7686 267.359 60.4346L267.834 59.9253L268.075 59.6665L268.192 59.5412C268.225 59.5078 268.217 59.5162 268.2 59.5329L268.175 59.5746C268.059 59.8001 268.159 59.7333 268.2 59.5162C268.259 59.3074 268.3 58.9735 268.317 58.6061C268.367 57.0865 268.075 55.1828 267.709 53.3291C266.968 49.5802 265.843 45.731 264.735 41.957L267.976 40.5376C270 44.1697 271.69 47.8685 273.065 51.893C273.723 53.9303 274.323 55.976 274.497 58.4808C274.531 59.1238 274.547 59.7917 274.431 60.5766C274.306 61.3447 274.114 62.2715 273.415 63.3152L273.273 63.5073L273.165 63.6492L273.04 63.8079L272.782 64.1168L272.265 64.743C271.915 65.1522 271.59 65.5947 271.216 65.9788C268.342 69.1766 265.152 71.9988 261.737 74.4536C260.038 75.6977 258.305 76.875 256.506 77.9521C255.606 78.4948 254.698 79.0208 253.774 79.5301C252.841 80.0478 251.95 80.507 250.883 81.008L247.868 74.5204Z" fill="#FFB573"/>
<path d="M240.455 270.819C241.096 270.819 241.804 270.685 242.296 270.568C242.362 270.552 242.412 270.502 242.421 270.435C242.429 270.368 242.404 270.301 242.346 270.268C242.104 270.109 239.988 268.74 239.172 269.107C239.047 269.166 238.881 269.291 238.847 269.575C238.797 269.942 238.889 270.243 239.122 270.452C239.422 270.727 239.922 270.819 240.455 270.819ZM241.829 270.326C240.613 270.568 239.705 270.527 239.347 270.201C239.197 270.067 239.139 269.867 239.18 269.608C239.197 269.466 239.264 269.425 239.322 269.4C239.747 269.216 240.971 269.809 241.829 270.326Z" fill="url(#paint10_linear_273_8307)"/>
<path d="M242.262 270.569C242.287 270.569 242.321 270.56 242.346 270.544C242.396 270.51 242.429 270.46 242.429 270.402C242.429 270.318 242.421 268.306 241.663 267.63C241.463 267.454 241.23 267.379 240.963 267.404C240.547 267.454 240.438 267.713 240.405 267.863C240.247 268.648 241.513 270.159 242.179 270.535C242.204 270.56 242.237 270.569 242.262 270.569ZM241.071 267.738C241.205 267.738 241.329 267.788 241.438 267.88C241.888 268.281 242.046 269.408 242.087 270.084C241.421 269.55 240.63 268.423 240.73 267.938C240.746 267.863 240.788 267.763 241.005 267.738C241.021 267.738 241.046 267.738 241.071 267.738Z" fill="url(#paint11_linear_273_8307)"/>
<path d="M241.646 53.6382C240.838 57.7879 239.122 66.1959 242.021 68.9597C242.021 68.9597 240.888 73.1678 233.2 73.1678C224.737 73.1678 229.16 68.9597 229.16 68.9597C233.775 67.8575 233.658 64.4175 232.85 61.1946L241.646 53.6382Z" fill="#FFB573"/>
<path d="M227.536 70.6296C226.211 70.8133 227.336 67.3649 227.877 67.0059C229.127 66.1793 245.244 65.0103 245.144 66.9725C245.078 67.8158 244.686 69.4606 243.978 70.0201C243.27 70.5795 239.13 68.8929 227.536 70.6296Z" fill="#263238"/>
<path d="M230.168 69.4688C229.11 69.8278 229.21 66.3544 229.576 65.9369C230.409 64.9683 243.453 61.6118 243.845 63.5072C243.995 64.3254 244.07 65.9703 243.62 66.6049C243.162 67.2394 239.33 66.1874 230.168 69.4688Z" fill="#263238"/>
<path d="M225.312 46.1569C225.212 46.1653 225.104 46.1235 225.037 46.0317C224.104 44.8878 222.888 45.0047 222.88 45.0047C222.696 45.0214 222.538 44.8961 222.513 44.7125C222.497 44.5288 222.621 44.3701 222.805 44.3451C222.871 44.3367 224.387 44.1948 225.545 45.6059C225.662 45.7478 225.637 45.9565 225.495 46.0734C225.445 46.1235 225.378 46.1486 225.312 46.1569Z" fill="#263238"/>
<path d="M223.696 50.2397C223.696 50.2397 222.98 52.753 222.055 54.0221C222.863 54.64 224.088 54.1975 224.088 54.1975L223.696 50.2397Z" fill="#FF5652"/>
<path d="M224.104 49.2213C224.162 49.7807 223.904 50.265 223.538 50.3067C223.171 50.3401 222.83 49.9143 222.771 49.3549C222.713 48.7954 222.971 48.3112 223.338 48.2694C223.704 48.236 224.046 48.6618 224.104 49.2213Z" fill="#263238"/>
<path d="M223.505 48.2862L222.122 48.0273C222.122 48.0357 222.913 49.0209 223.505 48.2862Z" fill="#263238"/>
<path d="M250.375 270.401H243.395L243.945 254.211H250.925L250.375 270.401Z" fill="#FFB573"/>
<path d="M242.845 269.591H250.683C250.967 269.591 251.2 269.792 251.241 270.067L252.133 276.288C252.224 276.931 251.675 277.54 251.017 277.532C248.284 277.482 246.968 277.323 243.52 277.323C241.396 277.323 238.297 277.54 235.374 277.54C232.508 277.54 232.292 274.634 233.508 274.376C238.972 273.198 239.838 271.57 241.679 270.017C242.012 269.742 242.429 269.591 242.845 269.591Z" fill="#263238"/>
<g opacity="0.2">
<path opacity="0.2" d="M250.925 254.211H243.945L243.662 262.561H250.642L250.925 254.211Z" fill="black"/>
</g>
<path d="M222.613 78.6615C218.299 76.9666 214.175 75.1213 210.077 73.0256C205.979 70.9215 201.956 68.6921 198.083 65.703C197.117 64.9432 196.167 64.1082 195.234 63.1397C195.001 62.8892 194.768 62.6554 194.543 62.3715C194.301 62.0709 194.118 61.8956 193.81 61.428C193.243 60.6181 192.81 59.5243 192.694 58.4138C192.585 57.3033 192.785 56.2346 193.102 55.3913C193.418 54.5313 193.835 53.8215 194.276 53.212C195.151 51.993 196.125 51.0829 197.1 50.273C199.049 48.6532 201.115 47.4759 203.181 46.3737C204.213 45.8226 205.263 45.33 206.329 44.8708C207.404 44.4032 208.445 43.9774 209.586 43.585L211.069 46.7995C207.437 49.0957 203.672 51.6173 200.907 54.4478C200.232 55.1491 199.649 55.8839 199.274 56.5268C198.874 57.1864 198.883 57.679 198.949 57.6373C198.982 57.6373 198.966 57.6206 199.066 57.7208L199.399 58.0798C199.524 58.2301 199.699 58.3804 199.857 58.5391C200.515 59.1486 201.281 59.7664 202.106 60.3509C203.755 61.5282 205.579 62.6303 207.462 63.6657C209.336 64.7094 211.268 65.7113 213.243 66.6632C217.166 68.5502 221.239 70.3621 225.229 72.0153L222.613 78.6615Z" fill="#FFB573"/>
<path d="M213.118 44.5204L214.275 42.0156L209.028 40.187C209.028 40.187 207.395 45.1133 209.344 47.3927C210.994 47.1255 212.41 46.0484 213.118 44.5204Z" fill="#FFB573"/>
<path d="M214.267 36.5881L210.077 35.3774L209.028 40.1868L214.267 42.0154V36.5881Z" fill="#FFB573"/>
<path d="M268.408 42.2574L269.016 36.396L263.611 37.6651C263.611 37.6651 263.527 43.1592 266.393 44.0359L268.408 42.2574Z" fill="#FFB573"/>
<path d="M266.418 32.2964L262.895 33.9413L263.611 37.6652L269.017 36.396L266.418 32.2964Z" fill="#FFB573"/>
<path d="M242.745 45.4387C243.004 52.3772 243.254 55.3079 240.13 59.1905C235.424 65.0268 226.869 63.8245 224.554 57.1031C222.472 51.058 222.405 40.7295 228.869 37.3229C235.232 33.958 242.487 38.5086 242.745 45.4387Z" fill="#FFB573"/>
<path d="M239.73 59.1739C246.527 56.2348 250.991 50.0311 249.101 40.3289C247.293 31.0441 241.046 30.134 238.464 32.0544C235.882 33.9832 229.443 31.1109 225.587 34.3673C218.898 40.0116 225.22 46.0984 228.519 49.7055C230.484 53.7633 233.066 62.0628 239.73 59.1739Z" fill="#263238"/>
<path d="M236.907 38.6589C239.197 41.982 243.595 42.9255 246.727 40.7546C249.859 38.5838 250.542 34.1334 248.243 30.8019C245.952 27.4788 241.554 26.5353 238.422 28.7062C235.299 30.8854 234.616 35.3358 236.907 38.6589Z" fill="url(#paint12_linear_273_8307)"/>
<path d="M238.672 32.7056C237.689 27.1114 242.97 22.803 250.034 24.8821C257.089 26.9695 253.357 33.24 251.908 38.2498C250.458 43.2595 254.257 48.0271 255.847 44.2197C257.438 40.404 254.765 39.2267 254.765 39.2267C254.765 39.2267 262.261 41.1721 255.298 49.6469C248.334 58.1134 242.029 48.7619 243.736 43.2428C245.111 38.7758 239.597 37.9909 238.672 32.7056Z" fill="#263238"/>
<path d="M231.617 34.8179C228.394 33.1313 222.938 31.7704 219.831 37.0055C218.365 39.4854 218.931 42.8419 218.931 42.8419L228.419 43.4765L231.617 34.8179Z" fill="#263238"/>
<path d="M217.815 41.2053C217.807 41.2053 217.807 41.2053 217.799 41.2053C217.682 41.197 217.599 41.0968 217.607 40.9883C217.615 40.8463 217.849 37.4898 219.864 35.3773C224.754 30.2841 230.484 34.509 232.125 35.9284C232.209 36.0036 232.225 36.1372 232.15 36.2207C232.075 36.3041 231.942 36.3208 231.859 36.2457C230.293 34.8931 224.804 30.8435 220.172 35.6696C218.257 37.6651 218.032 40.9799 218.023 41.0133C218.015 41.1135 217.924 41.2053 217.815 41.2053Z" fill="#263238"/>
<path d="M229.676 49.4296C229.668 50.7823 229.06 52.1015 228.294 53.0033C227.144 54.3559 225.82 53.6879 225.52 52.1934C225.245 50.8491 225.52 48.5195 226.969 47.7096C228.41 46.8997 229.693 47.885 229.676 49.4296Z" fill="#FFB573"/>
<path d="M228.177 112.962C228.177 112.962 228.619 161.506 232.825 188.559C236.215 210.41 242.496 260.941 242.496 260.941H252.008C252.008 260.941 252.941 212.163 251.217 190.546C246.86 135.857 258.105 125.637 249.026 112.954H228.177V112.962Z" fill="#263238"/>
<path opacity="0.1" d="M228.177 112.962C228.177 112.962 228.619 161.506 232.825 188.559C236.215 210.41 242.496 260.941 242.496 260.941H252.008C252.008 260.941 252.941 212.163 251.217 190.546C246.86 135.857 258.105 125.637 249.026 112.954H228.177V112.962Z" fill="white"/>
<path opacity="0.3" d="M233.183 134.988C236.523 149.642 233.858 172.72 232.034 182.881C230.101 167.451 229.127 147.454 228.644 132.8C230.368 129.995 232.001 129.811 233.183 134.988Z" fill="black"/>
<path d="M241.196 261.133H253.316L253.949 256.875L241.13 256.441L241.196 261.133Z" fill="url(#paint13_linear_273_8307)"/>
<path d="M244.653 71.9821C245.794 69.711 251.916 68.2832 255.273 68.2832L257.78 79.4382C257.78 79.4382 251.108 89.3659 248.335 88.3138C245.053 87.0781 242.212 76.8499 244.653 71.9821Z" fill="url(#paint14_linear_273_8307)"/>
<path opacity="0.4" d="M244.653 71.9821C245.794 69.711 251.916 68.2832 255.273 68.2832L257.78 79.4382C257.78 79.4382 251.108 89.3659 248.335 88.3138C245.053 87.0781 242.212 76.8499 244.653 71.9821Z" fill="black" fill-opacity="0.6"/>
<path d="M237.59 258.403C237.623 258.353 237.623 258.295 237.598 258.236C237.565 258.178 237.498 258.136 237.431 258.153C237.081 258.203 234 258.695 233.583 259.58C233.5 259.747 233.516 259.931 233.616 260.098C233.783 260.382 234.025 260.541 234.333 260.574C235.341 260.683 236.798 259.271 237.581 258.428C237.581 258.42 237.581 258.411 237.59 258.403ZM233.891 259.689C234.175 259.221 235.774 258.787 236.99 258.562C235.89 259.681 234.924 260.307 234.358 260.248C234.158 260.232 234.008 260.123 233.891 259.931C233.85 259.856 233.841 259.789 233.875 259.722C233.883 259.714 233.883 259.697 233.891 259.689Z" fill="url(#paint15_linear_273_8307)"/>
<path d="M237.59 258.403C237.598 258.395 237.598 258.378 237.606 258.37C237.623 258.311 237.615 258.253 237.573 258.211C237.523 258.152 236.282 256.725 235.149 256.65C234.799 256.624 234.491 256.733 234.241 256.958C233.9 257.267 233.925 257.535 234.016 257.702C234.374 258.42 236.59 258.67 237.49 258.478C237.531 258.47 237.565 258.445 237.59 258.403ZM234.333 257.351C234.358 257.309 234.399 257.259 234.466 257.201C234.658 257.034 234.874 256.958 235.132 256.975C235.882 257.025 236.732 257.802 237.115 258.194C236.124 258.278 234.524 257.977 234.308 257.543C234.299 257.526 234.266 257.459 234.333 257.351Z" fill="url(#paint16_linear_273_8307)"/>
<path d="M244.861 255.439L238.481 258.286L235.641 252.35L231.926 244.584L231.484 243.683L237.865 240.835L238.356 241.846L241.954 249.369L244.861 255.439Z" fill="#FFB573"/>
<path opacity="0.2" d="M241.954 249.369L235.64 252.349L231.926 244.584L238.356 241.846L241.954 249.369Z" fill="black"/>
<path d="M220.697 112.962C220.697 112.962 200.315 163.752 205.838 187.674C210.835 209.291 232.908 250.229 232.908 250.229L241.446 245.929C241.446 245.929 227.794 196.508 226.312 185.77C223.43 164.88 241.954 135.397 241.954 112.954L220.697 112.962Z" fill="#263238"/>
<path opacity="0.1" d="M220.697 112.962C220.697 112.962 200.315 163.752 205.838 187.674C210.835 209.291 232.908 250.229 232.908 250.229L241.446 245.929C241.446 245.929 227.794 196.508 226.312 185.77C223.43 164.88 241.954 135.397 241.954 112.954L220.697 112.962Z" fill="white"/>
<path d="M237.34 257.393L243.678 252.767C243.911 252.6 244.211 252.625 244.411 252.825L248.784 257.326C249.234 257.794 249.151 258.612 248.609 258.987C246.369 260.566 245.211 261.208 242.429 263.237C240.713 264.49 237.298 267.254 234.932 268.982C232.617 270.669 230.734 268.456 231.567 267.521C235.299 263.346 236.082 260.758 236.657 258.42C236.756 258.011 237.006 257.643 237.34 257.393Z" fill="#263238"/>
<path d="M232.359 252.041L243.379 246.989L241.962 242.489L230.168 247.883L232.359 252.041Z" fill="url(#paint17_linear_273_8307)"/>
<path d="M226.103 71.4142C225.187 69.043 217.224 66.4379 213.234 65.5361L211.477 78.7034C211.477 78.7034 217.999 88.105 220.864 87.3202C224.246 86.4017 228.061 76.4991 226.103 71.4142Z" fill="url(#paint18_linear_273_8307)"/>
<path opacity="0.4" d="M226.103 71.4142C225.187 69.043 217.224 66.4379 213.234 65.5361L211.477 78.7034C211.477 78.7034 217.999 88.105 220.864 87.3202C224.246 86.4017 228.061 76.4991 226.103 71.4142Z" fill="black" fill-opacity="0.6"/>
<path d="M217.366 70.7548C217.366 70.7548 214.042 71.932 220.697 112.97C231.942 112.97 243.562 112.97 249.034 112.97C248.56 101.406 248.543 94.2839 254.057 70.5544C254.057 70.5544 248.118 69.2602 242.021 68.9679C237.256 68.7342 233.35 68.5839 229.152 68.9679C223.629 69.4606 217.366 70.7548 217.366 70.7548Z" fill="url(#paint19_linear_273_8307)"/>
<path opacity="0.3" d="M217.366 70.7548C217.366 70.7548 214.042 71.932 220.697 112.97C231.942 112.97 243.562 112.97 249.034 112.97C248.56 101.406 248.543 94.2839 254.057 70.5544C254.057 70.5544 248.118 69.2602 242.021 68.9679C237.256 68.7342 233.35 68.5839 229.152 68.9679C223.629 69.4606 217.366 70.7548 217.366 70.7548Z" fill="black"/>
<path d="M249.459 111.292L250.733 113.838C250.833 114.039 250.6 114.239 250.275 114.239H220.556C220.297 114.239 220.089 114.114 220.073 113.955L219.814 111.417C219.798 111.242 220.014 111.091 220.297 111.091H248.992C249.209 111.083 249.392 111.167 249.459 111.292Z" fill="url(#paint20_linear_273_8307)"/>
<path opacity="0.3" d="M249.459 111.292L250.733 113.838C250.833 114.039 250.6 114.239 250.275 114.239H220.556C220.297 114.239 220.089 114.114 220.073 113.955L219.814 111.417C219.798 111.242 220.014 111.091 220.297 111.091H248.992C249.209 111.083 249.392 111.167 249.459 111.292Z" fill="white"/>
<path d="M245.603 114.515H246.369C246.519 114.515 246.635 114.44 246.627 114.34L246.269 111.033C246.261 110.933 246.127 110.858 245.969 110.858H245.203C245.053 110.858 244.936 110.933 244.945 111.033L245.303 114.34C245.319 114.432 245.453 114.515 245.603 114.515Z" fill="#263238"/>
<path d="M226.978 114.515H227.744C227.894 114.515 228.011 114.44 228.002 114.34L227.644 111.033C227.636 110.933 227.503 110.858 227.344 110.858H226.578C226.428 110.858 226.311 110.933 226.32 111.033L226.678 114.34C226.686 114.432 226.82 114.515 226.978 114.515Z" fill="#263238"/>
<path d="M96.68 163V156H98.34L100.77 160.53V156H102.32V163H100.66L98.23 158.47V163H96.68ZM109.732 162.13C109.052 162.843 108.145 163.2 107.012 163.2C105.879 163.2 104.972 162.843 104.292 162.13C103.612 161.41 103.272 160.533 103.272 159.5C103.272 158.467 103.612 157.593 104.292 156.88C104.972 156.16 105.879 155.8 107.012 155.8C108.145 155.8 109.052 156.16 109.732 156.88C110.412 157.593 110.752 158.467 110.752 159.5C110.752 160.533 110.412 161.41 109.732 162.13ZM107.012 161.75C107.652 161.75 108.152 161.537 108.512 161.11C108.879 160.677 109.062 160.14 109.062 159.5C109.062 158.86 108.879 158.327 108.512 157.9C108.152 157.467 107.652 157.25 107.012 157.25C106.365 157.25 105.859 157.467 105.492 157.9C105.132 158.327 104.955 158.86 104.962 159.5C104.955 160.14 105.132 160.677 105.492 161.11C105.859 161.537 106.365 161.75 107.012 161.75ZM121.191 159.5C121.191 160.233 121.011 160.9 120.651 161.5C120.298 162.1 119.801 162.547 119.161 162.84L119.851 163.74L118.431 164.46L117.481 163.2H117.451C116.318 163.2 115.411 162.843 114.731 162.13C114.051 161.41 113.711 160.533 113.711 159.5C113.711 158.467 114.051 157.593 114.731 156.88C115.411 156.16 116.318 155.8 117.451 155.8C118.585 155.8 119.491 156.16 120.171 156.88C120.851 157.593 121.191 158.467 121.191 159.5ZM117.451 161.75C118.091 161.75 118.591 161.537 118.951 161.11C119.318 160.677 119.501 160.14 119.501 159.5C119.501 158.86 119.318 158.327 118.951 157.9C118.591 157.467 118.091 157.25 117.451 157.25C116.805 157.25 116.298 157.467 115.931 157.9C115.571 158.327 115.395 158.86 115.401 159.5C115.395 160.14 115.571 160.677 115.931 161.11C116.298 161.537 116.805 161.75 117.451 161.75ZM127.619 158.53C127.619 159.037 127.503 159.49 127.269 159.89C127.036 160.283 126.716 160.58 126.309 160.78L127.539 163H125.699L124.599 161.06H123.749V163H122.129V156H125.109C125.836 156 126.436 156.24 126.909 156.72C127.383 157.193 127.619 157.797 127.619 158.53ZM123.749 157.32V159.74H124.859C125.186 159.74 125.453 159.627 125.659 159.4C125.873 159.173 125.979 158.883 125.979 158.53C125.979 158.177 125.873 157.887 125.659 157.66C125.453 157.433 125.186 157.32 124.859 157.32H123.749ZM134.415 163.2C133.281 163.2 132.371 162.857 131.685 162.17C130.998 161.477 130.655 160.587 130.655 159.5C130.655 158.413 130.998 157.527 131.685 156.84C132.371 156.147 133.281 155.8 134.415 155.8C135.428 155.8 136.251 156.05 136.885 156.55C137.525 157.043 137.891 157.707 137.985 158.54H136.265C136.171 158.14 135.965 157.827 135.645 157.6C135.325 157.367 134.918 157.25 134.425 157.25C133.771 157.25 133.261 157.453 132.895 157.86C132.528 158.26 132.345 158.807 132.345 159.5C132.345 160.193 132.528 160.743 132.895 161.15C133.261 161.55 133.771 161.75 134.425 161.75C134.918 161.75 135.325 161.637 135.645 161.41C135.965 161.177 136.171 160.86 136.265 160.46H137.985C137.891 161.293 137.525 161.96 136.885 162.46C136.251 162.953 135.428 163.2 134.415 163.2ZM144.996 162.13C144.316 162.843 143.409 163.2 142.276 163.2C141.142 163.2 140.236 162.843 139.556 162.13C138.876 161.41 138.536 160.533 138.536 159.5C138.536 158.467 138.876 157.593 139.556 156.88C140.236 156.16 141.142 155.8 142.276 155.8C143.409 155.8 144.316 156.16 144.996 156.88C145.676 157.593 146.016 158.467 146.016 159.5C146.016 160.533 145.676 161.41 144.996 162.13ZM142.276 161.75C142.916 161.75 143.416 161.537 143.776 161.11C144.142 160.677 144.326 160.14 144.326 159.5C144.326 158.86 144.142 158.327 143.776 157.9C143.416 157.467 142.916 157.25 142.276 157.25C141.629 157.25 141.122 157.467 140.756 157.9C140.396 158.327 140.219 158.86 140.226 159.5C140.219 160.14 140.396 160.677 140.756 161.11C141.122 161.537 141.629 161.75 142.276 161.75ZM146.953 163V156H149.593C150.68 156 151.547 156.337 152.193 157.01C152.84 157.683 153.163 158.513 153.163 159.5C153.163 160.487 152.84 161.317 152.193 161.99C151.553 162.663 150.687 163 149.593 163H146.953ZM148.573 161.64H149.443C150.097 161.64 150.6 161.433 150.953 161.02C151.313 160.6 151.493 160.093 151.493 159.5C151.493 158.907 151.313 158.403 150.953 157.99C150.6 157.57 150.097 157.36 149.443 157.36H148.573V161.64ZM154.082 163V156H158.362V157.3H155.702V158.89H158.362V160.16H155.702V161.7H158.362V163H154.082ZM162.071 163V156H166.351V157.36H163.691V159.25H166.351V160.58H163.691V163H162.071ZM173.56 162.13C172.88 162.843 171.973 163.2 170.84 163.2C169.707 163.2 168.8 162.843 168.12 162.13C167.44 161.41 167.1 160.533 167.1 159.5C167.1 158.467 167.44 157.593 168.12 156.88C168.8 156.16 169.707 155.8 170.84 155.8C171.973 155.8 172.88 156.16 173.56 156.88C174.24 157.593 174.58 158.467 174.58 159.5C174.58 160.533 174.24 161.41 173.56 162.13ZM170.84 161.75C171.48 161.75 171.98 161.537 172.34 161.11C172.707 160.677 172.89 160.14 172.89 159.5C172.89 158.86 172.707 158.327 172.34 157.9C171.98 157.467 171.48 157.25 170.84 157.25C170.193 157.25 169.687 157.467 169.32 157.9C168.96 158.327 168.783 158.86 168.79 159.5C168.783 160.14 168.96 160.677 169.32 161.11C169.687 161.537 170.193 161.75 170.84 161.75ZM180.248 162.51C179.741 162.957 179.051 163.18 178.178 163.18C177.305 163.18 176.615 162.957 176.108 162.51C175.608 162.063 175.358 161.437 175.358 160.63V156H176.968V160.53C176.968 160.923 177.075 161.23 177.288 161.45C177.508 161.67 177.805 161.78 178.178 161.78C178.551 161.78 178.845 161.67 179.058 161.45C179.278 161.23 179.388 160.923 179.388 160.53V156H181.008V160.63C181.008 161.437 180.755 162.063 180.248 162.51ZM182.207 163V156H183.867L186.297 160.53V156H187.847V163H186.187L183.757 158.47V163H182.207ZM189.209 163V156H191.849C192.936 156 193.803 156.337 194.449 157.01C195.096 157.683 195.419 158.513 195.419 159.5C195.419 160.487 195.096 161.317 194.449 161.99C193.809 162.663 192.943 163 191.849 163H189.209ZM190.829 161.64H191.699C192.353 161.64 192.856 161.433 193.209 161.02C193.569 160.6 193.749 160.093 193.749 159.5C193.749 158.907 193.569 158.403 193.209 157.99C192.856 157.57 192.353 157.36 191.699 157.36H190.829V161.64Z" fill="url(#paint21_linear_273_8307)"/>
</g>
<defs>
<linearGradient id="paint0_linear_273_8307" x1="241.382" y1="193.151" x2="-0.909207" y2="147.228" gradientUnits="userSpaceOnUse">
<stop stop-color="#28C254"/>
<stop offset="1" stop-color="#25B567"/>
</linearGradient>
<linearGradient id="paint1_linear_273_8307" x1="242.065" y1="193.151" x2="-0.226104" y2="147.228" gradientUnits="userSpaceOnUse">
<stop stop-color="#28C254"/>
<stop offset="1" stop-color="#25B567"/>
</linearGradient>
<linearGradient id="paint2_linear_273_8307" x1="229.778" y1="67.4649" x2="209.738" y2="2.3893" gradientUnits="userSpaceOnUse">
<stop stop-color="#28C254"/>
<stop offset="1" stop-color="#25B567"/>
</linearGradient>
<linearGradient id="paint3_linear_273_8307" x1="159.019" y1="143.154" x2="115.742" y2="138.769" gradientUnits="userSpaceOnUse">
<stop stop-color="#28C254"/>
<stop offset="1" stop-color="#25B567"/>
</linearGradient>
<linearGradient id="paint4_linear_273_8307" x1="156.238" y1="106.132" x2="145.042" y2="104.371" gradientUnits="userSpaceOnUse">
<stop stop-color="#28C254"/>
<stop offset="1" stop-color="#25B567"/>
</linearGradient>
<linearGradient id="paint5_linear_273_8307" x1="137.324" y1="120.476" x2="133.003" y2="119.923" gradientUnits="userSpaceOnUse">
<stop stop-color="#28C254"/>
<stop offset="1" stop-color="#25B567"/>
</linearGradient>
<linearGradient id="paint6_linear_273_8307" x1="148.76" y1="120.476" x2="144.44" y2="119.923" gradientUnits="userSpaceOnUse">
<stop stop-color="#28C254"/>
<stop offset="1" stop-color="#25B567"/>
</linearGradient>
<linearGradient id="paint7_linear_273_8307" x1="152.397" y1="130.18" x2="130.528" y2="121.041" gradientUnits="userSpaceOnUse">
<stop stop-color="#28C254"/>
<stop offset="1" stop-color="#25B567"/>
</linearGradient>
<linearGradient id="paint8_linear_273_8307" x1="132.987" y1="115.125" x2="129.837" y2="114.742" gradientUnits="userSpaceOnUse">
<stop stop-color="#28C254"/>
<stop offset="1" stop-color="#25B567"/>
</linearGradient>
<linearGradient id="paint9_linear_273_8307" x1="151.56" y1="115.124" x2="148.078" y2="114.656" gradientUnits="userSpaceOnUse">
<stop stop-color="#28C254"/>
<stop offset="1" stop-color="#25B567"/>
</linearGradient>
<linearGradient id="paint10_linear_273_8307" x1="242.422" y1="270.819" x2="238.242" y2="269.734" gradientUnits="userSpaceOnUse">
<stop stop-color="#28C254"/>
<stop offset="1" stop-color="#25B567"/>
</linearGradient>
<linearGradient id="paint11_linear_273_8307" x1="242.429" y1="270.569" x2="239.912" y2="270.361" gradientUnits="userSpaceOnUse">
<stop stop-color="#28C254"/>
<stop offset="1" stop-color="#25B567"/>
</linearGradient>
<linearGradient id="paint12_linear_273_8307" x1="249.604" y1="41.9228" x2="232.4" y2="39.7649" gradientUnits="userSpaceOnUse">
<stop stop-color="#28C254"/>
<stop offset="1" stop-color="#25B567"/>
</linearGradient>
<linearGradient id="paint13_linear_273_8307" x1="253.949" y1="261.133" x2="239.755" y2="256.155" gradientUnits="userSpaceOnUse">
<stop stop-color="#28C254"/>
<stop offset="1" stop-color="#25B567"/>
</linearGradient>
<linearGradient id="paint14_linear_273_8307" x1="257.78" y1="88.3919" x2="240.455" y2="86.8384" gradientUnits="userSpaceOnUse">
<stop stop-color="#28C254"/>
<stop offset="1" stop-color="#25B567"/>
</linearGradient>
<linearGradient id="paint15_linear_273_8307" x1="237.616" y1="260.58" x2="232.761" y2="259.532" gradientUnits="userSpaceOnUse">
<stop stop-color="#28C254"/>
<stop offset="1" stop-color="#25B567"/>
</linearGradient>
<linearGradient id="paint16_linear_273_8307" x1="237.614" y1="258.54" x2="233.33" y2="257.478" gradientUnits="userSpaceOnUse">
<stop stop-color="#28C254"/>
<stop offset="1" stop-color="#25B567"/>
</linearGradient>
<linearGradient id="paint17_linear_273_8307" x1="243.379" y1="252.041" x2="227.454" y2="249.213" gradientUnits="userSpaceOnUse">
<stop stop-color="#28C254"/>
<stop offset="1" stop-color="#25B567"/>
</linearGradient>
<linearGradient id="paint18_linear_273_8307" x1="226.636" y1="87.3667" x2="207.934" y2="85.6994" gradientUnits="userSpaceOnUse">
<stop stop-color="#28C254"/>
<stop offset="1" stop-color="#25B567"/>
</linearGradient>
<linearGradient id="paint19_linear_273_8307" x1="254.057" y1="112.97" x2="207.948" y2="107.949" gradientUnits="userSpaceOnUse">
<stop stop-color="#28C254"/>
<stop offset="1" stop-color="#25B567"/>
</linearGradient>
<linearGradient id="paint20_linear_273_8307" x1="250.757" y1="114.239" x2="235.913" y2="95.5095" gradientUnits="userSpaceOnUse">
<stop stop-color="#28C254"/>
<stop offset="1" stop-color="#25B567"/>
</linearGradient>
<linearGradient id="paint21_linear_273_8307" x1="196" y1="165" x2="143.359" y2="103.562" gradientUnits="userSpaceOnUse">
<stop stop-color="#28C254"/>
<stop offset="1" stop-color="#25B567"/>
</linearGradient>
<clipPath id="clip0_273_8307">
<rect width="323" height="287" fill="white"/>
</clipPath>
</defs>
</svg>
