<svg width="25" height="25" viewBox="0 0 25 25" fill="none" xmlns="http://www.w3.org/2000/svg">
<path d="M14.7402 22.9167H10.2402C8.63607 22.9167 7.44856 21.6146 7.76106 20.2292L8.30273 17.8125C8.4069 17.3333 8.83398 17 9.32356 17H15.6673C16.1569 17 16.5736 17.3333 16.6881 17.8125L17.2298 20.2188C17.5631 21.7083 16.4486 22.9167 14.7402 22.9167Z" fill="white"/>
<path d="M19.5994 14.2601L18.4848 15.2393C18.0994 15.5726 17.6099 15.7601 17.1099 15.7601H7.90152C7.3911 15.7601 6.8911 15.5726 6.5161 15.2288L5.42235 14.2497C3.63068 12.7809 3.62027 11.6559 4.99527 9.92676L10.4432 3.04134C10.4931 2.97427 10.5448 2.91052 10.5981 2.85004C11.0492 2.33776 11.7349 2.78788 11.7349 3.47043V7.14551C11.7244 7.59342 12.0786 7.94759 12.5161 7.93717C12.9536 7.94759 13.2973 7.59342 13.3078 7.14551V3.47043C13.3078 2.78788 13.9843 2.34746 14.4451 2.85096C14.4974 2.9081 14.5489 2.96808 14.5994 3.03092L20.0265 9.92676C21.3807 11.6559 21.3286 12.7288 19.5994 14.2601Z" fill="white"/>
</svg>
