<?xml version="1.0" encoding="UTF-8"?>
<svg xmlns="http://www.w3.org/2000/svg" version="1.1" width="250" height="250" viewBox="0 0 250 250"><rect x="0" y="0" width="250" height="250" fill="#ffffff"/><g transform="scale(8.065)"><g transform="translate(1,1)"><g><g transform="translate(3.5,3.5)"><path fill-rule="evenodd" d="M-3.5 -3.5L3.5 -3.5L3.5 3.5L-3.5 3.5ZM-2.5 -2.5L-2.5 2.5L2.5 2.5L2.5 -2.5Z" fill="#000000"/><path fill-rule="evenodd" d="M-1.5 -1.5L1.5 -1.5L1.5 1.5L-1.5 1.5Z" fill="#000000"/></g></g><g><g transform="translate(25.5,3.5)"><g transform="rotate(90)"><path fill-rule="evenodd" d="M-3.5 -3.5L3.5 -3.5L3.5 3.5L-3.5 3.5ZM-2.5 -2.5L-2.5 2.5L2.5 2.5L2.5 -2.5Z" fill="#000000"/><path fill-rule="evenodd" d="M-1.5 -1.5L1.5 -1.5L1.5 1.5L-1.5 1.5Z" fill="#000000"/></g></g></g><g><g transform="translate(3.5,25.5)"><g transform="rotate(-90)"><path fill-rule="evenodd" d="M-3.5 -3.5L3.5 -3.5L3.5 3.5L-3.5 3.5ZM-2.5 -2.5L-2.5 2.5L2.5 2.5L2.5 -2.5Z" fill="#000000"/><path fill-rule="evenodd" d="M-1.5 -1.5L1.5 -1.5L1.5 1.5L-1.5 1.5Z" fill="#000000"/></g></g></g><path fill-rule="evenodd" d="M8 0L8 2L9 2L9 0ZM10 0L10 1L11 1L11 0ZM12 0L12 3L13 3L13 2L14 2L14 0ZM15 0L15 1L16 1L16 0ZM19 0L19 2L18 2L18 3L17 3L17 2L16 2L16 3L14 3L14 5L13 5L13 4L11 4L11 5L10 5L10 4L9 4L9 3L8 3L8 4L9 4L9 5L10 5L10 7L11 7L11 10L12 10L12 9L13 9L13 11L12 11L12 12L10 12L10 11L9 11L9 12L8 12L8 11L7 11L7 10L10 10L10 9L8 9L8 8L9 8L9 6L8 6L8 8L5 8L5 9L7 9L7 10L4 10L4 8L2 8L2 9L3 9L3 10L4 10L4 11L5 11L5 12L3 12L3 16L2 16L2 11L1 11L1 12L0 12L0 15L1 15L1 16L0 16L0 17L1 17L1 16L2 16L2 18L4 18L4 17L5 17L5 18L6 18L6 19L4 19L4 20L1 20L1 21L4 21L4 20L6 20L6 21L8 21L8 24L9 24L9 25L8 25L8 27L11 27L11 28L13 28L13 29L15 29L15 28L13 28L13 27L15 27L15 26L13 26L13 24L15 24L15 25L17 25L17 26L16 26L16 28L17 28L17 29L18 29L18 25L17 25L17 24L16 24L16 23L15 23L15 22L17 22L17 21L15 21L15 20L18 20L18 21L20 21L20 22L18 22L18 23L20 23L20 24L19 24L19 25L21 25L21 27L25 27L25 29L26 29L26 28L27 28L27 29L28 29L28 28L29 28L29 26L28 26L28 25L29 25L29 24L27 24L27 23L28 23L28 21L29 21L29 19L28 19L28 18L25 18L25 19L26 19L26 21L27 21L27 23L26 23L26 22L25 22L25 20L23 20L23 19L24 19L24 18L23 18L23 19L22 19L22 20L20 20L20 19L21 19L21 18L20 18L20 17L23 17L23 16L24 16L24 17L25 17L25 14L26 14L26 15L27 15L27 16L26 16L26 17L28 17L28 16L29 16L29 15L27 15L27 13L25 13L25 14L24 14L24 11L26 11L26 8L25 8L25 9L24 9L24 10L23 10L23 12L22 12L22 14L21 14L21 11L22 11L22 10L21 10L21 8L20 8L20 7L21 7L21 6L20 6L20 5L19 5L19 6L18 6L18 3L19 3L19 2L21 2L21 0ZM10 2L10 3L11 3L11 2ZM16 3L16 4L15 4L15 5L14 5L14 6L13 6L13 5L11 5L11 7L12 7L12 8L14 8L14 9L15 9L15 10L14 10L14 11L13 11L13 12L12 12L12 13L13 13L13 14L12 14L12 15L13 15L13 18L14 18L14 15L15 15L15 18L16 18L16 19L17 19L17 18L18 18L18 17L20 17L20 16L18 16L18 15L17 15L17 13L18 13L18 12L17 12L17 11L19 11L19 14L20 14L20 15L21 15L21 14L20 14L20 10L18 10L18 8L17 8L17 7L18 7L18 6L17 6L17 5L16 5L16 4L17 4L17 3ZM20 3L20 4L21 4L21 3ZM12 6L12 7L13 7L13 6ZM14 6L14 7L15 7L15 8L16 8L16 10L17 10L17 8L16 8L16 7L17 7L17 6L16 6L16 7L15 7L15 6ZM19 6L19 7L20 7L20 6ZM0 8L0 9L1 9L1 8ZM22 8L22 9L23 9L23 8ZM27 8L27 12L28 12L28 9L29 9L29 8ZM6 11L6 12L7 12L7 13L6 13L6 14L7 14L7 15L6 15L6 16L7 16L7 17L6 17L6 18L8 18L8 14L9 14L9 16L10 16L10 17L9 17L9 20L8 20L8 19L6 19L6 20L8 20L8 21L9 21L9 20L10 20L10 17L11 17L11 18L12 18L12 16L10 16L10 13L8 13L8 12L7 12L7 11ZM15 11L15 12L14 12L14 14L13 14L13 15L14 15L14 14L15 14L15 15L16 15L16 14L15 14L15 13L17 13L17 12L16 12L16 11ZM4 13L4 15L5 15L5 13ZM23 14L23 15L24 15L24 14ZM3 16L3 17L4 17L4 16ZM17 16L17 17L18 17L18 16ZM0 18L0 19L1 19L1 18ZM19 18L19 19L20 19L20 18ZM12 19L12 20L11 20L11 21L10 21L10 22L9 22L9 24L10 24L10 25L9 25L9 26L11 26L11 27L12 27L12 26L11 26L11 25L12 25L12 23L14 23L14 22L15 22L15 21L13 21L13 19ZM27 19L27 21L28 21L28 19ZM12 21L12 22L10 22L10 23L12 23L12 22L13 22L13 21ZM21 21L21 24L24 24L24 21ZM22 22L22 23L23 23L23 22ZM25 24L25 26L26 26L26 24ZM22 25L22 26L24 26L24 25ZM19 26L19 27L20 27L20 26ZM27 26L27 28L28 28L28 26ZM8 28L8 29L10 29L10 28ZM19 28L19 29L21 29L21 28ZM22 28L22 29L24 29L24 28Z" fill="#000000"/></g></g></svg>
