<svg width="13" height="7" viewBox="0 0 13 7" fill="none" xmlns="http://www.w3.org/2000/svg">
<path d="M12.3058 3.07107C12.3057 3.07093 12.3056 3.07076 12.3054 3.07062L9.82586 0.603027C9.64011 0.418172 9.33965 0.418859 9.15475 0.604641C8.96987 0.790398 8.97058 1.09085 9.15634 1.27573L10.8211 2.93243H0.771412C0.509325 2.93243 0.296875 3.14488 0.296875 3.40697C0.296875 3.66906 0.509325 3.88151 0.771412 3.88151H10.8211L9.15636 5.53821C8.9706 5.72309 8.96989 6.02354 9.15477 6.2093C9.33968 6.3951 9.64015 6.39574 9.82589 6.21091L12.3054 3.74332C12.3056 3.74318 12.3057 3.74301 12.3059 3.74287C12.4917 3.55737 12.4911 3.25595 12.3058 3.07107Z" fill="white"/>
</svg>
