<svg width="325" height="356" viewBox="0 0 325 356" fill="none" xmlns="http://www.w3.org/2000/svg">
<g opacity="0.2">
<mask id="mask0_411_42752" style="mask-type:alpha" maskUnits="userSpaceOnUse" x="0" y="0" width="385" height="356">
<rect x="311.109" width="281" height="321.345" transform="rotate(74.8068 311.109 0)" fill="url(#paint0_linear_411_42752)"/>
</mask>
<g mask="url(#mask0_411_42752)">
<rect opacity="0.3" x="162.422" y="224.578" width="252.687" height="235" rx="117.5" transform="rotate(74.8068 162.422 224.578)" fill="url(#paint1_linear_411_42752)" stroke="white" stroke-width="2"/>
<rect opacity="0.3" x="122.789" y="299.928" width="128.03" height="119" rx="59.5" transform="rotate(74.8068 122.789 299.928)" fill="url(#paint2_linear_411_42752)" stroke="white" stroke-width="2"/>
<rect opacity="0.3" x="203.43" y="146.63" width="381.642" height="355" rx="177.5" transform="rotate(74.8068 203.43 146.63)" fill="url(#paint3_linear_411_42752)" stroke="white" stroke-width="2"/>
<rect opacity="0.3" x="244.438" y="68.6793" width="510.597" height="475" rx="237.5" transform="rotate(74.8068 244.438 68.6793)" fill="url(#paint4_linear_411_42752)" stroke="white" stroke-width="2"/>
<rect opacity="0.3" x="285.438" y="-9.268" width="639.552" height="595" rx="297.5" transform="rotate(74.8068 285.438 -9.268)" fill="url(#paint5_linear_411_42752)" stroke="white" stroke-width="2"/>
</g>
</g>
<defs>
<linearGradient id="paint0_linear_411_42752" x1="592.109" y1="321.345" x2="247.047" y2="282.607" gradientUnits="userSpaceOnUse">
<stop stop-color="#28C254"/>
<stop offset="1" stop-color="#25B567"/>
</linearGradient>
<linearGradient id="paint1_linear_411_42752" x1="417.812" y1="460.351" x2="107.035" y2="417.475" gradientUnits="userSpaceOnUse">
<stop stop-color="#28C254"/>
<stop offset="1" stop-color="#25B567"/>
</linearGradient>
<linearGradient id="paint2_linear_411_42752" x1="253.522" y1="419.701" x2="94.8556" y2="397.811" gradientUnits="userSpaceOnUse">
<stop stop-color="#28C254"/>
<stop offset="1" stop-color="#25B567"/>
</linearGradient>
<linearGradient id="paint3_linear_411_42752" x1="587.775" y1="502.403" x2="119.643" y2="437.819" gradientUnits="userSpaceOnUse">
<stop stop-color="#28C254"/>
<stop offset="1" stop-color="#25B567"/>
</linearGradient>
<linearGradient id="paint4_linear_411_42752" x1="757.738" y1="544.452" x2="132.251" y2="458.158" gradientUnits="userSpaceOnUse">
<stop stop-color="#28C254"/>
<stop offset="1" stop-color="#25B567"/>
</linearGradient>
<linearGradient id="paint5_linear_411_42752" x1="927.693" y1="586.505" x2="144.851" y2="478.502" gradientUnits="userSpaceOnUse">
<stop stop-color="#28C254"/>
<stop offset="1" stop-color="#25B567"/>
</linearGradient>
</defs>
</svg>
