<svg width="23" height="23" viewBox="0 0 23 23" fill="none" xmlns="http://www.w3.org/2000/svg">
<g clip-path="url(#clip0_411_42782)">
<path d="M0.953125 8.62533C0.953125 9.15631 1.39089 9.59408 1.92188 9.59408C2.45286 9.59408 2.89063 9.15631 2.89063 8.62533V6.22949C2.89063 4.38381 4.3887 2.88574 6.23438 2.88574H8.63021C9.1612 2.88574 9.59896 2.44798 9.59896 1.91699C9.59896 1.386 9.1612 0.948242 8.63021 0.948242H6.23438C3.32703 0.948242 0.953125 3.31194 0.953125 6.22949V8.62533Z" fill="white" stroke="white" stroke-width="0.5"/>
<path d="M20.1146 8.62533C20.1146 9.15631 20.5523 9.59408 21.0833 9.59408C21.6143 9.59408 22.0521 9.15631 22.0521 8.62533V6.22949C22.0521 3.31194 19.6782 0.948242 16.7708 0.948242H14.375C13.844 0.948242 13.4062 1.386 13.4062 1.91699C13.4062 2.44798 13.844 2.88574 14.375 2.88574H16.7708C18.6165 2.88574 20.1146 4.38381 20.1146 6.22949V8.62533Z" fill="white" stroke="white" stroke-width="0.5"/>
<path d="M15.3281 22.0518H16.7656C19.673 22.0518 22.0469 19.6881 22.0469 16.7705V15.333C22.0469 14.802 21.6091 14.3643 21.0781 14.3643C20.5471 14.3643 20.1094 14.802 20.1094 15.333V16.7705C20.1094 18.6162 18.6113 20.1143 16.7656 20.1143H15.3281C14.7971 20.1143 14.3594 20.552 14.3594 21.083C14.3594 21.614 14.7971 22.0518 15.3281 22.0518Z" fill="white" stroke="white" stroke-width="0.5"/>
<path d="M6.23438 22.0521H8.63021C9.1612 22.0521 9.59896 21.6143 9.59896 21.0833C9.59896 20.5523 9.1612 20.1146 8.63021 20.1146H6.23438C4.3887 20.1146 2.89063 18.6165 2.89063 16.7708V14.375C2.89063 13.844 2.45286 13.4062 1.92188 13.4062C1.39089 13.4062 0.953125 13.844 0.953125 14.375V16.7708C0.953125 19.6884 3.32703 22.0521 6.23438 22.0521Z" fill="white" stroke="white" stroke-width="0.5"/>
<path d="M6.70833 12.3493H16.2917C16.7572 12.3493 17.1406 11.9658 17.1406 11.5003C17.1406 11.0348 16.7572 10.6514 16.2917 10.6514H6.70833C6.24283 10.6514 5.85938 11.0348 5.85938 11.5003C5.85938 11.9658 6.24283 12.3493 6.70833 12.3493Z" fill="white" stroke="white" stroke-width="0.5"/>
<path d="M10.6562 16.2917C10.6562 16.7572 11.0397 17.1406 11.5052 17.1406C11.9707 17.1406 12.3542 16.7572 12.3542 16.2917V6.70833C12.3542 6.24283 11.9707 5.85938 11.5052 5.85938C11.0397 5.85938 10.6562 6.24283 10.6562 6.70833V16.2917Z" fill="white" stroke="white" stroke-width="0.5"/>
</g>
<defs>
<clipPath id="clip0_411_42782">
<rect width="23" height="23" fill="white"/>
</clipPath>
</defs>
</svg>
