<svg width="26" height="26" viewBox="0 0 26 26" fill="none" xmlns="http://www.w3.org/2000/svg">
<path fill-rule="evenodd" clip-rule="evenodd" d="M7.81221 17.3369C7.63888 17.3369 7.46446 17.2816 7.31713 17.169C6.9618 16.8949 6.89463 16.3846 7.16871 16.0293L10.4111 11.8151C10.5433 11.6429 10.7394 11.5313 10.9539 11.5042C11.1727 11.476 11.3872 11.5367 11.5573 11.6721L14.6123 14.0717L17.2849 10.6235C17.56 10.267 18.0692 10.201 18.4245 10.4783C18.7799 10.7535 18.8449 11.2637 18.5697 11.618L15.3955 15.713C15.2634 15.8841 15.0684 15.9957 14.8539 16.0217C14.6372 16.051 14.4227 15.9881 14.2515 15.8549L11.1987 13.4564L8.4568 17.0195C8.29646 17.2275 8.05596 17.3369 7.81221 17.3369Z" fill="#707BFF"/>
<mask id="mask0_411_42886" style="mask-type:luminance" maskUnits="userSpaceOnUse" x="18" y="2" width="7" height="6">
<path fill-rule="evenodd" clip-rule="evenodd" d="M18.7344 2.16699H24.5237V7.9573H18.7344V2.16699Z" fill="white"/>
</mask>
<g mask="url(#mask0_411_42886)">
<path fill-rule="evenodd" clip-rule="evenodd" d="M21.629 3.79199C20.9292 3.79199 20.3594 4.36074 20.3594 5.06166C20.3594 5.76149 20.9292 6.33241 21.629 6.33241C22.3289 6.33241 22.8987 5.76149 22.8987 5.06166C22.8987 4.36074 22.3289 3.79199 21.629 3.79199ZM21.629 7.95741C20.0333 7.95741 18.7344 6.65849 18.7344 5.06166C18.7344 3.46483 20.0333 2.16699 21.629 2.16699C23.2259 2.16699 24.5237 3.46483 24.5237 5.06166C24.5237 6.65849 23.2259 7.95741 21.629 7.95741Z" fill="#707BFF"/>
</g>
<mask id="mask1_411_42886" style="mask-type:luminance" maskUnits="userSpaceOnUse" x="2" y="3" width="22" height="22">
<path fill-rule="evenodd" clip-rule="evenodd" d="M2.16406 3.0791H23.6811V24.5952H2.16406V3.0791Z" fill="white"/>
</mask>
<g mask="url(#mask1_411_42886)">
<path fill-rule="evenodd" clip-rule="evenodd" d="M17.5831 24.5952H8.26215C4.61456 24.5952 2.16406 22.0331 2.16406 18.2198V9.46427C2.16406 5.64552 4.61456 3.0791 8.26215 3.0791H16.1358C16.5843 3.0791 16.9483 3.4431 16.9483 3.8916C16.9483 4.3401 16.5843 4.7041 16.1358 4.7041H8.26215C5.54515 4.7041 3.78906 6.57177 3.78906 9.46427V18.2198C3.78906 21.1502 5.5029 22.9702 8.26215 22.9702H17.5831C20.3001 22.9702 22.0562 21.1058 22.0562 18.2198V10.5942C22.0562 10.1457 22.4202 9.78168 22.8687 9.78168C23.3172 9.78168 23.6812 10.1457 23.6812 10.5942V18.2198C23.6812 22.0331 21.2307 24.5952 17.5831 24.5952Z" fill="#707BFF"/>
</g>
</svg>
