<svg width="26" height="26" viewBox="0 0 26 26" fill="none" xmlns="http://www.w3.org/2000/svg">
<path d="M10.9496 19.6625H6.84375C6.39958 19.6625 6.03125 19.2942 6.03125 18.85V13.3034C6.03125 12.1767 6.95207 11.2559 8.07873 11.2559H10.9496C11.3937 11.2559 11.7621 11.6242 11.7621 12.0684V18.8392C11.7621 19.2942 11.3937 19.6625 10.9496 19.6625ZM7.65625 18.0375H10.1371V12.8917H8.07873C7.85123 12.8917 7.65625 13.0758 7.65625 13.3142V18.0375Z" fill="url(#paint0_linear_411_42938)"/>
<path d="M15.0512 19.6629H10.9453C10.5011 19.6629 10.1328 19.2946 10.1328 18.8504V8.38541C10.1328 7.25874 11.0536 6.33789 12.1803 6.33789H13.827C14.9536 6.33789 15.8745 7.25874 15.8745 8.38541V18.8504C15.8636 19.2946 15.5062 19.6629 15.0512 19.6629ZM11.7686 18.0379H14.2495V8.38541C14.2495 8.15791 14.0653 7.96289 13.827 7.96289H12.1803C11.9528 7.96289 11.7578 8.14707 11.7578 8.38541V18.0379H11.7686Z" fill="url(#paint1_linear_411_42938)"/>
<path d="M19.1527 19.6626H15.0469C14.6027 19.6626 14.2344 19.2943 14.2344 18.8501V13.9209C14.2344 13.4767 14.6027 13.1084 15.0469 13.1084H17.9177C19.0444 13.1084 19.9652 14.0292 19.9652 15.1559V18.8501C19.9652 19.2943 19.6077 19.6626 19.1527 19.6626ZM15.8594 18.0376H18.3402V15.1559C18.3402 14.9284 18.156 14.7334 17.9177 14.7334H15.8594V18.0376Z" fill="url(#paint2_linear_411_42938)"/>
<path d="M16.2474 24.6462H9.7474C3.8649 24.6462 1.35156 22.1328 1.35156 16.2503V9.75033C1.35156 3.86783 3.8649 1.35449 9.7474 1.35449H16.2474C22.1299 1.35449 24.6432 3.86783 24.6432 9.75033V16.2503C24.6432 22.1328 22.1299 24.6462 16.2474 24.6462ZM9.7474 2.97949C4.75323 2.97949 2.97656 4.75616 2.97656 9.75033V16.2503C2.97656 21.2445 4.75323 23.0212 9.7474 23.0212H16.2474C21.2416 23.0212 23.0182 21.2445 23.0182 16.2503V9.75033C23.0182 4.75616 21.2416 2.97949 16.2474 2.97949H9.7474Z" fill="url(#paint3_linear_411_42938)"/>
<defs>
<linearGradient id="paint0_linear_411_42938" x1="11.7621" y1="19.6625" x2="4.69021" y2="19.0436" gradientUnits="userSpaceOnUse">
<stop stop-color="#28C254"/>
<stop offset="1" stop-color="#25B567"/>
</linearGradient>
<linearGradient id="paint1_linear_411_42938" x1="15.8745" y1="19.6629" x2="8.75675" y2="19.2692" gradientUnits="userSpaceOnUse">
<stop stop-color="#28C254"/>
<stop offset="1" stop-color="#25B567"/>
</linearGradient>
<linearGradient id="paint2_linear_411_42938" x1="19.9652" y1="19.6626" x2="12.9278" y2="18.8727" gradientUnits="userSpaceOnUse">
<stop stop-color="#28C254"/>
<stop offset="1" stop-color="#25B567"/>
</linearGradient>
<linearGradient id="paint3_linear_411_42938" x1="24.6432" y1="24.6462" x2="-3.84933" y2="20.9882" gradientUnits="userSpaceOnUse">
<stop stop-color="#28C254"/>
<stop offset="1" stop-color="#25B567"/>
</linearGradient>
</defs>
</svg>
