<svg width="26" height="26" viewBox="0 0 26 26" fill="none" xmlns="http://www.w3.org/2000/svg">
<path fill-rule="evenodd" clip-rule="evenodd" d="M17.0248 18.3887H9.20312C8.75462 18.3887 8.39062 18.0247 8.39062 17.5762C8.39062 17.1277 8.75462 16.7637 9.20312 16.7637H17.0248C17.4733 16.7637 17.8373 17.1277 17.8373 17.5762C17.8373 18.0247 17.4733 18.3887 17.0248 18.3887Z" fill="#FF8F44"/>
<path fill-rule="evenodd" clip-rule="evenodd" d="M17.0248 13.8525H9.20312C8.75462 13.8525 8.39062 13.4885 8.39062 13.04C8.39062 12.5915 8.75462 12.2275 9.20312 12.2275H17.0248C17.4733 12.2275 17.8373 12.5915 17.8373 13.04C17.8373 13.4885 17.4733 13.8525 17.0248 13.8525Z" fill="#FF8F44"/>
<path fill-rule="evenodd" clip-rule="evenodd" d="M12.1877 9.32812H9.20312C8.75462 9.32812 8.39062 8.96413 8.39062 8.51562C8.39062 8.06713 8.75462 7.70312 9.20312 7.70312H12.1877C12.6362 7.70312 13.0002 8.06713 13.0002 8.51562C13.0002 8.96413 12.6362 9.32812 12.1877 9.32812Z" fill="#FF8F44"/>
<mask id="mask0_411_42910" style="mask-type:luminance" maskUnits="userSpaceOnUse" x="3" y="2" width="20" height="22">
<path fill-rule="evenodd" clip-rule="evenodd" d="M3.25 2.16699H22.9284V23.7359H3.25V2.16699Z" fill="white"/>
</mask>
<g mask="url(#mask0_411_42910)">
<path fill-rule="evenodd" clip-rule="evenodd" d="M17.2347 3.79199L8.905 3.79633C6.383 3.81149 4.875 5.37149 4.875 7.97041V17.9327C4.875 20.549 6.39708 22.1112 8.944 22.1112L17.2737 22.1079C19.7957 22.0927 21.3037 20.5306 21.3037 17.9327V7.97041C21.3037 5.35416 19.7827 3.79199 17.2347 3.79199ZM8.94508 23.7362C5.53908 23.7362 3.25 21.4037 3.25 17.9327V7.97041C3.25 4.46799 5.46758 2.19191 8.89958 2.17133L17.2337 2.16699H17.2348C20.6408 2.16699 22.9288 4.49941 22.9288 7.97041V17.9327C22.9288 21.4341 20.7112 23.7112 17.2792 23.7329L8.94508 23.7362Z" fill="#FF8F44"/>
</g>
</svg>
