<svg width="26" height="26" viewBox="0 0 26 26" fill="none" xmlns="http://www.w3.org/2000/svg">
<path d="M21.4175 14.8962H17.0408C14.8633 14.8962 13.8125 13.8887 13.8125 11.8087V4.44199C13.8125 2.36199 14.8742 1.35449 17.0408 1.35449H21.4175C23.595 1.35449 24.6458 2.36199 24.6458 4.44199V11.8087C24.6458 13.8887 23.5842 14.8962 21.4175 14.8962ZM17.0408 2.97949C15.665 2.97949 15.4375 3.34783 15.4375 4.44199V11.8087C15.4375 12.9028 15.665 13.2712 17.0408 13.2712H21.4175C22.7933 13.2712 23.0208 12.9028 23.0208 11.8087V4.44199C23.0208 3.34783 22.7933 2.97949 21.4175 2.97949H17.0408Z" fill="url(#paint0_linear_411_42879)"/>
<path d="M21.4175 24.6455H17.0408C14.8633 24.6455 13.8125 23.638 13.8125 21.558V19.608C13.8125 17.528 14.8742 16.5205 17.0408 16.5205H21.4175C23.595 16.5205 24.6458 17.528 24.6458 19.608V21.558C24.6458 23.638 23.5842 24.6455 21.4175 24.6455ZM17.0408 18.1455C15.665 18.1455 15.4375 18.5138 15.4375 19.608V21.558C15.4375 22.6522 15.665 23.0205 17.0408 23.0205H21.4175C22.7933 23.0205 23.0208 22.6522 23.0208 21.558V19.608C23.0208 18.5138 22.7933 18.1455 21.4175 18.1455H17.0408Z" fill="url(#paint1_linear_411_42879)"/>
<path d="M8.95656 24.6462H4.5799C2.4024 24.6462 1.35156 23.6387 1.35156 21.5587V14.192C1.35156 12.112 2.41323 11.1045 4.5799 11.1045H8.95656C11.1341 11.1045 12.1849 12.112 12.1849 14.192V21.5587C12.1849 23.6387 11.1232 24.6462 8.95656 24.6462ZM4.5799 12.7295C3.20406 12.7295 2.97656 13.0978 2.97656 14.192V21.5587C2.97656 22.6528 3.20406 23.0212 4.5799 23.0212H8.95656C10.3324 23.0212 10.5599 22.6528 10.5599 21.5587V14.192C10.5599 13.0978 10.3324 12.7295 8.95656 12.7295H4.5799Z" fill="url(#paint2_linear_411_42879)"/>
<path d="M8.95656 9.47949H4.5799C2.4024 9.47949 1.35156 8.47199 1.35156 6.39199V4.44199C1.35156 2.36199 2.41323 1.35449 4.5799 1.35449H8.95656C11.1341 1.35449 12.1849 2.36199 12.1849 4.44199V6.39199C12.1849 8.47199 11.1232 9.47949 8.95656 9.47949ZM4.5799 2.97949C3.20406 2.97949 2.97656 3.34783 2.97656 4.44199V6.39199C2.97656 7.48616 3.20406 7.85449 4.5799 7.85449H8.95656C10.3324 7.85449 10.5599 7.48616 10.5599 6.39199V4.44199C10.5599 3.34783 10.3324 2.97949 8.95656 2.97949H4.5799Z" fill="url(#paint3_linear_411_42879)"/>
<defs>
<linearGradient id="paint0_linear_411_42879" x1="24.6458" y1="14.8962" x2="11.3157" y2="13.5271" gradientUnits="userSpaceOnUse">
<stop stop-color="#28C254"/>
<stop offset="1" stop-color="#25B567"/>
</linearGradient>
<linearGradient id="paint1_linear_411_42879" x1="24.6458" y1="24.6455" x2="11.5585" y2="22.4053" gradientUnits="userSpaceOnUse">
<stop stop-color="#28C254"/>
<stop offset="1" stop-color="#25B567"/>
</linearGradient>
<linearGradient id="paint2_linear_411_42879" x1="12.1849" y1="24.6462" x2="-1.14527" y2="23.2771" gradientUnits="userSpaceOnUse">
<stop stop-color="#28C254"/>
<stop offset="1" stop-color="#25B567"/>
</linearGradient>
<linearGradient id="paint3_linear_411_42879" x1="12.1849" y1="9.47949" x2="-0.902407" y2="7.23926" gradientUnits="userSpaceOnUse">
<stop stop-color="#28C254"/>
<stop offset="1" stop-color="#25B567"/>
</linearGradient>
</defs>
</svg>
