<svg width="26" height="26" viewBox="0 0 26 26" fill="none" xmlns="http://www.w3.org/2000/svg">
<path d="M14.378 25.1875H11.648C10.8897 25.1875 10.2072 24.8624 9.7522 24.3099C9.35137 23.8116 9.19971 23.1724 9.34054 22.5657L9.7847 20.605C9.87137 20.2366 10.1964 19.9766 10.5755 19.9766H15.4505C15.8297 19.9766 16.1547 20.2366 16.2414 20.605L16.6855 22.5657C16.8264 23.2157 16.6964 23.8441 16.2955 24.3424C15.8514 24.8733 15.158 25.1875 14.378 25.1875ZM11.2255 21.58L10.9222 22.9125C10.8897 23.075 10.9547 23.2049 11.0197 23.2808C11.1605 23.4541 11.388 23.5516 11.648 23.5516H14.378C14.6597 23.5516 14.898 23.465 15.028 23.3025C15.1147 23.1941 15.1364 23.0641 15.1039 22.9016L14.8005 21.5692H11.2255V21.58Z" fill="#707BFF"/>
<path d="M15.4516 21.581C15.2241 21.581 15.0074 21.4943 14.8449 21.3102C14.5524 20.9743 14.5741 20.4651 14.9099 20.1618L16.7841 18.4934C17.5316 17.8326 17.4991 17.6702 16.9466 16.9768L13.6424 12.7843C13.4582 12.5568 13.2416 12.4268 13.0141 12.4268C12.7866 12.4268 12.5699 12.5568 12.3857 12.7843L9.08157 16.9768C8.49657 17.7243 8.50741 17.8868 9.22241 18.4718L11.1182 20.1618C11.4541 20.4543 11.4866 20.9743 11.1832 21.3102C10.8799 21.646 10.3707 21.6784 10.0349 21.3751L8.16074 19.7067C6.79574 18.5909 6.67657 17.3993 7.80324 15.9693L11.1074 11.7768C11.5949 11.1593 12.2882 10.8018 13.0141 10.8018C13.7399 10.8018 14.4332 11.1593 14.9207 11.7768L18.2249 15.9693C19.3407 17.3776 19.2324 18.5042 17.8674 19.7067L15.9932 21.3751C15.8307 21.5159 15.6357 21.581 15.4516 21.581Z" fill="#707BFF"/>
<path d="M13.0078 15.5993C12.5636 15.5993 12.1953 15.2309 12.1953 14.7868V12.0459C12.1953 11.6017 12.5636 11.2334 13.0078 11.2334C13.452 11.2334 13.8203 11.6017 13.8203 12.0459V14.7868C13.8203 15.2418 13.452 15.5993 13.0078 15.5993Z" fill="#707BFF"/>
<path d="M12.9966 6.81436C12.4549 6.81436 11.9132 6.60852 11.5016 6.19686L10.6566 5.35189C9.83323 4.52856 9.83323 3.18521 10.6566 2.36188L11.5016 1.51691C12.3249 0.693581 13.6682 0.693581 14.4916 1.51691L15.3366 2.36188C16.1599 3.18521 16.1599 4.52856 15.3366 5.35189L14.4916 6.19686C14.0799 6.60852 13.5382 6.81436 12.9966 6.81436ZM12.9966 2.52441C12.8666 2.52441 12.7474 2.56774 12.6499 2.66524L11.8049 3.51021C11.7182 3.59688 11.6641 3.72689 11.6641 3.85688C11.6641 3.98689 11.7182 4.10606 11.8049 4.20356L12.6499 5.04853C12.8341 5.23269 13.1591 5.23269 13.3432 5.04853L14.1882 4.20356C14.2749 4.11689 14.3291 3.98689 14.3291 3.85688C14.3291 3.72689 14.2749 3.60771 14.1882 3.51021L13.3432 2.66524C13.2457 2.57858 13.1266 2.52441 12.9966 2.52441Z" fill="#707BFF"/>
<path d="M22.2651 15.2322H21.0734C19.9034 15.2322 18.9609 14.2787 18.9609 13.1196V11.9279C18.9609 10.7579 19.9143 9.81543 21.0734 9.81543H22.2651C23.4351 9.81543 24.3776 10.7688 24.3776 11.9279V13.1196C24.3776 14.2896 23.4243 15.2322 22.2651 15.2322ZM21.0734 11.4404C20.8026 11.4404 20.5859 11.6571 20.5859 11.9279V13.1196C20.5859 13.3904 20.8026 13.6072 21.0734 13.6072H22.2651C22.5359 13.6072 22.7526 13.3904 22.7526 13.1196V11.9279C22.7526 11.6571 22.5359 11.4404 22.2651 11.4404H21.0734Z" fill="#707BFF"/>
<path d="M4.92917 15.2322H3.7375C2.5675 15.2322 1.625 14.2787 1.625 13.1196V11.9279C1.625 10.7579 2.57833 9.81543 3.7375 9.81543H4.92917C6.09917 9.81543 7.04167 10.7688 7.04167 11.9279V13.1196C7.04167 14.2896 6.08834 15.2322 4.92917 15.2322ZM3.7375 11.4404C3.46666 11.4404 3.25 11.6571 3.25 11.9279V13.1196C3.25 13.3904 3.46666 13.6072 3.7375 13.6072H4.92917C5.2 13.6072 5.41667 13.3904 5.41667 13.1196V11.9279C5.41667 11.6571 5.2 11.4404 4.92917 11.4404H3.7375Z" fill="#707BFF"/>
<path d="M20.0827 11.7545C19.8769 11.7545 19.671 11.6787 19.5085 11.5162L13.7669 5.77458C13.4527 5.46041 13.4527 4.94042 13.7669 4.62625C14.081 4.31208 14.601 4.31208 14.9152 4.62625L20.6569 10.3679C20.971 10.6821 20.971 11.2021 20.6569 11.5162C20.4944 11.6787 20.2885 11.7545 20.0827 11.7545Z" fill="#707BFF"/>
<path d="M5.91917 11.7545C5.71333 11.7545 5.5075 11.6787 5.345 11.5162C5.03083 11.2021 5.03083 10.6821 5.345 10.3679L11.0867 4.62625C11.4008 4.31208 11.9208 4.31208 12.235 4.62625C12.5492 4.94042 12.5492 5.46041 12.235 5.77458L6.49333 11.5162C6.33083 11.6787 6.125 11.7545 5.91917 11.7545Z" fill="#707BFF"/>
</svg>
