<svg width="26" height="26" viewBox="0 0 26 26" fill="none" xmlns="http://www.w3.org/2000/svg">
<g clip-path="url(#clip0_411_42924)">
<path d="M2.16406 10.5628C1.7199 10.5628 1.35156 10.1945 1.35156 9.75033V7.04199C1.35156 3.90033 3.90823 1.35449 7.03906 1.35449H9.7474C10.1916 1.35449 10.5599 1.72283 10.5599 2.16699C10.5599 2.61116 10.1916 2.97949 9.7474 2.97949H7.03906C4.79656 2.97949 2.97656 4.79949 2.97656 7.04199V9.75033C2.97656 10.1945 2.60823 10.5628 2.16406 10.5628Z" fill="#707BFF"/>
<path d="M23.8333 10.5628C23.3892 10.5628 23.0208 10.1945 23.0208 9.75033V7.04199C23.0208 4.79949 21.2008 2.97949 18.9583 2.97949H16.25C15.8058 2.97949 15.4375 2.61116 15.4375 2.16699C15.4375 1.72283 15.8058 1.35449 16.25 1.35449H18.9583C22.0892 1.35449 24.6458 3.90033 24.6458 7.04199V9.75033C24.6458 10.1945 24.2775 10.5628 23.8333 10.5628Z" fill="#707BFF"/>
<path d="M18.9609 24.6455H17.3359C16.8918 24.6455 16.5234 24.2772 16.5234 23.833C16.5234 23.3888 16.8918 23.0205 17.3359 23.0205H18.9609C21.2034 23.0205 23.0234 21.2005 23.0234 18.958V17.333C23.0234 16.8888 23.3918 16.5205 23.8359 16.5205C24.2801 16.5205 24.6484 16.8888 24.6484 17.333V18.958C24.6484 22.0997 22.0918 24.6455 18.9609 24.6455Z" fill="#707BFF"/>
<path d="M9.7474 24.6458H7.03906C3.90823 24.6458 1.35156 22.1 1.35156 18.9583V16.25C1.35156 15.8058 1.7199 15.4375 2.16406 15.4375C2.60823 15.4375 2.97656 15.8058 2.97656 16.25V18.9583C2.97656 21.2008 4.79656 23.0208 7.03906 23.0208H9.7474C10.1916 23.0208 10.5599 23.3892 10.5599 23.8333C10.5599 24.2775 10.1916 24.6458 9.7474 24.6458Z" fill="#707BFF"/>
<path d="M9.7526 12.1872H7.58594C6.05844 12.1872 5.14844 11.2772 5.14844 9.74967V7.58301C5.14844 6.05551 6.05844 5.14551 7.58594 5.14551H9.7526C11.2801 5.14551 12.1901 6.05551 12.1901 7.58301V9.74967C12.1901 11.2772 11.2801 12.1872 9.7526 12.1872ZM7.58594 6.77051C6.94677 6.77051 6.77344 6.94384 6.77344 7.58301V9.74967C6.77344 10.3888 6.94677 10.5622 7.58594 10.5622H9.7526C10.3918 10.5622 10.5651 10.3888 10.5651 9.74967V7.58301C10.5651 6.94384 10.3918 6.77051 9.7526 6.77051H7.58594Z" fill="#707BFF"/>
<path d="M18.4167 12.1872H16.25C14.7225 12.1872 13.8125 11.2772 13.8125 9.74967V7.58301C13.8125 6.05551 14.7225 5.14551 16.25 5.14551H18.4167C19.9442 5.14551 20.8542 6.05551 20.8542 7.58301V9.74967C20.8542 11.2772 19.9442 12.1872 18.4167 12.1872ZM16.25 6.77051C15.6108 6.77051 15.4375 6.94384 15.4375 7.58301V9.74967C15.4375 10.3888 15.6108 10.5622 16.25 10.5622H18.4167C19.0558 10.5622 19.2292 10.3888 19.2292 9.74967V7.58301C19.2292 6.94384 19.0558 6.77051 18.4167 6.77051H16.25Z" fill="#707BFF"/>
<path d="M9.7526 20.8542H7.58594C6.05844 20.8542 5.14844 19.9442 5.14844 18.4167V16.25C5.14844 14.7225 6.05844 13.8125 7.58594 13.8125H9.7526C11.2801 13.8125 12.1901 14.7225 12.1901 16.25V18.4167C12.1901 19.9442 11.2801 20.8542 9.7526 20.8542ZM7.58594 15.4375C6.94677 15.4375 6.77344 15.6108 6.77344 16.25V18.4167C6.77344 19.0558 6.94677 19.2292 7.58594 19.2292H9.7526C10.3918 19.2292 10.5651 19.0558 10.5651 18.4167V16.25C10.5651 15.6108 10.3918 15.4375 9.7526 15.4375H7.58594Z" fill="#707BFF"/>
<path d="M18.4167 20.8542H16.25C14.7225 20.8542 13.8125 19.9442 13.8125 18.4167V16.25C13.8125 14.7225 14.7225 13.8125 16.25 13.8125H18.4167C19.9442 13.8125 20.8542 14.7225 20.8542 16.25V18.4167C20.8542 19.9442 19.9442 20.8542 18.4167 20.8542ZM16.25 15.4375C15.6108 15.4375 15.4375 15.6108 15.4375 16.25V18.4167C15.4375 19.0558 15.6108 19.2292 16.25 19.2292H18.4167C19.0558 19.2292 19.2292 19.0558 19.2292 18.4167V16.25C19.2292 15.6108 19.0558 15.4375 18.4167 15.4375H16.25Z" fill="#707BFF"/>
</g>
<defs>
<clipPath id="clip0_411_42924">
<rect width="26" height="26" fill="white"/>
</clipPath>
</defs>
</svg>
