<svg width="41" height="41" viewBox="0 0 41 41" fill="none" xmlns="http://www.w3.org/2000/svg">
<path fill-rule="evenodd" clip-rule="evenodd" d="M26.8145 28.9421H14.5618C13.8593 28.9421 13.2891 28.3718 13.2891 27.6693C13.2891 26.9667 13.8593 26.3965 14.5618 26.3965H26.8145C27.5171 26.3965 28.0873 26.9667 28.0873 27.6693C28.0873 28.3718 27.5171 28.9421 26.8145 28.9421Z" fill="#767C83"/>
<path fill-rule="evenodd" clip-rule="evenodd" d="M26.8145 21.8371H14.5618C13.8593 21.8371 13.2891 21.2669 13.2891 20.5643C13.2891 19.8617 13.8593 19.2915 14.5618 19.2915H26.8145C27.5171 19.2915 28.0873 19.8617 28.0873 20.5643C28.0873 21.2669 27.5171 21.8371 26.8145 21.8371Z" fill="#767C83"/>
<path fill-rule="evenodd" clip-rule="evenodd" d="M19.2372 14.7492H14.5618C13.8593 14.7492 13.2891 14.179 13.2891 13.4764C13.2891 12.7738 13.8593 12.2036 14.5618 12.2036H19.2372C19.9398 12.2036 20.51 12.7738 20.51 13.4764C20.51 14.179 19.9398 14.7492 19.2372 14.7492Z" fill="#767C83"/>
<mask id="mask0_411_43041" style="mask-type:luminance" maskUnits="userSpaceOnUse" x="5" y="3" width="32" height="35">
<path fill-rule="evenodd" clip-rule="evenodd" d="M5.23438 3.53125H36.0608V37.3191H5.23438V3.53125Z" fill="white"/>
</mask>
<g mask="url(#mask0_411_43041)">
<path fill-rule="evenodd" clip-rule="evenodd" d="M27.1416 6.07633L14.093 6.08312C10.1422 6.10688 7.77995 8.55063 7.77995 12.6219V28.2279C7.77995 32.3263 10.1643 34.7734 14.1541 34.7734L27.2027 34.7683C31.1534 34.7446 33.5157 32.2974 33.5157 28.2279V12.6219C33.5157 8.52348 31.133 6.07633 27.1416 6.07633ZM14.1558 37.319C8.82024 37.319 5.23438 33.6653 5.23438 28.2279V12.6219C5.23438 7.13529 8.70823 3.56979 14.0845 3.53755L27.1399 3.53076H27.1416C32.4771 3.53076 36.0613 7.18451 36.0613 12.6219V28.2279C36.0613 33.7128 32.5874 37.28 27.2112 37.3139L14.1558 37.319Z" fill="#767C83"/>
</g>
</svg>
