<svg width="44" height="44" viewBox="0 0 44 44" fill="none" xmlns="http://www.w3.org/2000/svg">
<path d="M22.2185 41.5786C11.5395 41.5786 2.85938 32.8985 2.85938 22.2195C2.85938 11.5404 11.5395 2.86035 22.2185 2.86035C32.8975 2.86035 41.5776 11.5404 41.5776 22.2195C41.5776 32.8985 32.8975 41.5786 22.2185 41.5786ZM22.2185 5.56162C13.0342 5.56162 5.56065 13.0351 5.56065 22.2195C5.56065 31.4038 13.0342 38.8773 22.2185 38.8773C31.4028 38.8773 38.8763 31.4038 38.8763 22.2195C38.8763 13.0351 31.4028 5.56162 22.2185 5.56162Z" fill="#767C83"/>
<path d="M16.8167 39.7777H15.0159C14.2775 39.7777 13.6653 39.1654 13.6653 38.427C13.6653 37.6887 14.2415 37.0944 14.9799 37.0764C12.1525 27.4238 12.1525 17.0149 14.9799 7.3624C14.2415 7.3444 13.6653 6.75012 13.6653 6.01177C13.6653 5.27342 14.2775 4.66113 15.0159 4.66113H16.8167C17.2489 4.66113 17.6631 4.87723 17.9153 5.2194C18.1674 5.57956 18.2394 6.02978 18.0953 6.44397C14.7097 16.6188 14.7097 27.82 18.0953 38.0128C18.2394 38.427 18.1674 38.8772 17.9153 39.2374C17.6631 39.5616 17.2489 39.7777 16.8167 39.7777Z" fill="#767C83"/>
<path d="M27.6205 39.7773C27.4764 39.7773 27.3324 39.7593 27.1883 39.7053C26.486 39.4712 26.0898 38.6968 26.3419 37.9945C29.7275 27.8197 29.7275 16.6184 26.3419 6.42561C26.1078 5.72328 26.486 4.94892 27.1883 4.71481C27.9086 4.48069 28.665 4.85887 28.8991 5.5612C32.4828 16.2943 32.4828 28.1078 28.8991 38.8229C28.719 39.4171 28.1788 39.7773 27.6205 39.7773Z" fill="#767C83"/>
<path d="M22.2223 31.5834C17.198 31.5834 12.1916 30.8811 7.36533 29.4584C7.34733 30.1788 6.75305 30.773 6.0147 30.773C5.27635 30.773 4.66406 30.1608 4.66406 29.4224V27.6216C4.66406 27.1894 4.88016 26.7752 5.22233 26.523C5.58249 26.2709 6.03271 26.1989 6.4469 26.343C16.6217 29.7286 27.841 29.7286 38.0158 26.343C38.43 26.1989 38.8802 26.2709 39.2403 26.523C39.6005 26.7752 39.7986 27.1894 39.7986 27.6216V29.4224C39.7986 30.1608 39.1863 30.773 38.448 30.773C37.7096 30.773 37.1153 30.1968 37.0973 29.4584C32.253 30.8811 27.2467 31.5834 22.2223 31.5834Z" fill="#767C83"/>
<path d="M38.4288 18.1676C38.2847 18.1676 38.1407 18.1496 37.9966 18.0956C27.8218 14.71 16.6025 14.71 6.42773 18.0956C5.70739 18.3297 4.95103 17.9515 4.71692 17.2492C4.50082 16.5288 4.879 15.7725 5.58133 15.5384C16.3144 11.9547 28.1279 11.9547 38.843 15.5384C39.5453 15.7725 39.9415 16.5468 39.6894 17.2492C39.5273 17.8074 38.9871 18.1676 38.4288 18.1676Z" fill="#767C83"/>
</svg>
