<svg width="41" height="41" viewBox="0 0 41 41" fill="none" xmlns="http://www.w3.org/2000/svg">
<mask id="mask0_411_43034" style="mask-type:luminance" maskUnits="userSpaceOnUse" x="3" y="3" width="35" height="35">
<path fill-rule="evenodd" clip-rule="evenodd" d="M3.53906 3.53125H37.4115V37.387H3.53906V3.53125Z" fill="white"/>
</mask>
<g mask="url(#mask0_411_43034)">
<path fill-rule="evenodd" clip-rule="evenodd" d="M13.1274 6.07682C8.84913 6.07682 6.08464 9.00763 6.08464 13.5421V27.3765C6.08464 31.9127 8.84913 34.8418 13.1274 34.8418H27.8069C32.0953 34.8418 34.8666 31.9127 34.8666 27.3765V13.5421C34.8666 9.00763 32.0953 6.07682 27.8069 6.07682H13.1274ZM27.8069 37.3874H13.1274C7.39136 37.3874 3.53906 33.3637 3.53906 27.3765V13.5421C3.53906 7.55495 7.39136 3.53125 13.1274 3.53125H27.8069C33.5514 3.53125 37.4122 7.55495 37.4122 13.5421V27.3765C37.4122 33.3637 33.5514 37.3874 27.8069 37.3874Z" fill="#767C83"/>
</g>
<path fill-rule="evenodd" clip-rule="evenodd" d="M9.10873 29.293C8.79308 29.293 8.47913 29.1776 8.23306 28.9434C7.72225 28.4614 7.70188 27.6536 8.18554 27.1462L10.7786 24.4089C12.1515 22.9511 14.468 22.8798 15.9326 24.2544L17.5583 25.904C18.0115 26.3622 18.748 26.3707 19.2028 25.9226C19.3742 25.7207 23.0704 21.232 23.0704 21.232C23.7729 20.3801 24.764 19.854 25.8654 19.7454C26.9685 19.6487 28.0393 19.9694 28.8929 20.6703C28.9659 20.7297 29.0321 20.7874 32.7588 24.6142C33.2492 25.1165 33.2408 25.9226 32.7367 26.4131C32.2344 26.9069 31.4266 26.8917 30.9362 26.3893C30.9362 26.3893 27.4589 22.8204 27.2111 22.5795C26.9481 22.3639 26.5255 22.2383 26.1098 22.2791C25.6872 22.3215 25.3071 22.5235 25.0372 22.851C21.0933 27.635 21.0458 27.6808 20.9813 27.7436C19.5252 29.1725 17.1748 29.1487 15.7442 27.6893C15.7442 27.6893 14.1659 26.0873 14.1388 26.055C13.7468 25.6918 13.0476 25.7156 12.6284 26.1585L10.0319 28.8959C9.78077 29.1606 9.44475 29.293 9.10873 29.293Z" fill="#767C83"/>
<path fill-rule="evenodd" clip-rule="evenodd" d="M14.6696 13.9323C13.7311 13.9323 12.9674 14.696 12.9674 15.6361C12.9674 16.5763 13.7311 17.3417 14.6713 17.3417C15.6115 17.3417 16.3768 16.5763 16.3768 15.6361C16.3768 14.6977 15.6115 13.934 14.6696 13.9323ZM14.6713 19.8872C12.3277 19.8872 10.4219 17.9798 10.4219 15.6361C10.4219 13.2925 12.3277 11.3867 14.6713 11.3867C17.0166 11.3884 18.9224 13.2959 18.9224 15.6361C18.9224 17.9798 17.0149 19.8872 14.6713 19.8872Z" fill="#767C83"/>
</svg>
