<svg width="41" height="41" viewBox="0 0 41 41" fill="none" xmlns="http://www.w3.org/2000/svg">
<path d="M25.5888 38.7444H15.4065C7.92248 38.7444 5.64844 36.4703 5.64844 28.9863V12.0158C5.64844 4.53186 7.92248 2.25781 15.4065 2.25781H25.5888C33.0727 2.25781 35.3468 4.53186 35.3468 12.0158V28.9863C35.3468 36.4703 33.0727 38.7444 25.5888 38.7444ZM15.4065 4.80339C9.33103 4.80339 8.19401 5.95738 8.19401 12.0158V28.9863C8.19401 35.0448 9.33103 36.1988 15.4065 36.1988H25.5888C31.6642 36.1988 32.8012 35.0448 32.8012 28.9863V12.0158C32.8012 5.95738 31.6642 4.80339 25.5888 4.80339H15.4065Z" fill="#767C83"/>
<path d="M23.8891 10.7433H17.1009C16.4051 10.7433 15.8281 10.1663 15.8281 9.47054C15.8281 8.77475 16.4051 8.19775 17.1009 8.19775H23.8891C24.5849 8.19775 25.1619 8.77475 25.1619 9.47054C25.1619 10.1663 24.5849 10.7433 23.8891 10.7433Z" fill="#767C83"/>
<path d="M20.497 33.8401C18.3417 33.8401 16.5938 32.0922 16.5938 29.9369C16.5938 27.7817 18.3417 26.0337 20.497 26.0337C22.6522 26.0337 24.4002 27.7817 24.4002 29.9369C24.4002 32.0922 22.6522 33.8401 20.497 33.8401ZM20.497 28.5623C19.7503 28.5623 19.1393 29.1732 19.1393 29.9199C19.1393 30.6666 19.7503 31.2776 20.497 31.2776C21.2437 31.2776 21.8546 30.6666 21.8546 29.9199C21.8546 29.1732 21.2437 28.5623 20.497 28.5623Z" fill="#767C83"/>
</svg>
