<svg width="41" height="41" viewBox="0 0 41 41" fill="none" xmlns="http://www.w3.org/2000/svg">
<path d="M10.802 38.7445C7.18724 38.7445 4.23438 35.7917 4.23438 32.177C4.23438 28.5622 7.18724 25.6094 10.802 25.6094C14.4167 25.6094 17.3695 28.5622 17.3695 32.177C17.3695 35.7917 14.4167 38.7445 10.802 38.7445ZM10.802 28.1549C8.57882 28.1549 6.77995 29.9538 6.77995 32.177C6.77995 34.4001 8.57882 36.199 10.802 36.199C13.0251 36.199 14.824 34.4001 14.824 32.177C14.824 29.9538 13.0251 28.1549 10.802 28.1549Z" fill="#767C83"/>
<path d="M16.0931 33.4497C15.3973 33.4497 14.8203 32.8727 14.8203 32.1769V10.8281C14.8203 8.14673 16.4325 6.04239 19.012 5.3466L29.6016 2.46161C31.7569 1.86765 33.5727 2.08826 34.8455 3.07255C36.1352 4.05684 36.7801 5.70298 36.7801 7.96005V28.664C36.7801 29.3598 36.2031 29.9368 35.5073 29.9368C34.8115 29.9368 34.2346 29.3598 34.2346 28.664V7.94308C34.2346 6.95879 34.0648 5.66904 33.3012 5.09204C32.4696 4.44716 31.0441 4.70172 30.2635 4.92233L19.6739 7.80732C18.1974 8.21461 17.3659 9.31769 17.3659 10.845V32.1939C17.3659 32.8727 16.7889 33.4497 16.0931 33.4497Z" fill="#767C83"/>
<path d="M30.216 35.2147C26.6013 35.2147 23.6484 32.2619 23.6484 28.6472C23.6484 25.0325 26.6013 22.0796 30.216 22.0796C33.8307 22.0796 36.7836 25.0325 36.7836 28.6472C36.7836 32.2619 33.8307 35.2147 30.216 35.2147ZM30.216 24.6252C27.9929 24.6252 26.194 26.424 26.194 28.6472C26.194 30.8703 27.9929 32.6692 30.216 32.6692C32.4391 32.6692 34.238 30.8703 34.238 28.6472C34.238 26.424 32.4391 24.6252 30.216 24.6252Z" fill="#767C83"/>
<path d="M16.0966 17.5656C15.5366 17.5656 15.0275 17.1923 14.8747 16.6323C14.688 15.9534 15.0784 15.2407 15.7572 15.054L35.1714 9.75921C35.8502 9.57253 36.546 9.97982 36.7327 10.6586C36.9194 11.3375 36.5121 12.0333 35.8333 12.2199L16.436 17.5147C16.3172 17.5487 16.1984 17.5656 16.0966 17.5656Z" fill="#767C83"/>
</svg>
