<svg width="41" height="41" viewBox="0 0 41 41" fill="none" xmlns="http://www.w3.org/2000/svg">
<path d="M8.625 32.3809V37.472H32.3837V32.3809" stroke="#767C83" stroke-width="2" stroke-linecap="round" stroke-linejoin="round"/>
<path d="M32.3837 17.1057V12.0145L25.5955 3.5293H8.625V17.1057" stroke="#767C83" stroke-width="2" stroke-linecap="round" stroke-linejoin="round"/>
<path d="M23.8984 3.5293V12.0145H32.3837" stroke="#767C83" stroke-width="2" stroke-linecap="round" stroke-linejoin="round"/>
<path d="M35.7752 17.1074H5.2283C4.29104 17.1074 3.53125 17.8672 3.53125 18.8045V30.6838C3.53125 31.6211 4.29104 32.3809 5.2283 32.3809H35.7752C36.7124 32.3809 37.4722 31.6211 37.4722 30.6838V18.8045C37.4722 17.8672 36.7124 17.1074 35.7752 17.1074Z" stroke="#767C83" stroke-width="2" stroke-linejoin="round"/>
<path d="M17.9609 21.3496V28.1378" stroke="#767C83" stroke-width="2" stroke-linecap="round"/>
<path d="M8.625 21.3496V28.1378" stroke="#767C83" stroke-width="2" stroke-linecap="round"/>
<path d="M27.2969 28.1378V21.3496H31.5395" stroke="#767C83" stroke-width="2" stroke-linecap="round" stroke-linejoin="round"/>
<path d="M27.2969 25.5938H31.5395" stroke="#767C83" stroke-width="2" stroke-linecap="round" stroke-linejoin="round"/>
<path d="M8.625 21.3496H11.5948C12.7664 21.3496 13.7161 22.2994 13.7161 23.4709C13.7161 24.6425 12.7664 25.5922 11.5948 25.5922H8.625" stroke="#767C83" stroke-width="2" stroke-linecap="round" stroke-linejoin="round"/>
<path d="M17.9609 21.3496H19.658C21.5325 21.3496 23.0521 22.8692 23.0521 24.7437C23.0521 26.6182 21.5325 28.1378 19.658 28.1378H17.9609" stroke="#767C83" stroke-width="2" stroke-linecap="round" stroke-linejoin="round"/>
<path d="M13.7188 10.3203H17.1128" stroke="#767C83" stroke-width="2" stroke-linecap="round"/>
</svg>
