<svg width="41" height="41" viewBox="0 0 41 41" fill="none" xmlns="http://www.w3.org/2000/svg">
<path d="M28.9941 37.0475H12.0237C4.53967 37.0475 2.26562 34.7735 2.26562 27.2895V13.7131C2.26562 6.22912 4.53967 3.95508 12.0237 3.95508H28.9941C36.4781 3.95508 38.7522 6.22912 38.7522 13.7131V27.2895C38.7522 34.7735 36.4781 37.0475 28.9941 37.0475ZM12.0237 6.50065C5.94822 6.50065 4.8112 7.65464 4.8112 13.7131V27.2895C4.8112 33.348 5.94822 34.502 12.0237 34.502H28.9941C35.0696 34.502 36.2066 33.348 36.2066 27.2895V13.7131C36.2066 7.65464 35.0696 6.50065 28.9941 6.50065H12.0237Z" fill="url(#paint0_linear_411_43020)"/>
<path d="M32.383 14.986H23.8978C23.202 14.986 22.625 14.409 22.625 13.7132C22.625 13.0174 23.202 12.4404 23.8978 12.4404H32.383C33.0788 12.4404 33.6558 13.0174 33.6558 13.7132C33.6558 14.409 33.0788 14.986 32.383 14.986Z" fill="url(#paint1_linear_411_43020)"/>
<path d="M32.3813 21.7741H25.5931C24.8973 21.7741 24.3203 21.1971 24.3203 20.5013C24.3203 19.8055 24.8973 19.2285 25.5931 19.2285H32.3813C33.0771 19.2285 33.6541 19.8055 33.6541 20.5013C33.6541 21.1971 33.0771 21.7741 32.3813 21.7741Z" fill="url(#paint2_linear_411_43020)"/>
<path d="M32.3856 28.5622H28.9915C28.2957 28.5622 27.7188 27.9852 27.7188 27.2894C27.7188 26.5936 28.2957 26.0166 28.9915 26.0166H32.3856C33.0814 26.0166 33.6584 26.5936 33.6584 27.2894C33.6584 27.9852 33.0814 28.5622 32.3856 28.5622Z" fill="url(#paint3_linear_411_43020)"/>
<path d="M14.5632 20.5693C12.1704 20.5693 10.2188 18.6177 10.2188 16.2248C10.2188 13.832 12.1704 11.8804 14.5632 11.8804C16.956 11.8804 18.9076 13.832 18.9076 16.2248C18.9076 18.6177 16.956 20.5693 14.5632 20.5693ZM14.5632 14.4259C13.5789 14.4259 12.7643 15.2405 12.7643 16.2248C12.7643 17.2091 13.5789 18.0237 14.5632 18.0237C15.5475 18.0237 16.3621 17.2091 16.3621 16.2248C16.3621 15.2405 15.5475 14.4259 14.5632 14.4259Z" fill="url(#paint4_linear_411_43020)"/>
<path d="M20.5033 29.1222C19.8584 29.1222 19.2984 28.63 19.2305 27.9682C19.0438 26.1354 17.5674 24.6589 15.7176 24.4892C14.937 24.4213 14.1563 24.4213 13.3757 24.4892C11.5259 24.6589 10.0495 26.1184 9.8628 27.9682C9.79492 28.664 9.16701 29.19 8.47122 29.1052C7.77543 29.0373 7.26631 28.4094 7.3342 27.7136C7.63967 24.6589 10.0664 22.2321 13.1381 21.9606C14.0715 21.8758 15.0218 21.8758 15.9552 21.9606C19.0099 22.2491 21.4536 24.6759 21.7591 27.7136C21.827 28.4094 21.3179 29.0373 20.6221 29.1052C20.5881 29.1222 20.5372 29.1222 20.5033 29.1222Z" fill="url(#paint5_linear_411_43020)"/>
<defs>
<linearGradient id="paint0_linear_411_43020" x1="38.7522" y1="37.0475" x2="-5.72608" y2="30.7517" gradientUnits="userSpaceOnUse">
<stop stop-color="#28C254"/>
<stop offset="1" stop-color="#25B567"/>
</linearGradient>
<linearGradient id="paint1_linear_411_43020" x1="33.6558" y1="14.986" x2="23.1813" y2="9.15879" gradientUnits="userSpaceOnUse">
<stop stop-color="#28C254"/>
<stop offset="1" stop-color="#25B567"/>
</linearGradient>
<linearGradient id="paint2_linear_411_43020" x1="33.6541" y1="21.7741" x2="24.1532" y2="17.3017" gradientUnits="userSpaceOnUse">
<stop stop-color="#28C254"/>
<stop offset="1" stop-color="#25B567"/>
</linearGradient>
<linearGradient id="paint3_linear_411_43020" x1="33.6584" y1="28.5622" x2="26.8809" y2="26.5319" gradientUnits="userSpaceOnUse">
<stop stop-color="#28C254"/>
<stop offset="1" stop-color="#25B567"/>
</linearGradient>
<linearGradient id="paint4_linear_411_43020" x1="18.9076" y1="20.5693" x2="8.27857" y2="19.2047" gradientUnits="userSpaceOnUse">
<stop stop-color="#28C254"/>
<stop offset="1" stop-color="#25B567"/>
</linearGradient>
<linearGradient id="paint5_linear_411_43020" x1="21.7652" y1="29.1222" x2="4.92174" y2="24.8013" gradientUnits="userSpaceOnUse">
<stop stop-color="#28C254"/>
<stop offset="1" stop-color="#25B567"/>
</linearGradient>
</defs>
</svg>
