<svg width="41" height="41" viewBox="0 0 41 41" fill="none" xmlns="http://www.w3.org/2000/svg">
<path fill-rule="evenodd" clip-rule="evenodd" d="M20.9182 6.07633C12.7299 6.07633 6.06901 12.7373 6.06901 20.9255C6.06901 29.1138 12.7299 35.7747 20.9182 35.7747C29.1064 35.7747 35.7674 29.1138 35.7674 20.9255C35.7674 12.7373 29.1064 6.07633 20.9182 6.07633ZM20.9182 38.3203C11.3265 38.3203 3.52344 30.5172 3.52344 20.9255C3.52344 11.3338 11.3265 3.53076 20.9182 3.53076C30.5099 3.53076 38.3129 11.3338 38.3129 20.9255C38.3129 30.5172 30.5099 38.3203 20.9182 38.3203Z" fill="#767C83"/>
<path fill-rule="evenodd" clip-rule="evenodd" d="M19.023 17.2537C18.7226 18.9525 18.7175 23.0101 19.0179 24.6223C20.5079 24.0962 23.7357 21.9749 24.6046 20.9244C23.7391 19.9045 20.552 17.8273 19.023 17.2537ZM18.5037 27.2918C18.0455 27.2918 17.611 27.1611 17.2564 26.8081C16.9831 26.5383 16.2534 25.817 16.25 21.067C16.2483 16.0234 17.0069 15.2733 17.2564 15.0238C18.1439 14.1447 19.5898 14.7472 20.2058 15.0051C21.0883 15.3734 27.2808 18.5452 27.2808 20.9177C27.2808 23.1408 21.7077 26.2498 20.2839 26.8437C19.729 27.0745 19.096 27.2918 18.5037 27.2918Z" fill="#767C83"/>
</svg>
