<svg width="41" height="41" viewBox="0 0 41 41" fill="none" xmlns="http://www.w3.org/2000/svg">
<path d="M28.9941 35.3507H12.0237C4.53967 35.3507 2.26562 33.0767 2.26562 25.5927V24.7441C2.26562 24.0484 2.84262 23.4714 3.53841 23.4714C5.16758 23.4714 6.50825 22.1307 6.50825 20.5015C6.50825 18.8724 5.16758 17.5317 3.53841 17.5317C2.84262 17.5317 2.26562 16.9547 2.26562 16.2589V15.4104C2.26562 7.92639 4.53967 5.65234 12.0237 5.65234H28.9941C36.4781 5.65234 38.7522 7.92639 38.7522 15.4104V17.1074C38.7522 17.8032 38.1752 18.3802 37.4794 18.3802C35.8502 18.3802 34.5095 19.7209 34.5095 21.35C34.5095 22.9792 35.8502 24.3199 37.4794 24.3199C38.1752 24.3199 38.7522 24.8969 38.7522 25.5927C38.7522 33.0767 36.4781 35.3507 28.9941 35.3507ZM4.8112 25.8642C4.84514 31.702 6.05004 32.8051 12.0237 32.8051H28.9941C34.6623 32.8051 36.0369 31.8039 36.1896 26.7127C33.7628 26.1357 31.964 23.9465 31.964 21.35C31.964 18.7536 33.7798 16.5644 36.2066 15.9874V15.4104C36.2066 9.35191 35.0526 8.19792 28.9941 8.19792H12.0237C6.05004 8.19792 4.84514 9.301 4.8112 15.1388C7.23798 15.7158 9.05382 17.905 9.05382 20.5015C9.05382 23.098 7.23798 25.2872 4.8112 25.8642Z" fill="#767C83"/>
<path d="M25.5968 27.086C24.6465 27.086 23.8828 26.3223 23.8828 25.3889C23.8828 24.4556 24.6465 23.6919 25.5799 23.6919C26.5132 23.6919 27.2769 24.4556 27.2769 25.3889C27.2769 26.3223 26.5472 27.086 25.5968 27.086Z" fill="#767C83"/>
<path d="M15.4171 18.6006C14.4668 18.6006 13.7031 17.837 13.7031 16.9036C13.7031 15.9702 14.4668 15.2065 15.4002 15.2065C16.3336 15.2065 17.0972 15.9702 17.0972 16.9036C17.0972 17.837 16.3675 18.6006 15.4171 18.6006Z" fill="#767C83"/>
<path d="M14.7842 28.0191C14.4617 28.0191 14.1393 27.9003 13.8847 27.6458C13.3926 27.1536 13.3926 26.339 13.8847 25.8469L25.3059 14.4257C25.798 13.9336 26.6126 13.9336 27.1047 14.4257C27.5969 14.9179 27.5969 15.7325 27.1047 16.2246L15.6836 27.6458C15.446 27.9003 15.1066 28.0191 14.7842 28.0191Z" fill="#767C83"/>
</svg>
