<svg width="41" height="41" viewBox="0 0 41 41" fill="none" xmlns="http://www.w3.org/2000/svg">
<path fill-rule="evenodd" clip-rule="evenodd" d="M30.4903 20.7497C29.8658 20.7497 29.321 20.2898 29.2311 19.6534C29.1343 18.9559 29.618 18.3128 30.3155 18.216C32.0804 17.9683 33.4126 16.4375 33.416 14.6522C33.416 12.8822 32.1466 11.3854 30.3969 11.0986C29.7045 10.9849 29.2345 10.3299 29.3482 9.63576C29.4636 8.94167 30.1135 8.47667 30.811 8.58698C33.7944 9.07743 35.9616 11.6298 35.9616 14.6556C35.9548 17.7018 33.679 20.3153 30.6668 20.7379C30.6074 20.7463 30.548 20.7497 30.4903 20.7497Z" fill="#767C83"/>
<mask id="mask0_411_43027" style="mask-type:luminance" maskUnits="userSpaceOnUse" x="32" y="23" width="7" height="9">
<path fill-rule="evenodd" clip-rule="evenodd" d="M32.3438 23.8979H38.7823V31.5848H32.3438V23.8979Z" fill="white"/>
</mask>
<g mask="url(#mask0_411_43027)">
<path fill-rule="evenodd" clip-rule="evenodd" d="M35.5398 31.5848C35.0272 31.5848 34.5436 31.2726 34.3501 30.7652C34.099 30.1084 34.4299 29.3719 35.0866 29.1224C36.2372 28.6846 36.2372 28.2009 36.2372 27.9684C36.2372 27.2251 35.292 26.7058 33.4286 26.4275C32.7345 26.3223 32.2543 25.6757 32.3578 24.9782C32.4613 24.2824 33.1062 23.8192 33.8071 23.9091C37.919 24.5251 38.7828 26.4564 38.7828 27.9684C38.7828 28.8916 38.4196 30.5768 35.9929 31.5017C35.8435 31.5577 35.6908 31.5848 35.5398 31.5848Z" fill="#767C83"/>
</g>
<path fill-rule="evenodd" clip-rule="evenodd" d="M20.3074 27.1432C16.2752 27.1432 11.4674 27.6388 11.4674 29.9977C11.4674 32.3752 16.2752 32.8742 20.3074 32.8742C24.3396 32.8742 29.1456 32.3803 29.1456 30.0265C29.1456 27.6439 24.3396 27.1432 20.3074 27.1432ZM20.3074 35.4197C17.492 35.4197 8.92188 35.4197 8.92188 29.9977C8.92188 24.5977 17.492 24.5977 20.3074 24.5977C23.1228 24.5977 31.6912 24.5977 31.6912 30.0265C31.6912 35.4197 23.4215 35.4197 20.3074 35.4197Z" fill="#767C83"/>
<path fill-rule="evenodd" clip-rule="evenodd" d="M20.3147 9.47038C17.4433 9.47038 15.1081 11.8072 15.1081 14.6786C15.103 16.0702 15.6359 17.3718 16.6117 18.3544C17.5875 19.337 18.8875 19.8818 20.2723 19.8869L20.3147 21.1596V19.8869C23.1861 19.8869 25.5229 17.5517 25.5229 14.6786C25.5229 11.8072 23.1861 9.47038 20.3147 9.47038ZM20.3147 22.4324H20.2689C18.1985 22.4256 16.2587 21.6145 14.8061 20.1482C13.35 18.6837 12.5541 16.7388 12.5626 14.6735C12.5626 10.4038 16.0398 6.9248 20.3147 6.9248C24.5912 6.9248 28.0685 10.4038 28.0685 14.6786C28.0685 18.9535 24.5912 22.4324 20.3147 22.4324Z" fill="#767C83"/>
<path fill-rule="evenodd" clip-rule="evenodd" d="M10.1258 20.75C10.0681 20.75 10.0087 20.7467 9.94934 20.7382C6.93708 20.3156 4.66304 17.7022 4.65625 14.6593C4.65625 11.6301 6.82338 9.07775 9.80679 8.5873C10.5213 8.4753 11.1542 8.94538 11.2696 9.63608C11.3834 10.3302 10.9133 10.9852 10.2209 11.0989C8.47122 11.3857 7.20182 12.8825 7.20182 14.6559C7.20522 16.4378 8.5374 17.9703 10.3006 18.2164C10.9981 18.3131 11.4818 18.9563 11.385 19.6538C11.2951 20.2901 10.7504 20.75 10.1258 20.75Z" fill="#767C83"/>
<path fill-rule="evenodd" clip-rule="evenodd" d="M5.08069 31.585C4.92966 31.585 4.77692 31.5578 4.62758 31.5018C2.19911 30.5752 1.83594 28.8901 1.83594 27.9686C1.83594 26.4582 2.69974 24.5253 6.81338 23.9092C7.51426 23.821 8.15575 24.2826 8.26096 24.9784C8.36448 25.6759 7.88422 26.3224 7.19013 26.4276C5.32677 26.706 4.38151 27.2253 4.38151 27.9686C4.38151 28.2011 4.38151 28.683 5.53381 29.1226C6.19056 29.372 6.52149 30.1085 6.27033 30.7653C6.07686 31.2727 5.5932 31.585 5.08069 31.585Z" fill="#767C83"/>
</svg>
