<svg width="41" height="41" viewBox="0 0 41 41" fill="none" xmlns="http://www.w3.org/2000/svg">
<path d="M30.6908 18.3122C30.4193 18.3122 30.1477 18.2274 29.9102 18.0407C24.1911 13.6284 16.8089 13.6284 11.1069 18.0407C10.5468 18.465 9.74923 18.3631 9.32497 17.8201C8.9007 17.2601 9.00252 16.4624 9.54558 16.0382C16.198 10.8961 24.802 10.8961 31.4714 16.0382C32.0315 16.4624 32.1333 17.2601 31.6921 17.8201C31.4545 18.1425 31.0642 18.3122 30.6908 18.3122Z" fill="#767C83"/>
<path d="M27.9725 23.5559C27.701 23.5559 27.4295 23.471 27.1919 23.2843C23.119 20.1448 17.8751 20.1448 13.8022 23.2843C13.2422 23.7086 12.4445 23.6068 12.0203 23.0637C11.596 22.5037 11.6978 21.7061 12.2409 21.2818C17.2472 17.4126 23.7299 17.4126 28.7362 21.2818C29.2962 21.7061 29.3981 22.5037 28.9568 23.0637C28.7362 23.3862 28.3629 23.5559 27.9725 23.5559Z" fill="#767C83"/>
<path d="M24.2399 28.8C23.9684 28.8 23.6968 28.7152 23.4593 28.5285C21.6604 27.1369 19.3354 27.1369 17.5366 28.5285C16.9765 28.9527 16.1789 28.8509 15.7546 28.3079C15.3304 27.7479 15.4322 26.9502 15.9753 26.526C18.6736 24.4386 22.3053 24.4386 25.0036 26.526C25.5636 26.9502 25.6654 27.7479 25.2242 28.3079C25.0036 28.6303 24.6302 28.8 24.2399 28.8Z" fill="#767C83"/>
<path d="M25.6 38.7444H15.4178C6.20278 38.7444 2.26562 34.8072 2.26562 25.5922V15.4099C2.26562 6.19497 6.20278 2.25781 15.4178 2.25781H25.6C34.815 2.25781 38.7522 6.19497 38.7522 15.4099V25.5922C38.7522 34.8072 34.815 38.7444 25.6 38.7444ZM15.4178 4.80339C7.59436 4.80339 4.8112 7.58654 4.8112 15.4099V25.5922C4.8112 33.4156 7.59436 36.1988 15.4178 36.1988H25.6C33.4234 36.1988 36.2066 33.4156 36.2066 25.5922V15.4099C36.2066 7.58654 33.4234 4.80339 25.6 4.80339H15.4178Z" fill="#767C83"/>
</svg>
