<svg width="41" height="41" viewBox="0 0 41 41" fill="none" xmlns="http://www.w3.org/2000/svg">
<path fill-rule="evenodd" clip-rule="evenodd" d="M20.4837 29.7108C19.7811 29.7108 19.2109 29.1406 19.2109 28.4381V24.1326C19.2109 23.4301 19.7811 22.8599 20.4837 22.8599C21.1863 22.8599 21.7565 23.4301 21.7565 24.1326V28.4381C21.7565 29.1406 21.1863 29.7108 20.4837 29.7108Z" fill="#767C83"/>
<mask id="mask0_411_42988" style="mask-type:luminance" maskUnits="userSpaceOnUse" x="3" y="7" width="35" height="19">
<path fill-rule="evenodd" clip-rule="evenodd" d="M3.52344 7.90918H37.4471V25.4074H3.52344V7.90918Z" fill="white"/>
</mask>
<g mask="url(#mask0_411_42988)">
<path fill-rule="evenodd" clip-rule="evenodd" d="M6.06901 19.4712C10.1012 21.6621 15.1856 22.8619 20.477 22.8619C25.7785 22.8619 30.868 21.6621 34.9019 19.4712V14.3766C34.9019 12.2129 33.1522 10.4548 30.9987 10.4548H9.98919C7.82715 10.4548 6.06901 12.2061 6.06901 14.3597V19.4712ZM20.477 25.4074C14.4609 25.4074 8.6621 23.9514 4.15304 21.3108C3.76272 21.0834 3.52344 20.6659 3.52344 20.2128V14.3597C3.52344 10.8026 6.42369 7.90918 9.98919 7.90918H30.9987C34.5557 7.90918 37.4474 10.8094 37.4474 14.3766V20.2128C37.4474 20.6659 37.2065 21.0834 36.8178 21.3108C32.3088 23.9514 26.5049 25.4074 20.477 25.4074Z" fill="#767C83"/>
</g>
<mask id="mask1_411_42988" style="mask-type:luminance" maskUnits="userSpaceOnUse" x="13" y="3" width="15" height="8">
<path fill-rule="evenodd" clip-rule="evenodd" d="M13.2734 3.53125H27.6984V10.4483H13.2734V3.53125Z" fill="white"/>
</mask>
<g mask="url(#mask1_411_42988)">
<path fill-rule="evenodd" clip-rule="evenodd" d="M26.4256 10.4484C25.723 10.4484 25.1528 9.87821 25.1528 9.17563V8.55451C25.1528 7.18839 24.0412 6.07682 22.6751 6.07682H18.2967C16.9306 6.07682 15.819 7.18839 15.819 8.55451V9.17563C15.819 9.87821 15.2488 10.4484 14.5462 10.4484C13.8436 10.4484 13.2734 9.87821 13.2734 9.17563V8.55451C13.2734 5.78493 15.5271 3.53125 18.2967 3.53125H22.6751C25.4447 3.53125 27.6984 5.78493 27.6984 8.55451V9.17563C27.6984 9.87821 27.1281 10.4484 26.4256 10.4484Z" fill="#767C83"/>
</g>
<path fill-rule="evenodd" clip-rule="evenodd" d="M30.3269 37.031H10.6411C7.11975 37.031 4.155 34.2801 3.88857 30.7672L3.56613 26.5093C3.51352 25.8084 4.0396 25.1958 4.74048 25.1431C5.44476 25.1177 6.0523 25.6149 6.10661 26.3175L6.42735 30.5737C6.59366 32.7663 8.44344 34.4854 10.6411 34.4854H30.3269C32.5246 34.4854 34.376 32.7663 34.5407 30.5737L34.8631 26.3175C34.9174 25.6149 35.5402 25.116 36.2292 25.1431C36.9301 25.1958 37.4545 25.8084 37.4019 26.5093L37.0794 30.7672C36.813 34.2801 33.8483 37.031 30.3269 37.031Z" fill="#767C83"/>
</svg>
