<svg width="14" height="8" viewBox="0 0 14 8" fill="none" xmlns="http://www.w3.org/2000/svg">
<path fill-rule="evenodd" clip-rule="evenodd" d="M6.53957 4.73834C5.89934 4.73834 4.32697 4.74036 4.32697 4.74036V3.18105H8.25749C8.53125 5.06782 7.70547 7.89797 4.32697 7.89797C2.06668 7.89797 0.234375 6.13517 0.234375 3.96071C0.234375 1.7862 2.06668 0.0234375 4.32697 0.0234375C5.38756 0.0234375 6.3539 0.411551 7.08097 1.04822C6.51755 1.56009 6.33693 1.75522 6.18346 1.92101C6.10363 2.00725 6.03115 2.08556 5.91595 2.19638C5.49539 1.86179 5.0369 1.62173 4.32697 1.62173C2.98424 1.62173 1.93625 2.66893 1.93625 3.96071C1.93625 5.25248 2.98424 6.29968 4.32697 6.29968C5.65378 6.29968 6.19287 5.7492 6.53957 4.73834ZM11.7022 1.89453V3.25893H13.1205V4.2335H11.7022V5.63688H10.6892V4.2335H9.23047V3.25893H10.6892V1.89453H11.7022Z" fill="white"/>
</svg>
