<svg width="12" height="12" viewBox="0 0 12 12" fill="none" xmlns="http://www.w3.org/2000/svg">
<path d="M9.18051 3.5993C9.53908 3.5993 9.82976 3.30861 9.82976 2.95004C9.82976 2.59146 9.53908 2.30078 9.18051 2.30078C8.82193 2.30078 8.53125 2.59146 8.53125 2.95004C8.53125 3.30861 8.82193 3.5993 9.18051 3.5993Z" fill="white"/>
<path fill-rule="evenodd" clip-rule="evenodd" d="M3.67188 5.72868C3.67188 7.22062 4.88517 8.43392 6.37711 8.43392C7.86905 8.43392 9.08235 7.22062 9.08235 5.72868C9.08235 4.23674 7.86905 3.02344 6.37711 3.02344C4.88517 3.02344 3.67188 4.23674 3.67188 5.72868ZM5.02344 5.72957C5.02344 4.9836 5.63009 4.37695 6.37606 4.37695C7.12203 4.37695 7.72868 4.9836 7.72868 5.72957C7.72868 6.47554 7.12203 7.08219 6.37606 7.08219C5.63009 7.08219 5.02344 6.47554 5.02344 5.72957Z" fill="white"/>
<path fill-rule="evenodd" clip-rule="evenodd" d="M3.67399 11.1393H9.08447C10.475 11.1393 11.7897 9.82457 11.7897 8.43408V3.0236C11.7897 1.63311 10.475 0.318359 9.08447 0.318359H3.67399C2.2835 0.318359 0.96875 1.63311 0.96875 3.0236V8.43408C0.96875 9.82457 2.2835 11.1393 3.67399 11.1393ZM2.32031 3.02254C2.32031 2.39019 3.04058 1.66992 3.67293 1.66992H9.08341C9.71576 1.66992 10.436 2.39019 10.436 3.02254V8.43302C10.436 9.06537 9.71576 9.78564 9.08341 9.78564H3.67293C3.02841 9.78564 2.32031 9.07754 2.32031 8.43302V3.02254Z" fill="white"/>
</svg>
