<svg width="15" height="12" viewBox="0 0 15 12" fill="none" xmlns="http://www.w3.org/2000/svg">
<path d="M9.80751 0.00266654V0H10.464L10.7038 0.0506179C10.8637 0.0834741 11.0089 0.126534 11.1393 0.179799C11.2698 0.233074 11.396 0.295234 11.5181 0.36626C11.6401 0.437286 11.7508 0.509659 11.8501 0.583352C11.9486 0.656169 12.0369 0.733415 12.1152 0.815098C12.1926 0.897666 12.3134 0.918979 12.4775 0.879028C12.6416 0.839068 12.8183 0.78357 13.0077 0.712544C13.197 0.641518 13.3843 0.561606 13.5695 0.472808C13.7547 0.384011 13.8675 0.327637 13.9078 0.303667C13.9474 0.278811 13.9684 0.265497 13.9709 0.263706L13.9734 0.259711L13.986 0.253058L13.9987 0.246396L14.0114 0.239736L14.0239 0.233074L14.0264 0.229079L14.0303 0.226421L14.0341 0.223755L14.0366 0.21976L14.0492 0.215764L14.0618 0.213098L14.0593 0.233074L14.0555 0.253058L14.0492 0.273034L14.0428 0.29301L14.0366 0.306333L14.0303 0.319646L14.0239 0.339623C14.0197 0.352946 14.0155 0.370697 14.0114 0.392896C14.0071 0.415106 13.9671 0.503884 13.8914 0.659269C13.8157 0.814655 13.7209 0.972254 13.6073 1.13208C13.4938 1.2919 13.3919 1.41264 13.3019 1.49434C13.211 1.57691 13.1508 1.63462 13.1213 1.66748C13.0919 1.70121 13.0561 1.73229 13.014 1.7607L12.9508 1.80466L12.9383 1.81132L12.9256 1.81797L12.9231 1.82198L12.9194 1.82464L12.9155 1.8273L12.913 1.8313L12.9004 1.83796L12.8878 1.84461L12.8853 1.84862L12.8815 1.85127L12.8776 1.85394L12.8751 1.85793L12.8726 1.86193L12.8689 1.8646L12.8651 1.86725L12.8625 1.87125H12.9256L13.2791 1.79135C13.5147 1.73807 13.7399 1.6737 13.9545 1.59822L14.2953 1.47836L14.3333 1.46504L14.3522 1.45838L14.3648 1.45172L14.3774 1.44506L14.3901 1.4384L14.4026 1.43174L14.4279 1.42774L14.4531 1.42509V1.45172L14.4469 1.45438L14.4406 1.45838L14.438 1.46237L14.4342 1.46504L14.4304 1.46771L14.4279 1.4717L14.4254 1.47569L14.4215 1.47836L14.4178 1.48102L14.4153 1.48501L14.4128 1.48901L14.409 1.49168L14.4026 1.505L14.3963 1.51831L14.3926 1.52098C14.3909 1.52364 14.3374 1.5991 14.2322 1.74739C14.127 1.89656 14.0702 1.97202 14.0618 1.9738C14.0534 1.97647 14.0416 1.98978 14.0264 2.01376C14.0122 2.03861 13.923 2.13763 13.7588 2.31072C13.5947 2.4839 13.434 2.6379 13.2766 2.77291C13.1184 2.9088 13.0384 3.07569 13.0367 3.27367C13.0342 3.47077 13.0245 3.69365 13.0077 3.94231C12.9909 4.19087 12.9593 4.45951 12.913 4.74802C12.8667 5.03663 12.7952 5.36293 12.6984 5.72692C12.6017 6.091 12.4838 6.44613 12.345 6.79241C12.2061 7.13868 12.0609 7.44943 11.9094 7.72476C11.7579 7.99999 11.619 8.2331 11.4928 8.424C11.3666 8.6149 11.2383 8.79467 11.1078 8.96334C10.9774 9.13209 10.8124 9.32211 10.6129 9.53337C10.4127 9.74385 10.3032 9.85928 10.2847 9.87965C10.2654 9.89923 10.1829 9.97205 10.0373 10.0981C9.89255 10.225 9.73682 10.352 9.57019 10.479C9.4044 10.6051 9.25202 10.7103 9.11324 10.7947C8.97436 10.879 8.8069 10.9753 8.61074 11.0837C8.41552 11.1929 8.20427 11.2941 7.97701 11.3874C7.74984 11.4805 7.5099 11.5671 7.25749 11.647C7.00498 11.7269 6.76095 11.7891 6.52531 11.8335C6.28966 11.8779 6.02244 11.9157 5.72364 11.9467L5.27554 11.9933V12H4.45496V11.9933L4.34766 11.9866C4.27613 11.9822 4.21717 11.9778 4.17088 11.9733C4.12459 11.9689 3.94995 11.9445 3.647 11.9001C3.34402 11.8556 3.10627 11.8113 2.93374 11.7669C2.76122 11.7225 2.50453 11.6382 2.16368 11.5138C1.82282 11.3895 1.53121 11.2639 1.28883 11.1369C1.04729 11.0109 0.895807 10.931 0.834362 10.8972C0.773774 10.8644 0.705603 10.8235 0.629861 10.7747L0.516238 10.7014L0.513732 10.6975L0.509932 10.6948L0.506141 10.6921L0.503617 10.6881L0.490997 10.6814L0.478366 10.6748L0.475861 10.6708L0.472061 10.6681L0.46827 10.6655L0.465746 10.6614L0.463231 10.6575L0.459431 10.6548H0.453125V10.6282L0.465746 10.6308L0.478366 10.6348L0.535174 10.6415C0.573045 10.6459 0.676152 10.6526 0.844468 10.6614C1.01279 10.6703 1.19162 10.6703 1.38099 10.6614C1.57035 10.6526 1.76392 10.6326 1.96169 10.6015C2.15947 10.5704 2.39302 10.5172 2.66233 10.4417C2.93164 10.3662 3.17907 10.2766 3.40463 10.1727C3.62934 10.0679 3.78919 9.98976 3.88438 9.9383C3.97864 9.88762 4.12254 9.79355 4.31609 9.65588L4.60641 9.44944L4.60892 9.4455L4.61274 9.44285L4.61656 9.44019L4.61908 9.43615L4.62159 9.43212L4.62532 9.42946L4.62914 9.42681L4.63165 9.42287L4.64432 9.41883L4.65689 9.41618L4.65941 9.40289L4.66323 9.38951L4.66704 9.38686L4.66956 9.38292L4.56859 9.37623C4.50125 9.3718 4.43596 9.36737 4.3729 9.36294C4.30975 9.35852 4.21084 9.33854 4.07625 9.30302C3.94157 9.2675 3.79636 9.21416 3.64068 9.14312C3.485 9.07217 3.3335 8.98774 3.18622 8.89012C3.03895 8.79241 2.93247 8.71113 2.86684 8.64638C2.80203 8.58242 2.71787 8.49189 2.61435 8.3747C2.51168 8.25662 2.42247 8.13539 2.34673 8.01111C2.27097 7.88683 2.1986 7.74336 2.1296 7.5809L2.02481 7.33853L2.0185 7.31856L2.01219 7.29858L2.0084 7.2852L2.00588 7.27192L2.02481 7.27457L2.04375 7.27861L2.18261 7.29858C2.27519 7.31187 2.42037 7.3163 2.61814 7.31187C2.81592 7.30744 2.95267 7.29858 3.02842 7.2852C3.10416 7.27192 3.15045 7.26306 3.16728 7.25863L3.19253 7.25194L3.22409 7.24525L3.25566 7.23866L3.25818 7.23462L3.26196 7.23196L3.26576 7.22931L3.26828 7.22527L3.24302 7.21858L3.21778 7.21199L3.19253 7.2053L3.16728 7.19861L3.14203 7.19201C3.12521 7.18759 3.09576 7.17863 3.05367 7.16535C3.01159 7.15206 2.89797 7.10316 2.71282 7.01883C2.52767 6.9345 2.38039 6.85233 2.27097 6.77243C2.16129 6.69233 2.05671 6.60466 1.95791 6.51009C1.85944 6.41415 1.7513 6.29076 1.63347 6.13981C1.51564 5.98886 1.41045 5.81351 1.31787 5.61376C1.22529 5.414 1.15586 5.2231 1.10957 5.04106C1.06346 4.8601 1.03304 4.67511 1.01869 4.48834L0.995953 4.20868L1.00857 4.21134L1.0212 4.21528L1.03382 4.22197L1.04644 4.22866L1.05907 4.23525L1.0717 4.24194L1.26737 4.33513C1.39783 4.39732 1.55983 4.45065 1.7534 4.49503C1.94697 4.53941 2.06268 4.56381 2.10055 4.56824L2.15736 4.57493H2.27097L2.26847 4.5709L2.26467 4.56824L2.26088 4.56558L2.25835 4.56155L2.25584 4.55761L2.25204 4.55496L2.24826 4.5523L2.24573 4.54827L2.2331 4.54157L2.22048 4.53498L2.21797 4.53095L2.21417 4.52829L2.21039 4.52563L2.20786 4.5216L2.19523 4.51501L2.18261 4.50832L2.1801 4.50428C2.17757 4.50251 2.14138 4.47417 2.07152 4.41906C2.0025 4.36317 1.93013 4.29075 1.85439 4.20199C1.77864 4.11323 1.7029 4.01995 1.62715 3.92234C1.55127 3.82443 1.48368 3.71973 1.42517 3.60932C1.36626 3.49832 1.30398 3.35712 1.23833 3.1858C1.17354 3.01527 1.1243 2.84346 1.09063 2.67038C1.05698 2.49719 1.03804 2.32627 1.03382 2.15761C1.02962 1.9889 1.03382 1.84461 1.04644 1.72475C1.05907 1.60489 1.08433 1.46948 1.1222 1.31854C1.16007 1.1676 1.21478 1.00778 1.2863 0.839068L1.39361 0.586019L1.39993 0.566044L1.40623 0.546058L1.41003 0.543401L1.41255 0.539407L1.41507 0.535412L1.41886 0.532745L1.42266 0.535412L1.42517 0.539407L1.42769 0.543401L1.43148 0.546058L1.43528 0.548725L1.4378 0.55272L1.44032 0.556715L1.4441 0.559382L1.45042 0.572695L1.45673 0.586019L1.46053 0.588686L1.46304 0.592681L1.63347 0.792456C1.74708 0.925642 1.88175 1.07437 2.03743 1.23863C2.19314 1.40288 2.2794 1.48812 2.29622 1.49434C2.31306 1.50144 2.3341 1.52186 2.35935 1.55561C2.3846 1.58846 2.46876 1.66704 2.61182 1.79135C2.75491 1.91565 2.94216 2.05993 3.1736 2.22422C3.40504 2.38846 3.66173 2.55052 3.94362 2.71033C4.22565 2.87013 4.52854 3.01439 4.85258 3.14319C5.17662 3.2719 5.40388 3.35623 5.53428 3.39618C5.66477 3.43613 5.88775 3.48721 6.20332 3.54939C6.51897 3.61158 6.75676 3.65153 6.91659 3.66925C7.07652 3.68696 7.18596 3.69719 7.24482 3.69985L7.33321 3.70251L7.3307 3.68253L7.32688 3.66256L7.30164 3.49606C7.28478 3.38516 7.2764 3.22979 7.2764 3.02993C7.2764 2.83018 7.29111 2.64597 7.32055 2.47721C7.35007 2.30855 7.39422 2.13763 7.45318 1.96448C7.51205 1.79135 7.5697 1.65237 7.62605 1.54762C7.68333 1.44372 7.75822 1.32519 7.8508 1.19201C7.94338 1.05883 8.06335 0.921204 8.21061 0.779132C8.35786 0.63707 8.52617 0.510545 8.71552 0.399558C8.90488 0.288571 9.07952 0.204213 9.23944 0.14651C9.39937 0.0887978 9.53396 0.0510508 9.6434 0.0332992C9.75284 0.0155476 9.80751 0.00533322 9.80751 0.00266654Z" fill="white"/>
</svg>
