<svg width="14" height="10" viewBox="0 0 14 10" fill="none" xmlns="http://www.w3.org/2000/svg">
<path fill-rule="evenodd" clip-rule="evenodd" d="M11.9059 0.435955C12.4762 0.586902 12.9254 1.02929 13.0784 1.58995C13.3626 2.61326 13.3493 4.74678 13.3493 4.74678C13.3493 4.74678 13.3473 6.86855 13.0718 7.8912C12.9167 8.45121 12.4656 8.89294 11.8959 9.04324C10.8539 9.31115 6.68493 9.30658 6.68493 9.30658C6.68493 9.30658 2.5273 9.302 1.47458 9.02102C0.903636 8.87007 0.454468 8.42768 0.301418 7.86768C0.0285902 6.85482 0.031251 4.72195 0.031251 4.72195C0.031251 4.72195 0.0339137 2.59954 0.308738 1.57623C0.463119 1.01622 0.92493 0.564031 1.48389 0.414391C2.52663 0.145821 6.69491 0.150396 6.69491 0.150396C6.69491 0.150396 10.8639 0.15497 11.9059 0.435955ZM5.36661 2.76758L5.36328 6.6883L8.83153 4.7312L5.36661 2.76758Z" fill="white"/>
</svg>
