<svg width="24" height="24" viewBox="0 0 24 24" fill="none" xmlns="http://www.w3.org/2000/svg">
<path fill-rule="evenodd" clip-rule="evenodd" d="M7.21848 16.0026C7.05848 16.0026 6.89748 15.9516 6.76148 15.8476C6.43348 15.5946 6.37148 15.1236 6.62448 14.7956L9.61748 10.9056C9.73948 10.7466 9.92048 10.6436 10.1185 10.6186C10.3205 10.5926 10.5185 10.6486 10.6755 10.7736L13.4955 12.9886L15.9625 9.80562C16.2165 9.47662 16.6865 9.41562 17.0145 9.67162C17.3425 9.92562 17.4025 10.3966 17.1485 10.7236L14.2185 14.5036C14.0965 14.6616 13.9165 14.7646 13.7185 14.7886C13.5185 14.8156 13.3205 14.7576 13.1625 14.6346L10.3445 12.4206L7.81348 15.7096C7.66548 15.9016 7.44348 16.0026 7.21848 16.0026Z" fill="#767C83"/>
<mask id="mask0_411_43150" style="mask-type:luminance" maskUnits="userSpaceOnUse" x="17" y="2" width="6" height="6">
<path fill-rule="evenodd" clip-rule="evenodd" d="M17.2969 2H22.6409V7.3449H17.2969V2Z" fill="white"/>
</mask>
<g mask="url(#mask0_411_43150)">
<path fill-rule="evenodd" clip-rule="evenodd" d="M19.9689 3.5C19.3229 3.5 18.7969 4.025 18.7969 4.672C18.7969 5.318 19.3229 5.845 19.9689 5.845C20.6149 5.845 21.1409 5.318 21.1409 4.672C21.1409 4.025 20.6149 3.5 19.9689 3.5ZM19.9689 7.345C18.4959 7.345 17.2969 6.146 17.2969 4.672C17.2969 3.198 18.4959 2 19.9689 2C21.4429 2 22.6409 3.198 22.6409 4.672C22.6409 6.146 21.4429 7.345 19.9689 7.345Z" fill="#767C83"/>
</g>
<mask id="mask1_411_43150" style="mask-type:luminance" maskUnits="userSpaceOnUse" x="2" y="2" width="20" height="21">
<path fill-rule="evenodd" clip-rule="evenodd" d="M2 2.8418H21.8619V22.7028H2V2.8418Z" fill="white"/>
</mask>
<g mask="url(#mask1_411_43150)">
<path fill-rule="evenodd" clip-rule="evenodd" d="M16.233 22.7028H7.629C4.262 22.7028 2 20.3378 2 16.8178V8.7358C2 5.2108 4.262 2.8418 7.629 2.8418H14.897C15.311 2.8418 15.647 3.1778 15.647 3.5918C15.647 4.0058 15.311 4.3418 14.897 4.3418H7.629C5.121 4.3418 3.5 6.0658 3.5 8.7358V16.8178C3.5 19.5228 5.082 21.2028 7.629 21.2028H16.233C18.741 21.2028 20.362 19.4818 20.362 16.8178V9.7788C20.362 9.3648 20.698 9.0288 21.112 9.0288C21.526 9.0288 21.862 9.3648 21.862 9.7788V16.8178C21.862 20.3378 19.6 22.7028 16.233 22.7028Z" fill="#767C83"/>
</g>
</svg>
