<svg width="24" height="24" viewBox="0 0 24 24" fill="none" xmlns="http://www.w3.org/2000/svg">
<g clip-path="url(#clip0_411_43157)">
<path d="M1.1 9.00195C1.1 9.4948 1.50716 9.90195 2 9.90195C2.49284 9.90195 2.9 9.4948 2.9 9.00195V6.50195C2.9 4.5148 4.51284 2.90195 6.5 2.90195H9C9.49284 2.90195 9.9 2.4948 9.9 2.00195C9.9 1.50911 9.49284 1.10195 9 1.10195H6.5C3.52734 1.10195 1.1 3.51892 1.1 6.50195V9.00195Z" fill="#767C83" stroke="#767C83" stroke-width="0.3"/>
<path d="M21.1 9.00195C21.1 9.4948 21.5072 9.90195 22 9.90195C22.4928 9.90195 22.9 9.4948 22.9 9.00195V6.50195C22.9 3.51892 20.4727 1.10195 17.5 1.10195H15C14.5072 1.10195 14.1 1.50911 14.1 2.00195C14.1 2.4948 14.5072 2.90195 15 2.90195H17.5C19.4872 2.90195 21.1 4.5148 21.1 6.50195V9.00195Z" fill="#767C83" stroke="#767C83" stroke-width="0.3"/>
<path d="M16 22.898H17.5C20.4727 22.898 22.9 20.4811 22.9 17.498V15.998C22.9 15.5052 22.4928 15.098 22 15.098C21.5072 15.098 21.1 15.5052 21.1 15.998V17.498C21.1 19.4852 19.4872 21.098 17.5 21.098H16C15.5072 21.098 15.1 21.5052 15.1 21.998C15.1 22.4909 15.5072 22.898 16 22.898Z" fill="#767C83" stroke="#767C83" stroke-width="0.3"/>
<path d="M6.5 22.9H9C9.49284 22.9 9.9 22.4928 9.9 22C9.9 21.5072 9.49284 21.1 9 21.1H6.5C4.51284 21.1 2.9 19.4872 2.9 17.5V15C2.9 14.5072 2.49284 14.1 2 14.1C1.50716 14.1 1.1 14.5072 1.1 15V17.5C1.1 20.483 3.52734 22.9 6.5 22.9Z" fill="#767C83" stroke="#767C83" stroke-width="0.3"/>
<path d="M7 12.777H17C17.4245 12.777 17.775 12.4265 17.775 12.002C17.775 11.5774 17.4245 11.227 17 11.227H7C6.57549 11.227 6.225 11.5774 6.225 12.002C6.225 12.4265 6.57549 12.777 7 12.777Z" fill="#767C83" stroke="#767C83" stroke-width="0.3"/>
<path d="M11.225 17C11.225 17.4245 11.5755 17.775 12 17.775C12.4245 17.775 12.775 17.4245 12.775 17V7C12.775 6.57549 12.4245 6.225 12 6.225C11.5755 6.225 11.225 6.57549 11.225 7V17Z" fill="#767C83" stroke="#767C83" stroke-width="0.3"/>
</g>
<defs>
<clipPath id="clip0_411_43157">
<rect width="24" height="24" fill="white"/>
</clipPath>
</defs>
</svg>
