<svg width="24" height="24" viewBox="0 0 24 24" fill="none" xmlns="http://www.w3.org/2000/svg">
<path d="M12.0022 22.6298C11.3322 22.6298 10.6522 22.4798 10.1222 22.1698L4.62219 18.9998C2.38219 17.4898 2.24219 17.2598 2.24219 14.8898V9.1098C2.24219 6.7398 2.37219 6.5098 4.57219 5.0198L10.1122 1.8198C11.1622 1.2098 12.8122 1.2098 13.8622 1.8198L19.3822 4.9998C21.6222 6.5098 21.7622 6.7398 21.7622 9.1098V14.8798C21.7622 17.2498 21.6322 17.4798 19.4322 18.9698L13.8922 22.1698C13.3522 22.4798 12.6722 22.6298 12.0022 22.6298ZM12.0022 2.8698C11.5822 2.8698 11.1722 2.9498 10.8822 3.1198L5.38219 6.2998C3.75219 7.3998 3.75219 7.3998 3.75219 9.1098V14.8798C3.75219 16.5898 3.75219 16.5898 5.42219 17.7198L10.8822 20.8698C11.4722 21.2098 12.5422 21.2098 13.1322 20.8698L18.6322 17.6898C20.2522 16.5898 20.2522 16.5898 20.2522 14.8798V9.1098C20.2522 7.3998 20.2522 7.3998 18.5822 6.2698L13.1222 3.1198C12.8322 2.9498 12.4222 2.8698 12.0022 2.8698Z" fill="#767C83"/>
<path d="M12 15.75C9.93 15.75 8.25 14.07 8.25 12C8.25 9.93 9.93 8.25 12 8.25C14.07 8.25 15.75 9.93 15.75 12C15.75 14.07 14.07 15.75 12 15.75ZM12 9.75C10.76 9.75 9.75 10.76 9.75 12C9.75 13.24 10.76 14.25 12 14.25C13.24 14.25 14.25 13.24 14.25 12C14.25 10.76 13.24 9.75 12 9.75Z" fill="#767C83"/>
</svg>
